<svg id="awards-icon-02" xmlns="http://www.w3.org/2000/svg" width="87.507" height="100" viewBox="0 0 87.507 100">
  <path id="Path_1342" data-name="Path 1342" d="M438.886,456.4v-3.008h-1.667V456.4h-3.008v1.667h3.008v3.008h1.667v-3.008h3.008V456.4Z" transform="translate(-371.568 -361.077)" fill="#f2ba49"/>
  <ellipse id="Ellipse_96" data-name="Ellipse 96" cx="1.95" cy="1.95" rx="1.95" ry="1.95" transform="translate(11.647 83.357)" fill="#ffd34d"/>
  <path id="Path_1345" data-name="Path 1345" d="M353.5,451.285a2.6,2.6,0,1,1-2.6-2.6A2.6,2.6,0,0,1,353.5,451.285Z" transform="translate(-333.091 -358.968)" fill="#f2ba49"/>
  <g id="Group_36244" data-name="Group 36244" transform="translate(-745.999 -326)">
    <rect id="Rectangle_48" data-name="Rectangle 48" width="48.496" height="15.676" transform="translate(765.506 326)" fill="#2d1e66"/>
    <rect id="Rectangle_49" data-name="Rectangle 49" width="68.789" height="22.204" transform="translate(781.135 386.43) rotate(-61.46)" fill="#2d1e66"/>
    <rect id="Rectangle_50" data-name="Rectangle 50" width="68.789" height="22.204" transform="translate(778.865 397.039) rotate(-118.54)" fill="#004da2"/>
    <ellipse id="Ellipse_95" data-name="Ellipse 95" cx="29.546" cy="29.546" rx="29.546" ry="29.546" transform="translate(760.207 364.453)" fill="#ffd34d"/>
    <path id="Path_1340" data-name="Path 1340" d="M379.559,414.116a25.2,25.2,0,1,1,25.2-25.2A25.232,25.232,0,0,1,379.559,414.116Zm0-48.453a23.25,23.25,0,1,0,23.249,23.249A23.276,23.276,0,0,0,379.559,365.664Z" transform="translate(410.195 5.087)" fill="#f2ba49"/>
    <path id="Path_1341" data-name="Path 1341" d="M387.409,379.792l3.665,11.279h11.859l-9.594,6.971L397,409.321l-9.594-6.971-9.594,6.971,3.665-11.279-9.594-6.971h11.859Z" transform="translate(402.344 -2.115)" fill="#f2ba49"/>
    <path id="Path_1343" data-name="Path 1343" d="M338.514,370.676V368.3H337.2v2.379h-2.379v1.318H337.2v2.379h1.319v-2.379h2.379v-1.318Z" transform="translate(418.945 3.033)" fill="#ffd34d"/>
    <path id="Path_1344" data-name="Path 1344" d="M335.088,402.064a1.7,1.7,0,1,1-1.7-1.7A1.7,1.7,0,0,1,335.088,402.064Z" transform="translate(420.35 -11.327)" fill="#f2ba49"/>
    <ellipse id="Ellipse_97" data-name="Ellipse 97" cx="3.154" cy="3.154" rx="3.154" ry="3.154" transform="translate(824.975 391.222)" fill="#ffd34d"/>
  </g>
</svg>
