<svg id="awards-icon-03" xmlns="http://www.w3.org/2000/svg" width="66.638" height="100" viewBox="0 0 66.638 100">
  <g id="Group_3512" data-name="Group 3512" transform="translate(4.553 51.349)">
    <path id="Path_2684" data-name="Path 2684" d="M378.684,173.005c-3.24,10.93-11.988,16.422-19.934,12.521L370.2,221.656l6.461-17.321,13.477,4.814Z" transform="translate(-329.439 -173.005)" fill="#149fb1"/>
    <path id="Path_2685" data-name="Path 2685" d="M313.64,185.913c-4.1-2.209-7.171-6.538-8.834-11.758L294.9,210.528l13.275-5.82,7.111,16.81,9.689-35.572a11.641,11.641,0,0,1-11.333-.033" transform="translate(-294.899 -173.627)" fill="#004da2"/>
    <path id="Path_2686" data-name="Path 2686" d="M361.134,193.047a38.214,38.214,0,0,0,21.576-7.341l-4.025-12.7c-3.24,10.93-11.988,16.422-19.934,12.521Z" transform="translate(-329.439 -173.005)" fill="#0e0a73"/>
    <path id="Path_2687" data-name="Path 2687" d="M320.975,185.913c-4.1-2.209-7.171-6.538-8.834-11.758l-3.683,13.522a38.277,38.277,0,0,0,21.749,5.983l2.1-7.715a11.641,11.641,0,0,1-11.333-.033" transform="translate(-302.234 -173.627)" fill="#2d1e66" opacity="0.43"/>
  </g>
  <g id="Group_36245" data-name="Group 36245" transform="translate(-1098 -326)">
    <g id="Group_3513" data-name="Group 3513" transform="translate(1098 326)">
      <path id="Path_2688" data-name="Path 2688" d="M349.4,106.385A33.309,33.309,0,1,0,306.38,125.57,33.31,33.31,0,0,0,349.4,106.385" transform="translate(-284.981 -61.148)" fill="#ffc828"/>
    </g>
    <path id="Path_2689" data-name="Path 2689" d="M342.143,109.934h-.092l-5.883,2.62-1.333-6.159,8.548-3.769h6.756V132.5h-8Z" transform="translate(786.051 242.414)" fill="#e8e6d4"/>
    <g id="Group_3514" data-name="Group 3514" transform="translate(1099.826 329.442)">
      <path id="Path_2690" data-name="Path 2690" d="M348.148,106.043a4.936,4.936,0,0,0-1.523,1.113,28.361,28.361,0,0,0,.8-3.669,4.3,4.3,0,0,0,3.559-1.119,4.838,4.838,0,0,0,1.786-2.873,4.489,4.489,0,0,0-3.693,1.131,4.877,4.877,0,0,0-1.523,1.923,35.484,35.484,0,0,0,.248-3.877c0-.126,0-.252,0-.377a4.441,4.441,0,0,0,3.332-1.895,5,5,0,0,0,1.189-3.209,4.623,4.623,0,0,0-3.392,1.929,5.036,5.036,0,0,0-1.141,2.34,28.267,28.267,0,0,0-.462-4.367,4.607,4.607,0,0,0,2.8-2.564,5.1,5.1,0,0,0,.541-3.4,4.81,4.81,0,0,0-2.944,2.642,5.35,5.35,0,0,0-.648,2.12,25.216,25.216,0,0,0-1.217-3.807,4.79,4.79,0,0,0,2.141-3.068,5.132,5.132,0,0,0-.13-3.451,5.01,5.01,0,0,0-2.368,3.24,5.7,5.7,0,0,0-.25,1.924,23.481,23.481,0,0,0-1.871-3.191,4.953,4.953,0,0,0,1.467-3.447,5.065,5.065,0,0,0-.8-3.346,5.19,5.19,0,0,0-1.687,3.7,5.758,5.758,0,0,0,.119,1.9,22.88,22.88,0,0,0-2.465-2.623,5.088,5.088,0,0,0,.794-3.74,4.935,4.935,0,0,0-1.428-3.094,5.321,5.321,0,0,0-.934,3.993A5.5,5.5,0,0,0,339,78.845a23.534,23.534,0,0,0-3.027-2.076,5.138,5.138,0,0,0,.085-3.921,4.761,4.761,0,0,0-2-2.709,5.379,5.379,0,0,0-.139,4.114,5.136,5.136,0,0,0,1.085,1.989,25.12,25.12,0,0,0-3.53-1.493,5.121,5.121,0,0,0-.668-3.9,4.566,4.566,0,0,0-2.479-2.2,5.352,5.352,0,0,0,.662,4.054,4.9,4.9,0,0,0,1.495,1.738c-.4-.117-.8-.226-1.211-.325l-.979.225q.961.232,1.891.537a4.425,4.425,0,0,0-2.563,1.55,4.954,4.954,0,0,0-1.4,3.111,4.572,4.572,0,0,0,3.51-1.669,4.991,4.991,0,0,0,1.386-2.667,25.064,25.064,0,0,1,3.2,1.446,4.406,4.406,0,0,0-2.467.945,4.771,4.771,0,0,0-1.969,2.731,4.456,4.456,0,0,0,3.757-.851,4.777,4.777,0,0,0,1.819-2.173,24.633,24.633,0,0,1,2.8,1.984,4.366,4.366,0,0,0-2.485.394,4.576,4.576,0,0,0-2.456,2.234,4.415,4.415,0,0,0,3.84,0,4.576,4.576,0,0,0,2.181-1.691,24.153,24.153,0,0,1,2.381,2.54,4.351,4.351,0,0,0-2.518-.175,4.407,4.407,0,0,0-2.835,1.638,5.019,5.019,0,0,0,6.228-.317,24.051,24.051,0,0,1,1.855,3.044A4.4,4.4,0,0,0,342,86.2a4.275,4.275,0,0,0-3.091.97,4.581,4.581,0,0,0,3.506,1.68,4.309,4.309,0,0,0,2.657-.609,24.426,24.426,0,0,1,1.2,3.38,4.541,4.541,0,0,0-2.241-1.265,4.213,4.213,0,0,0-3.212.26,4.74,4.74,0,0,0,3.1,2.424,4.258,4.258,0,0,0,2.692.006,25.429,25.429,0,0,1,.484,3.474,4.779,4.779,0,0,0-1.892-1.648,4.219,4.219,0,0,0-3.192-.461,4.943,4.943,0,0,0,2.566,3.063,4.3,4.3,0,0,0,2.582.61q0,.287,0,.576-.016,1.518-.151,2.927a4.966,4.966,0,0,0-1.531-2.034,4.3,4.3,0,0,0-3.033-1.162,5.137,5.137,0,0,0,1.916,3.567,4.416,4.416,0,0,0,2.463,1.18,26.953,26.953,0,0,1-.826,3.813,5.022,5.022,0,0,0-1.16-2.758,4.453,4.453,0,0,0-2.741-1.815,5.287,5.287,0,0,0,1.183,3.918,4.571,4.571,0,0,0,2.36,1.766,21.491,21.491,0,0,1-1.774,3.834,5.091,5.091,0,0,0-.552-3.308,4.634,4.634,0,0,0-2.33-2.385,5.374,5.374,0,0,0,.4,4.1,4.78,4.78,0,0,0,2.046,2.3,19.534,19.534,0,0,1-2.483,3.092,5.161,5.161,0,0,0,.026-3.147,4.823,4.823,0,0,0-1.816-2.852,5.368,5.368,0,0,0-.406,4.094,4.962,4.962,0,0,0,1.457,2.615,20.519,20.519,0,0,1-2.675,2.063,5.352,5.352,0,0,0,.38-2.569,4.988,4.988,0,0,0-1.223-3.195,5.285,5.285,0,0,0-1.191,3.913,5.146,5.146,0,0,0,.749,2.623,24.722,24.722,0,0,1-3.412,1.564,5.208,5.208,0,0,0,.908-2.482,5.094,5.094,0,0,0-.578-3.4,5.129,5.129,0,0,0-1.924,3.562,5.21,5.21,0,0,0,.241,2.78,32.227,32.227,0,0,1-4.656,1.078,4.708,4.708,0,0,0,2.385-2.858,5.133,5.133,0,0,0,.15-3.451,4.926,4.926,0,0,0-2.622,3.008,5.282,5.282,0,0,0-.24,3.351l-.228.033h-.033v.005q-1.315.186-2.669.283a7.472,7.472,0,0,0-2.71.75,7.453,7.453,0,0,0-2.693-.742q-1.353-.1-2.669-.283v-.005h-.033l-.229-.032a5.286,5.286,0,0,0-.24-3.352,4.928,4.928,0,0,0-2.622-3.008,5.133,5.133,0,0,0,.15,3.45,4.712,4.712,0,0,0,2.385,2.858,32.315,32.315,0,0,1-4.655-1.078,5.208,5.208,0,0,0,.241-2.779,5.135,5.135,0,0,0-1.924-3.564,5.1,5.1,0,0,0-.577,3.4,5.2,5.2,0,0,0,.908,2.482,24.759,24.759,0,0,1-3.412-1.564,5.138,5.138,0,0,0,.749-2.623,5.283,5.283,0,0,0-1.191-3.913,4.989,4.989,0,0,0-1.223,3.195,5.354,5.354,0,0,0,.38,2.569,20.609,20.609,0,0,1-2.675-2.063,4.963,4.963,0,0,0,1.457-2.615,5.368,5.368,0,0,0-.406-4.094,4.827,4.827,0,0,0-1.816,2.852,5.155,5.155,0,0,0,.026,3.147,19.5,19.5,0,0,1-2.484-3.093,4.779,4.779,0,0,0,2.046-2.3,5.374,5.374,0,0,0,.4-4.1,4.633,4.633,0,0,0-2.33,2.384,5.091,5.091,0,0,0-.552,3.309,21.455,21.455,0,0,1-1.774-3.834,4.571,4.571,0,0,0,2.36-1.766,5.286,5.286,0,0,0,1.183-3.918,4.455,4.455,0,0,0-2.741,1.814,5.028,5.028,0,0,0-1.16,2.759,27.018,27.018,0,0,1-.826-3.813,4.416,4.416,0,0,0,2.463-1.179,5.136,5.136,0,0,0,1.916-3.568,4.3,4.3,0,0,0-3.033,1.163,4.971,4.971,0,0,0-1.531,2.033q-.132-1.409-.15-2.926,0-.289,0-.576a4.3,4.3,0,0,0,2.582-.61,4.942,4.942,0,0,0,2.566-3.063,4.219,4.219,0,0,0-3.192.462,4.772,4.772,0,0,0-1.892,1.648,25.516,25.516,0,0,1,.484-3.475,4.258,4.258,0,0,0,2.692-.006,4.741,4.741,0,0,0,3.1-2.423,4.206,4.206,0,0,0-3.212-.26,4.546,4.546,0,0,0-2.242,1.265,24.507,24.507,0,0,1,1.2-3.379,4.307,4.307,0,0,0,2.657.609,4.58,4.58,0,0,0,3.506-1.68,4.267,4.267,0,0,0-3.091-.97,4.395,4.395,0,0,0-2.459.751,24.014,24.014,0,0,1,1.855-3.044,4.413,4.413,0,0,0,2.472,1.178,4.46,4.46,0,0,0,3.755-.861,4.4,4.4,0,0,0-2.836-1.637,4.339,4.339,0,0,0-2.518.174,24.29,24.29,0,0,1,2.381-2.54,4.584,4.584,0,0,0,2.181,1.691,4.415,4.415,0,0,0,3.84-.005,4.576,4.576,0,0,0-2.456-2.233,4.364,4.364,0,0,0-2.485-.394,24.62,24.62,0,0,1,2.8-1.984,4.781,4.781,0,0,0,1.819,2.173,4.454,4.454,0,0,0,3.757.85,4.768,4.768,0,0,0-1.969-2.731,4.4,4.4,0,0,0-2.467-.945,25.158,25.158,0,0,1,3.2-1.447,4.991,4.991,0,0,0,1.386,2.667,4.572,4.572,0,0,0,3.51,1.669,4.95,4.95,0,0,0-1.4-3.111,4.434,4.434,0,0,0-2.563-1.551q.93-.3,1.891-.537l-.978-.224c-.409.1-.812.208-1.211.325a4.891,4.891,0,0,0,1.495-1.738,5.351,5.351,0,0,0,.661-4.055,4.569,4.569,0,0,0-2.478,2.2,5.122,5.122,0,0,0-.668,3.9,25.033,25.033,0,0,0-3.53,1.493,5.141,5.141,0,0,0,1.085-1.989,5.377,5.377,0,0,0-.139-4.114,4.76,4.76,0,0,0-2,2.709,5.14,5.14,0,0,0,.085,3.921,23.484,23.484,0,0,0-3.028,2.076,5.5,5.5,0,0,0,.559-1.975,5.32,5.32,0,0,0-.934-3.993,4.931,4.931,0,0,0-1.428,3.094,5.083,5.083,0,0,0,.794,3.74,22.885,22.885,0,0,0-2.465,2.623,5.756,5.756,0,0,0,.119-1.9,5.188,5.188,0,0,0-1.688-3.7,5.075,5.075,0,0,0-.8,3.346,4.96,4.96,0,0,0,1.468,3.447,23.34,23.34,0,0,0-1.871,3.191,5.7,5.7,0,0,0-.25-1.924,5.007,5.007,0,0,0-2.368-3.24,5.126,5.126,0,0,0-.13,3.45,4.786,4.786,0,0,0,2.141,3.068,25.164,25.164,0,0,0-1.218,3.807,5.353,5.353,0,0,0-.647-2.119,4.807,4.807,0,0,0-2.945-2.642,5.1,5.1,0,0,0,.542,3.4,4.606,4.606,0,0,0,2.8,2.564,28.324,28.324,0,0,0-.461,4.367,5.043,5.043,0,0,0-1.141-2.34A4.62,4.62,0,0,0,289.4,93.2a5,5,0,0,0,1.189,3.208,4.441,4.441,0,0,0,3.332,1.895c0,.125,0,.25,0,.376a35.541,35.541,0,0,0,.248,3.88,4.873,4.873,0,0,0-1.524-1.924,4.49,4.49,0,0,0-3.693-1.131,4.838,4.838,0,0,0,1.786,2.873,4.3,4.3,0,0,0,3.559,1.12,28.439,28.439,0,0,0,.8,3.669,4.947,4.947,0,0,0-1.523-1.114,4.428,4.428,0,0,0-3.832-.282,4.647,4.647,0,0,0,2.3,2.413,4.21,4.21,0,0,0,3.5.367,23.372,23.372,0,0,0,1.364,3.13,5.176,5.176,0,0,0-1.377-.534,4.439,4.439,0,0,0-3.8.577,4.461,4.461,0,0,0,2.722,1.846,4.2,4.2,0,0,0,3.355-.343,21.2,21.2,0,0,0,2,2.66,5.2,5.2,0,0,0-1.377-.195,4.53,4.53,0,0,0-3.607,1.413,4.317,4.317,0,0,0,3.021,1.2,4.272,4.272,0,0,0,3.235-1.1,21.824,21.824,0,0,0,2.728,2.2,4.823,4.823,0,0,0-1.658.09,4.684,4.684,0,0,0-3.255,2.185,4.221,4.221,0,0,0,3.188.5,4.44,4.44,0,0,0,3.052-1.935,25.045,25.045,0,0,0,3.151,1.56,5.417,5.417,0,0,0-1.236.406,4.879,4.879,0,0,0-2.759,2.864,4.2,4.2,0,0,0,3.214-.22,4.592,4.592,0,0,0,2.53-2.4q1.347.451,2.758.776c-.122.083-.246.174-.375.272a5.089,5.089,0,0,0-2.087,3.456,4.277,4.277,0,0,0,3.085-.992,4.814,4.814,0,0,0,1.763-2.277q1.46.226,2.963.334a6.191,6.191,0,0,1,1.327.243c-1.93,1.278-3.633,3.059-5.468,4.225l1.464.656c2.043-1.3,3.479-3.189,5.389-4.281,1.917,1.091,3.355,2.987,5.4,4.289l1.464-.656c-1.84-1.17-3.549-2.957-5.485-4.236a6.153,6.153,0,0,1,1.344-.248q1.5-.108,2.962-.334a4.82,4.82,0,0,0,1.763,2.279,4.277,4.277,0,0,0,3.085.99,5.087,5.087,0,0,0-2.087-3.455c-.129-.1-.253-.189-.375-.272q1.41-.326,2.758-.776a4.591,4.591,0,0,0,2.53,2.4,4.2,4.2,0,0,0,3.214.22,4.879,4.879,0,0,0-2.759-2.864,5.417,5.417,0,0,0-1.236-.407,24.988,24.988,0,0,0,3.152-1.56,4.439,4.439,0,0,0,3.052,1.935,4.221,4.221,0,0,0,3.187-.5,4.685,4.685,0,0,0-3.255-2.185,4.822,4.822,0,0,0-1.658-.089,21.822,21.822,0,0,0,2.728-2.2,4.273,4.273,0,0,0,3.235,1.1,4.32,4.32,0,0,0,3.02-1.2,4.528,4.528,0,0,0-3.607-1.414,5.236,5.236,0,0,0-1.376.194,21.217,21.217,0,0,0,2-2.659,4.2,4.2,0,0,0,3.353.343,4.459,4.459,0,0,0,2.722-1.846,4.436,4.436,0,0,0-3.8-.577,5.163,5.163,0,0,0-1.377.534,23.246,23.246,0,0,0,1.364-3.13,4.209,4.209,0,0,0,3.495-.367,4.646,4.646,0,0,0,2.3-2.413,4.424,4.424,0,0,0-3.831.282" transform="translate(-288.957 -68.646)" fill="#fcdf64"/>
    </g>
    <path id="Path_2691" data-name="Path 2691" d="M330.918,99.067l.342,4.863,4.731-1.178-4.519,1.828,2.582,4.135-3.135-3.733-3.135,3.733,2.582-4.135-4.519-1.828,4.73,1.178Z" transform="translate(790.914 244.34)" fill="#fff"/>
    <g id="Group_3515" data-name="Group 3515" transform="translate(1132.078 326.009)">
      <path id="Path_2692" data-name="Path 2692" d="M381.768,187.172h0l1.964,6.2a38.214,38.214,0,0,1-21.576,7.341l-1.517-4.785,10.585,33.394L377.685,212l13.477,4.814Z" transform="translate(-359.985 -129.328)" fill="#2d1e66"/>
      <path id="Path_2694" data-name="Path 2694" d="M359.214,61.167V80.2h4.113v29.873h-4.113v9.188a7.286,7.286,0,0,1,2.354-.588q1.353-.1,2.669-.283v-.005h.034l.228-.032a5.284,5.284,0,0,1,.24-3.352,4.926,4.926,0,0,1,2.622-3.008,5.131,5.131,0,0,1-.151,3.451,4.7,4.7,0,0,1-2.385,2.858,32.232,32.232,0,0,0,4.656-1.078,5.21,5.21,0,0,1-.241-2.78,5.131,5.131,0,0,1,1.924-3.562,5.094,5.094,0,0,1,.578,3.4,5.205,5.205,0,0,1-.909,2.482,24.722,24.722,0,0,0,3.412-1.564,5.145,5.145,0,0,1-.749-2.623,5.286,5.286,0,0,1,1.191-3.913,4.988,4.988,0,0,1,1.223,3.195,5.353,5.353,0,0,1-.38,2.569,20.558,20.558,0,0,0,2.675-2.063,4.964,4.964,0,0,1-1.457-2.615,5.368,5.368,0,0,1,.406-4.094,4.823,4.823,0,0,1,1.816,2.852,5.161,5.161,0,0,1-.026,3.147,19.532,19.532,0,0,0,2.484-3.092,4.78,4.78,0,0,1-2.046-2.3,5.374,5.374,0,0,1-.4-4.1,4.634,4.634,0,0,1,2.33,2.385,5.091,5.091,0,0,1,.552,3.308,21.487,21.487,0,0,0,1.774-3.834,4.569,4.569,0,0,1-2.36-1.766,5.287,5.287,0,0,1-1.183-3.918,4.452,4.452,0,0,1,2.741,1.815,5.023,5.023,0,0,1,1.16,2.758,26.961,26.961,0,0,0,.826-3.813,4.416,4.416,0,0,1-2.463-1.18,5.137,5.137,0,0,1-1.916-3.567,4.3,4.3,0,0,1,3.033,1.162,4.967,4.967,0,0,1,1.531,2.034q.134-1.41.151-2.927,0-.289,0-.576c-.131.01-.258.016-.381.016a4.4,4.4,0,0,1-2.2-.625,4.94,4.94,0,0,1-2.566-3.063,5.455,5.455,0,0,1,1.1-.125,4.292,4.292,0,0,1,2.094.586,4.782,4.782,0,0,1,1.892,1.648A25.433,25.433,0,0,0,384.613,89a4.136,4.136,0,0,1-1.287.215A5.141,5.141,0,0,1,381.92,89a4.742,4.742,0,0,1-3.1-2.424,4.435,4.435,0,0,1,1.878-.461,5.067,5.067,0,0,1,1.334.2,4.543,4.543,0,0,1,2.241,1.265,24.438,24.438,0,0,0-1.2-3.379,4.15,4.15,0,0,1-2.284.618c-.12,0-.244,0-.373-.01a4.581,4.581,0,0,1-3.506-1.68,4.215,4.215,0,0,1,2.791-.977c.1,0,.2,0,.3.006a4.4,4.4,0,0,1,2.459.752,24.082,24.082,0,0,0-1.855-3.045,4.416,4.416,0,0,1-2.472,1.179,6.022,6.022,0,0,1-1.044.1,4.455,4.455,0,0,1-2.712-.961,4.4,4.4,0,0,1,2.835-1.637,5.735,5.735,0,0,1,1.045-.1,3.893,3.893,0,0,1,1.473.278,24.193,24.193,0,0,0-2.381-2.54,4.579,4.579,0,0,1-2.181,1.691,4.417,4.417,0,0,1-3.84,0,4.579,4.579,0,0,1,2.456-2.234,4.745,4.745,0,0,1,1.9-.44,3.81,3.81,0,0,1,.589.046,24.631,24.631,0,0,0-2.8-1.984,4.776,4.776,0,0,1-1.819,2.173,4.455,4.455,0,0,1-2.7.953,6,6,0,0,1-1.056-.1,4.771,4.771,0,0,1,1.969-2.731,4.407,4.407,0,0,1,2.467-.945,25.067,25.067,0,0,0-3.2-1.446,4.989,4.989,0,0,1-1.386,2.667,4.572,4.572,0,0,1-3.51,1.669,4.951,4.951,0,0,1,1.4-3.111,4.428,4.428,0,0,1,2.563-1.551q-.93-.3-1.891-.537l.979-.225c.409.1.812.208,1.211.325A4.888,4.888,0,0,1,367,68.655a5.348,5.348,0,0,1-.662-4.054,4.57,4.57,0,0,1,2.478,2.2,5.121,5.121,0,0,1,.668,3.9,25.121,25.121,0,0,1,3.53,1.493,5.136,5.136,0,0,1-1.085-1.989,5.379,5.379,0,0,1,.139-4.114,4.761,4.761,0,0,1,2,2.709,5.14,5.14,0,0,1-.085,3.921,23.447,23.447,0,0,1,3.027,2.075,5.5,5.5,0,0,1-.558-1.974,5.319,5.319,0,0,1,.934-3.993,4.936,4.936,0,0,1,1.428,3.094,5.088,5.088,0,0,1-.794,3.74,22.888,22.888,0,0,1,2.465,2.623,5.758,5.758,0,0,1-.119-1.9,5.19,5.19,0,0,1,1.688-3.7,5.065,5.065,0,0,1,.8,3.346,4.954,4.954,0,0,1-1.468,3.447,23.406,23.406,0,0,1,1.871,3.191,5.7,5.7,0,0,1,.25-1.924,5.01,5.01,0,0,1,2.368-3.24,5.133,5.133,0,0,1,.13,3.451,4.787,4.787,0,0,1-2.141,3.068,25.22,25.22,0,0,1,1.217,3.807,5.351,5.351,0,0,1,.648-2.12,4.81,4.81,0,0,1,2.944-2.642,5.1,5.1,0,0,1-.541,3.4,4.608,4.608,0,0,1-2.8,2.564,28.324,28.324,0,0,1,.462,4.367,5.036,5.036,0,0,1,1.141-2.34,4.623,4.623,0,0,1,3.392-1.928,5,5,0,0,1-1.189,3.209,4.441,4.441,0,0,1-3.332,1.895c0,.125,0,.251,0,.377a35.5,35.5,0,0,1-.248,3.878,4.874,4.874,0,0,1,1.523-1.923,4.43,4.43,0,0,1,3.014-1.167,6.781,6.781,0,0,1,.678.036,4.836,4.836,0,0,1-1.786,2.874,4.3,4.3,0,0,1-2.919,1.156,5.766,5.766,0,0,1-.64-.037,28.351,28.351,0,0,1-.8,3.669A4.937,4.937,0,0,1,386.153,102a4.7,4.7,0,0,1,2.172-.589,5.168,5.168,0,0,1,1.659.307,4.645,4.645,0,0,1-2.3,2.413,4.193,4.193,0,0,1-3.495.367,23.275,23.275,0,0,1-1.364,3.13,5.162,5.162,0,0,1,1.377-.534,5.532,5.532,0,0,1,1.364-.191,4.552,4.552,0,0,1,2.438.768,4.457,4.457,0,0,1-2.722,1.846,5.3,5.3,0,0,1-1.36.2,4.062,4.062,0,0,1-1.993-.538,21.218,21.218,0,0,1-2,2.659,5.218,5.218,0,0,1,1.376-.194l.188,0a4.494,4.494,0,0,1,3.419,1.416,4.318,4.318,0,0,1-3.02,1.2q-.124,0-.242,0a4.2,4.2,0,0,1-2.993-1.1,21.822,21.822,0,0,1-2.728,2.2,3.841,3.841,0,0,1,.537-.037,5.657,5.657,0,0,1,1.121.126,4.685,4.685,0,0,1,3.255,2.185,4.274,4.274,0,0,1-2.138.613,5.542,5.542,0,0,1-1.049-.112,4.441,4.441,0,0,1-3.052-1.936,24.993,24.993,0,0,1-3.152,1.56,5.416,5.416,0,0,1,1.236.407,4.88,4.88,0,0,1,2.759,2.864,4.986,4.986,0,0,1-1.377.219,4.466,4.466,0,0,1-1.838-.439,4.591,4.591,0,0,1-2.53-2.4q-1.346.45-2.758.776c.123.083.247.174.375.272A5.087,5.087,0,0,1,369.4,122.9c-.087,0-.173.005-.256.005a4.227,4.227,0,0,1-2.829-1,4.82,4.82,0,0,1-1.763-2.279q-1.46.227-2.962.334a6.155,6.155,0,0,0-1.344.248c1.936,1.279,3.645,3.066,5.485,4.236l-1.464.655c-1.92-1.221-3.3-2.963-5.049-4.075v6.754c.219-.005.436-.012.654-.022a33.319,33.319,0,0,0-.654-66.6" transform="translate(-359.214 -61.167)" fill="#fbaa23"/>
    </g>
    <rect id="Rectangle_1606" data-name="Rectangle 1606" width="4.113" height="29.873" transform="translate(1132.078 345.041)" fill="#e4b974"/>
    <g id="Group_3516" data-name="Group 3516" transform="translate(1132.078 329.442)">
      <path id="Path_2695" data-name="Path 2695" d="M366.338,68.646A5.352,5.352,0,0,0,367,72.7a4.892,4.892,0,0,0,1.495,1.738c-.4-.117-.8-.226-1.211-.325l-.979.225q.961.232,1.891.537a4.424,4.424,0,0,0-2.563,1.55,4.953,4.953,0,0,0-1.4,3.111,4.572,4.572,0,0,0,3.51-1.669,4.991,4.991,0,0,0,1.386-2.667,25.1,25.1,0,0,1,3.2,1.446,4.408,4.408,0,0,0-2.468.945,4.773,4.773,0,0,0-1.968,2.731,6,6,0,0,0,1.056.1,4.456,4.456,0,0,0,2.7-.953,4.78,4.78,0,0,0,1.82-2.173,24.671,24.671,0,0,1,2.795,1.984,3.806,3.806,0,0,0-.589-.046,4.753,4.753,0,0,0-1.9.44,4.575,4.575,0,0,0-2.456,2.234,4.417,4.417,0,0,0,3.84,0,4.576,4.576,0,0,0,2.181-1.691,24.153,24.153,0,0,1,2.381,2.54,3.883,3.883,0,0,0-1.473-.279,5.813,5.813,0,0,0-1.045.1,4.406,4.406,0,0,0-2.835,1.638,4.454,4.454,0,0,0,2.712.961,6.023,6.023,0,0,0,1.044-.1,4.416,4.416,0,0,0,2.472-1.179,24.082,24.082,0,0,1,1.855,3.045A4.4,4.4,0,0,0,380,86.2q-.155-.006-.3-.006a4.214,4.214,0,0,0-2.791.976,4.581,4.581,0,0,0,3.506,1.68c.129.006.253.01.373.01a4.15,4.15,0,0,0,2.284-.618,24.422,24.422,0,0,1,1.2,3.38,4.541,4.541,0,0,0-2.241-1.265,5.06,5.06,0,0,0-1.334-.2,4.431,4.431,0,0,0-1.878.461,4.741,4.741,0,0,0,3.1,2.424,5.133,5.133,0,0,0,1.405.221,4.134,4.134,0,0,0,1.287-.215,25.434,25.434,0,0,1,.484,3.474,4.778,4.778,0,0,0-1.892-1.648,4.292,4.292,0,0,0-2.094-.586,5.46,5.46,0,0,0-1.1.125,4.943,4.943,0,0,0,2.566,3.063,4.4,4.4,0,0,0,2.2.625c.124,0,.25-.006.381-.016q0,.287,0,.576-.017,1.518-.151,2.927a4.967,4.967,0,0,0-1.531-2.034,4.3,4.3,0,0,0-3.033-1.162,5.137,5.137,0,0,0,1.916,3.567,4.416,4.416,0,0,0,2.463,1.18,26.961,26.961,0,0,1-.826,3.813,5.023,5.023,0,0,0-1.16-2.758,4.452,4.452,0,0,0-2.741-1.815,5.287,5.287,0,0,0,1.183,3.918,4.571,4.571,0,0,0,2.36,1.766,21.507,21.507,0,0,1-1.774,3.835,5.092,5.092,0,0,0-.552-3.309,4.634,4.634,0,0,0-2.33-2.385,5.374,5.374,0,0,0,.4,4.1,4.777,4.777,0,0,0,2.046,2.3,19.494,19.494,0,0,1-2.484,3.093,5.153,5.153,0,0,0,.026-3.147,4.823,4.823,0,0,0-1.816-2.852,5.368,5.368,0,0,0-.406,4.094,4.964,4.964,0,0,0,1.457,2.615,20.558,20.558,0,0,1-2.675,2.063,5.353,5.353,0,0,0,.38-2.569,4.988,4.988,0,0,0-1.223-3.195,5.286,5.286,0,0,0-1.191,3.913,5.145,5.145,0,0,0,.749,2.623,24.721,24.721,0,0,1-3.412,1.564,5.21,5.21,0,0,0,.909-2.482,5.094,5.094,0,0,0-.578-3.4,5.129,5.129,0,0,0-1.924,3.563,5.208,5.208,0,0,0,.241,2.779,32.244,32.244,0,0,1-4.656,1.078,4.708,4.708,0,0,0,2.385-2.858,5.134,5.134,0,0,0,.15-3.451,4.926,4.926,0,0,0-2.622,3.008,5.282,5.282,0,0,0-.24,3.351l-.228.033h-.034v.005q-1.315.186-2.669.283a7.286,7.286,0,0,0-2.354.588v1.771c1.745,1.112,3.128,2.854,5.049,4.075l1.464-.655c-1.84-1.17-3.549-2.957-5.485-4.236a6.158,6.158,0,0,1,1.344-.248q1.5-.108,2.962-.334a4.82,4.82,0,0,0,1.763,2.279,4.227,4.227,0,0,0,2.829,1c.084,0,.169,0,.256-.005a5.087,5.087,0,0,0-2.087-3.455c-.128-.1-.252-.189-.375-.272q1.41-.326,2.758-.776a4.591,4.591,0,0,0,2.53,2.4,4.466,4.466,0,0,0,1.838.439,4.986,4.986,0,0,0,1.377-.219,4.879,4.879,0,0,0-2.759-2.864,5.417,5.417,0,0,0-1.236-.407,24.991,24.991,0,0,0,3.152-1.56,4.441,4.441,0,0,0,3.052,1.936,5.54,5.54,0,0,0,1.049.112,4.274,4.274,0,0,0,2.138-.613,4.684,4.684,0,0,0-3.255-2.185,5.657,5.657,0,0,0-1.121-.126,3.841,3.841,0,0,0-.537.037,21.822,21.822,0,0,0,2.728-2.2,4.2,4.2,0,0,0,2.993,1.1q.118,0,.242,0a4.319,4.319,0,0,0,3.02-1.2,4.493,4.493,0,0,0-3.419-1.416l-.188,0a5.218,5.218,0,0,0-1.376.194,21.218,21.218,0,0,0,2-2.659,4.061,4.061,0,0,0,1.993.538,5.331,5.331,0,0,0,1.361-.2A4.457,4.457,0,0,0,388,111.714a4.552,4.552,0,0,0-2.438-.768,5.529,5.529,0,0,0-1.364.191,5.163,5.163,0,0,0-1.377.534,23.249,23.249,0,0,0,1.364-3.13,4.193,4.193,0,0,0,3.495-.367,4.646,4.646,0,0,0,2.3-2.413,5.157,5.157,0,0,0-1.659-.307,4.7,4.7,0,0,0-2.172.589,4.937,4.937,0,0,0-1.523,1.113,28.351,28.351,0,0,0,.8-3.669,5.764,5.764,0,0,0,.64.037,4.3,4.3,0,0,0,2.919-1.156,4.837,4.837,0,0,0,1.786-2.873,6.652,6.652,0,0,0-.678-.037,4.432,4.432,0,0,0-3.014,1.167,4.874,4.874,0,0,0-1.523,1.923,35.5,35.5,0,0,0,.248-3.878c0-.126,0-.252,0-.377a4.441,4.441,0,0,0,3.332-1.895,5,5,0,0,0,1.189-3.209,4.622,4.622,0,0,0-3.392,1.929,5.036,5.036,0,0,0-1.141,2.34,28.259,28.259,0,0,0-.462-4.367,4.607,4.607,0,0,0,2.8-2.564,5.1,5.1,0,0,0,.541-3.4,4.808,4.808,0,0,0-2.944,2.641,5.349,5.349,0,0,0-.648,2.12,25.22,25.22,0,0,0-1.217-3.807A4.792,4.792,0,0,0,386,85.01a5.133,5.133,0,0,0-.13-3.451A5.01,5.01,0,0,0,383.5,84.8a5.7,5.7,0,0,0-.25,1.924,23.44,23.44,0,0,0-1.871-3.191,4.952,4.952,0,0,0,1.468-3.447,5.065,5.065,0,0,0-.8-3.346,5.192,5.192,0,0,0-1.688,3.7,5.758,5.758,0,0,0,.119,1.9,22.852,22.852,0,0,0-2.465-2.623,5.086,5.086,0,0,0,.794-3.74,4.936,4.936,0,0,0-1.428-3.094,5.319,5.319,0,0,0-.934,3.993,5.5,5.5,0,0,0,.558,1.974,23.567,23.567,0,0,0-3.027-2.076,5.143,5.143,0,0,0,.085-3.921,4.761,4.761,0,0,0-2-2.709,5.379,5.379,0,0,0-.139,4.114,5.136,5.136,0,0,0,1.085,1.989,25.12,25.12,0,0,0-3.53-1.493,5.121,5.121,0,0,0-.668-3.9,4.566,4.566,0,0,0-2.479-2.2" transform="translate(-359.214 -68.646)" fill="#f7bb3d"/>
    </g>
  </g>
</svg>
