<svg id="awards-icon-01" xmlns="http://www.w3.org/2000/svg" width="75" height="100.076" viewBox="0 0 75 100.076">
  <g id="Group_36247" data-name="Group 36247">
    <path id="Path_2712" data-name="Path 2712" d="M152.9,94.812a17.619,17.619,0,0,1-5.9,6.138,94.8,94.8,0,0,0,5.738-23.588h5.1a37.15,37.15,0,0,1-4.941,17.45m-56.243,0a37.15,37.15,0,0,1-4.942-17.45h4.98a94.951,94.951,0,0,0,5.7,23.495,17.788,17.788,0,0,1-5.738-6.045m56.518-21.806q.215-2.624.32-5.323a4.3,4.3,0,0,1-4.3-4.456H100.232a4.3,4.3,0,0,1-4.3,4.456q.1,2.7.32,5.323h-8.98l.006,2.184c.024,8.244,2.028,16.021,5.643,21.9,3.22,5.234,7.411,8.487,12,9.382,4.625,9.022,10.687,14.916,17.4,16.056-.762,16.141-6.167,29.211-13.194,32.5v2.563H139.97v-2.563c-7.019-3.285-12.419-16.329-13.192-32.446,6.836-1,13.013-6.932,17.711-16.085,4.643-.857,8.885-4.12,12.137-9.406,3.615-5.876,5.619-13.653,5.643-21.9l.006-2.184Z" transform="translate(-87.275 -63.227)" fill="#ffc828"/>
    <path id="Path_2713" data-name="Path 2713" d="M141.856,173.351c-.819,17.4-6.62,31.484-14.162,35.029v2.762h33.1V208.38c-7.534-3.54-13.331-17.6-14.16-34.971Z" transform="translate(-106.96 -116.782)" fill="#fcdf64"/>
    <path id="Path_2714" data-name="Path 2714" d="M121.852,116.1a2.195,2.195,0,0,1-2.041-1.388A125.128,125.128,0,0,1,112.4,84.074a2.193,2.193,0,1,1,4.356-.519,120.734,120.734,0,0,0,7.133,29.544,2.2,2.2,0,0,1-2.039,3" transform="translate(-98.978 -70.946)" fill="#fcdf64"/>
    <path id="Path_2715" data-name="Path 2715" d="M156.471,244.241H120.594v-3.308a2.19,2.19,0,0,1,2.019-2.328h31.838a2.19,2.19,0,0,1,2.019,2.328Z" transform="translate(-101.256 -144.164)" fill="#f6a31a"/>
    <path id="Path_2716" data-name="Path 2716" d="M161.333,77.07l-11.925,44.779,6.713,11.1c7.19-1.237,13.683-7.578,18.64-17.278a16.965,16.965,0,0,0,8.331-4.34l-2.568-4.044a15.294,15.294,0,0,1-3.071,2.41q.883-2.226,1.669-4.617Z" transform="translate(-118.851 -69.036)" fill="#f6a31a"/>
    <path id="Path_2717" data-name="Path 2717" d="M141.474,87.906h-.138L132.5,91.839l-2-9.248,12.836-5.659h10.145v44.858H141.474Z" transform="translate(-107.814 -68.978)" fill="#e8e6d4"/>
    <path id="Path_2718" data-name="Path 2718" d="M127.854,74.954l.432,6.148,5.98-1.489-5.714,2.311,3.264,5.228-3.963-4.72-3.963,4.72,3.264-5.228-5.714-2.311,5.981,1.489Z" transform="translate(-103.225 -68.148)" fill="#fff"/>
    <path id="Path_2719" data-name="Path 2719" d="M182.589,63.227H156.027v7.38h8.167V70.8l17.7,25.864q-.736,2.077-1.558,4.024a89.821,89.821,0,0,0,6.049-23.328h5.477a35.28,35.28,0,0,1-5.3,17.45,21.366,21.366,0,0,1-3.26,3.9l2.567,3.75a17.6,17.6,0,0,1-7.843,3.935c4.793-.981,9.163-4.2,12.54-9.314,3.88-5.876,6.031-13.652,6.057-21.9l.006-2.184h-9.771q.231-2.624.343-5.323a4.446,4.446,0,0,1-4.612-4.456m-2.25,37.466-.026.062.026-.062m-.028.067-.023.053.023-.053m-.028.066-.023.053.023-.053m.1.041-.006,0,.006,0m-.024.013-.01.005.01-.005m-.024.013-.014.008.014-.008m-.08,0c-.009.018-.016.037-.024.055.008-.019.015-.037.024-.055m.055.012-.017.009.017-.009m-.026.014-.02.011.02-.011m-.026.014-.026.015.026-.015m-2.232,5.466-.032.006.032-.006m-.036.007-.03.006.03-.006m-.034.007-.033.006.033-.006m-.033.006-.067.013.067-.013m-.074.015-.025,0,.025,0m-.036.006-.023,0,.023,0m-.032.006-.026,0,.026,0m-.033.006-.033.006.033-.006m-.033.006-.032.006.032-.006m-.042.008-.023,0,.023,0m-.034.006-.02,0,.02,0m-.033.006-.022,0,.022,0m-.033.005-.032.005-.02.037.02-.037.032-.005m-.062.059v0m-.03.053h0Zm-.028.053,0,0,0,0m-.015.027v0m-.194.345h0Zm-2.472,3.94h0m-.032.046,0,.005,0-.005m-.033.047,0,0,0,0m-.016.023,0,0,0,0m-.015.021-.007.01.007-.01m-.018.025v0m-.015.022,0,.005,0-.005m-.018.025h0m-.015.022,0,0,0,0m-.017.024,0,0,0,0m-.016.022,0,.007,0-.007m-.016.022-.01.013.01-.013m-.015.021-.012.016.012-.016m-.017.024-.011.016.011-.016m-.015.022-.011.016.011-.016m-.017.024-.011.016.011-.016m-.015.022-.012.016.012-.016m-.017.024-.012.017.012-.017m-.015.021-.013.018.013-.018m-.017.023-.015.02.015-.02m-.015.021-.015.02.015-.02m-.017.024-.014.019.014-.019m-.016.022-.013.019.013-.019m-.017.023-.013.019.013-.019m-.016.022-.013.019.013-.019m-.017.024-.013.018.013-.018m-.015.021-.015.02.015-.02m-.016.022c-4.413,6.082-9.688,9.988-15.4,10.9l-2.872-4.406v4.432l2.5.028c.829,16.117,6.625,29.161,14.16,32.446v2.563h0v-2.563c-7.534-3.285-13.33-16.329-14.16-32.446,5.858-.8,11.265-4.74,15.774-10.954" transform="translate(-121.63 -63.227)" fill="#fbaa23"/>
    <path id="Path_2720" data-name="Path 2720" d="M156.027,173.4v37.763h16.659V208.4c-7.534-3.54-13.331-17.6-14.16-34.971Z" transform="translate(-121.63 -116.802)" fill="#f7bb3d"/>
    <path id="Path_2721" data-name="Path 2721" d="M174.514,238.6H156.027v5.637h20.816v-3.308a2.329,2.329,0,0,0-2.329-2.328" transform="translate(-121.63 -144.164)" fill="#f08b1d"/>
    <path id="Path_2722" data-name="Path 2722" d="M164.194,77.295v44.648h-8.167v6.35l2.872,4.749c5.715-.983,10.99-5.192,15.4-11.748h0l.015-.022,0,0,.013-.019,0-.006.013-.02,0,0,.013-.021,0,0,.013-.021,0,0c0-.007.009-.013.014-.021l0,0,.015-.021h0l.015-.021,0-.006.013-.019,0,0,.012-.018.005-.009.012-.017,0-.006.011-.017.006-.009.011-.017,0-.006.011-.017.006-.008c0-.006.008-.012.012-.017l0-.008.01-.015.011-.016,0-.008.014-.021,0,0,.013-.02,0-.005.015-.023h0l.014-.021,0-.006.014-.021v0l.011-.016.007-.01.012-.018,0-.005.014-.021,0,0c.01-.015.019-.03.029-.045l0-.006.031-.048h0q1.289-1.991,2.471-4.247h0c.064-.122.129-.247.193-.37v0l.013-.026,0,0,.028-.056h0l.029-.055v0l.009-.019.02-.039.032-.006.01,0,.022,0,.012,0,.02,0,.012,0,.023,0,.01,0,.032-.006h0l.033-.006.007,0,.026-.005.009,0,.023-.005.011,0,.025,0h.007l.067-.015h0l.033-.007h0l.03-.006h0l.032-.006h0a17.148,17.148,0,0,0,7.844-4.241l-2.567-4.042v0a15.44,15.44,0,0,1-2.919,2.32l-.006,0-.018.011-.01.006-.014.009-.014.009-.011.007-.017.01-.009.005-.02.012-.006,0-.026.016c.008-.02.015-.039.024-.059l.006-.018.023-.057.005-.014.023-.057,0-.005.026-.067v0q.822-2.1,1.559-4.338Z" transform="translate(-121.63 -69.13)" fill="#f08b1d"/>
    <path id="Path_2723" data-name="Path 2723" d="M164.194,76.933h-8.167v44.858h8.167V76.933Z" transform="translate(-119.161 -68.978)" fill="#e4b974"/>
  </g>
</svg>
