<svg id="awards-icon-04" xmlns="http://www.w3.org/2000/svg" width="91.511" height="100.776" viewBox="0 0 91.511 100.776">
  <g id="Group_36246" data-name="Group 36246" transform="translate(-1425 -326)">
    <path id="Path_3152" data-name="Path 3152" d="M0,0H51.786V19.882H0Z" transform="translate(1444.869 326)" fill="#004da2"/>
    <path id="Path_2696" data-name="Path 2696" d="M568.775,253.159h-2.744V273.04h11.51Z" transform="translate(878.838 72.841)" fill="#0053bf"/>
    <path id="Path_2697" data-name="Path 2697" d="M656.227,273.04h11.525V253.159h-2.759Z" transform="translate(828.904 72.841)" fill="#0095b0"/>
    <path id="Path_2698" data-name="Path 2698" d="M618.368,402.764a21.882,21.882,0,1,0-21.882,21.882,21.882,21.882,0,0,0,21.882-21.882" transform="translate(874.092 2.131)" fill="#ffc828"/>
    <path id="Path_2699" data-name="Path 2699" d="M600.888,389.834a17.1,17.1,0,1,0,16.855,16.856,17.114,17.114,0,0,0-16.855-16.856m.02,35.615a18.524,18.524,0,1,1,18.264-18.263,18.543,18.543,0,0,1-18.264,18.263" transform="translate(869.928 -2.034)" fill="#fcdf64"/>
    <path id="Path_2700" data-name="Path 2700" d="M612.83,411.5h-.065l-4.193,1.867-.95-4.39,6.092-2.686h4.816v21.293h-5.7Z" transform="translate(855.813 -11.936)" fill="#e8e6d4"/>
    <path id="Path_2701" data-name="Path 2701" d="M566.529,310.179l-25.141-57.02-19.869,8.761,26.33,59.718a21.878,21.878,0,0,1,18.68-11.458" transform="translate(903.48 72.841)" fill="#004da2"/>
    <path id="Path_2702" data-name="Path 2702" d="M644.2,322l26.491-60.084-19.87-8.761-25.147,57.034A21.883,21.883,0,0,1,644.2,322" transform="translate(845.816 72.841)" fill="#149fb1"/>
    <path id="Path_2703" data-name="Path 2703" d="M577.45,385.91,578.814,389a21.877,21.877,0,0,1,18.68-11.458l-1.193-2.705A24.626,24.626,0,0,0,577.45,385.91" transform="translate(872.516 5.476)" fill="#0053bf"/>
    <path id="Path_2704" data-name="Path 2704" d="M645.584,386.269a24.634,24.634,0,0,0-18.719-11.37l-1.187,2.692A21.883,21.883,0,0,1,644.2,389.4Z" transform="translate(845.816 5.443)" fill="#0095b0"/>
    <path id="Path_2705" data-name="Path 2705" d="M606.577,404.635l.239,3.4,3.313-.824-3.165,1.28,1.808,2.895-2.2-2.614-2.2,2.614,1.808-2.895-3.164-1.28,3.312.824Z" transform="translate(858.357 -11.019)" fill="#fff"/>
    <path id="Path_2706" data-name="Path 2706" d="M647.247,253.159H624.173V273.04h14.308Z" transform="translate(846.65 72.841)" fill="#2d1e66"/>
    <path id="Path_2707" data-name="Path 2707" d="M667.752,253.159h-.015l.015.006Zm-.015,0h-2.745l-8.765,19.882h2.744Z" transform="translate(828.904 72.841)" fill="#0e0851"/>
    <path id="Path_2708" data-name="Path 2708" d="M624.173,380.886v3.358a18.524,18.524,0,0,1,.014,37.044h-.014v3.358a21.889,21.889,0,0,0,19.2-31.932h0a21.883,21.883,0,0,0-18.525-11.811c-.223-.011-.447-.017-.672-.019m0,4.786v6.554h3.52v21.293h-3.52v6.34a17.1,17.1,0,0,0,0-34.187" transform="translate(846.65 2.128)" fill="#fbaa23"/>
    <path id="Path_2709" data-name="Path 2709" d="M624.173,388.408v1.428a17.1,17.1,0,0,1,0,34.188v1.429h.014a18.524,18.524,0,0,0-.014-37.045" transform="translate(846.65 -2.036)" fill="#f7bb3d"/>
    <rect id="Rectangle_1608" data-name="Rectangle 1608" width="3.521" height="21.293" transform="translate(1470.822 394.355)" fill="#e4b974"/>
    <path id="Path_2710" data-name="Path 2710" d="M650.825,253.159h0l-8.766,19.882-16.38,37.152,1.187-2.692a24.634,24.634,0,0,1,18.719,11.37l25.111-56.951-19.855-8.754Z" transform="translate(845.816 72.841)" fill="#2d1e66"/>
    <path id="Path_2711" data-name="Path 2711" d="M626.865,374.9l-1.187,2.692A21.883,21.883,0,0,1,644.2,389.4h0l1.381-3.131a24.634,24.634,0,0,0-18.719-11.37" transform="translate(845.816 5.443)" fill="#0e0851"/>
  </g>
</svg>
