<?xml version="1.0" encoding="utf-8"?>
<!-- Generator: Adobe Illustrator 25.4.1, SVG Export Plug-In . SVG Version: 6.00 Build 0)  -->
<svg version="1.1" id="Layer_1" xmlns="http://www.w3.org/2000/svg" xmlns:xlink="http://www.w3.org/1999/xlink" x="0px" y="0px"
	 viewBox="0 0 150 150" style="enable-background:new 0 0 150 150;" xml:space="preserve">
<style type="text/css">
	.st0{fill:#889391;}
	.st1{fill:#F63341;}
	.st2{fill:#1F3C88;}
	.st3{fill:#B1EAE5;}
	.st4{fill:#D8F4F2;}
	.st5{fill:#FFFFFF;}
	.st6{fill:#F85C67;}
	.st7{fill:#C3C9C8;}
	.st8{fill:#B0B7B6;}
</style>
<g id="Group_36245" transform="translate(-375 -622)">
	<circle id="Ellipse_339" class="st0" cx="476.7" cy="697.1" r="2.9"/>
	<path id="Path_3141" class="st1" d="M455.9,691.3v-11.9h-5.8l-2.9,17.7l2.9,17.7h5.8v-11.9h11.9v-11.6H455.9z"/>
	<g id="Group_36212">
		<path id="Path_3138" class="st2" d="M522.2,676.6L522.2,676.6c-11.3-39.9-52.7-63-92.6-51.7s-63,52.7-51.7,92.6
			c7.1,25.1,26.7,44.6,51.7,51.7l0,0c39.9,11.2,81.4-12,92.6-51.9C525.9,704,525.9,689.9,522.2,676.6z"/>
		<path id="Path_3139" class="st3" d="M450.1,656l-7.2,41.1l7.2,41.1h41.1V656H450.1z"/>
		<rect id="Rectangle_1646" x="409" y="656" class="st4" width="41.1" height="82.2"/>
		<path id="Path_3140" class="st4" d="M485.4,661.8h-35.3l-11.6,35.3l11.6,35.3h35.3V661.8z"/>
		<rect id="Rectangle_1647" x="414.8" y="661.8" class="st5" width="35.3" height="70.6"/>
		<path id="Path_3142" class="st6" d="M444.3,679.4v11.9h-11.9v11.6h11.9v11.9h5.8v-35.3H444.3z"/>
		<path id="Path_3143" class="st7" d="M417.7,676.3l-2.9,2.9l-2.9-2.9v-8.7h5.8V676.3z"/>
		<rect id="Rectangle_1648" x="411.9" y="676.3" class="st8" width="5.8" height="8.7"/>
	</g>
	<path id="Path_3144" class="st7" d="M417.7,717.9l-2.9,2.9l-2.9-2.9v-8.7h5.8V717.9z"/>
	<rect id="Rectangle_1649" x="411.9" y="717.9" class="st8" width="5.8" height="8.7"/>
</g>
</svg>
