<?xml version="1.0" encoding="utf-8"?>
<!-- Generator: Adobe Illustrator 25.4.1, SVG Export Plug-In . SVG Version: 6.00 Build 0)  -->
<svg version="1.1" id="Layer_1" xmlns="http://www.w3.org/2000/svg" xmlns:xlink="http://www.w3.org/1999/xlink" x="0px" y="0px"
	 viewBox="0 0 150 150" style="enable-background:new 0 0 150 150;" xml:space="preserve">
<style type="text/css">
	.st0{fill:#1F3C88;}
	.st1{fill:#FF9999;}
	.st2{fill:#FFBEAA;}
	.st3{fill:#FFDECF;}
	.st4{fill:#604080;}
</style>
<g id="Group_36208" transform="translate(-1395 -299)">
	<path id="Path_5244" class="st0" d="M1470,299c41.4,0,75,33.6,75,75s-33.6,75-75,75s-75-33.6-75-75S1428.6,299,1470,299z"/>
	<path id="Path_3145" class="st1" d="M1509.5,363.5l-2.2-5.3l2.7-1.1c3.2-1.3,4.7-5,3.4-8.3l5.3-2.2c2.5,6.2-0.4,13.2-6.5,15.8
		L1509.5,363.5z"/>
	<path id="Path_3146" class="st1" d="M1494.9,398.8l-2.1,14.7h-12.3l-2-12.3L1494.9,398.8z"/>
	<path id="Path_3147" class="st2" d="M1442.7,398.5l2.1,15.1h12.3l2-12.3L1442.7,398.5z"/>
	<path id="Path_3148" class="st2" d="M1485.9,340h-17.2l-1.9,29.5l1.9,31.7h14c17,0,30.7-13.7,30.8-30.6
		C1513.6,354.8,1501.7,341.6,1485.9,340L1485.9,340z"/>
	<path id="Path_3149" class="st3" d="M1451.6,340l-14.7,6.4c-3.5,2.9-6.2,6.7-7.8,10.9l-8.1,1v24.6l8.1,1
		c4.2,10.5,14.4,17.4,25.7,17.4h14V340H1451.6z"/>
	<path id="Path_3150" class="st4" d="M1438.3,366.7h6.1v5.8h-6.1V366.7z"/>
	<path id="Path_3151" class="st2" d="M1458,348.3l-3.3,11.8h-1.8c-9.6,0-17.3-10.8-17.3-20.4c4.4-3,9.5-5,14.8-5.7L1458,348.3z"/>
</g>
</svg>
