<?xml version="1.0" encoding="utf-8"?>
<!-- Generator: Adobe Illustrator 25.4.1, SVG Export Plug-In . SVG Version: 6.00 Build 0)  -->
<svg version="1.1" id="Layer_1" xmlns="http://www.w3.org/2000/svg" xmlns:xlink="http://www.w3.org/1999/xlink" x="0px" y="0px"
	 viewBox="0 0 150 150" style="enable-background:new 0 0 150 150;" xml:space="preserve">
<style type="text/css">
	.st0{fill:#B0B1B5;}
	.st1{fill:#E6E7E8;}
	.st2{fill:#1F3C88;}
	.st3{fill:#DAD7DC;}
	.st4{fill:#4388B9;}
	.st5{fill:#ECECEC;}
	.st6{fill:#4ABAA4;}
	.st7{fill:#D6B24E;}
	.st8{fill:#FFD25A;}
</style>
<g id="Group_36244" transform="translate(-1056 -622)">
	<circle id="Ellipse_288" class="st0" cx="1131.4" cy="739.7" r="3.9"/>
	<path id="Path_3018" class="st1" d="M1122.6,715.8h17.7v1.8h-17.7V715.8z"/>
	<g id="Group_36210">
		<circle id="Ellipse_287" class="st2" cx="1131" cy="697" r="75"/>
		<path id="Path_3010" class="st1" d="M1154.8,646H1108c-3.9,0-7,3.1-7,7v87.6c0,3.9,3.1,7,7,7h46.8c3.9,0,7-3.1,7-7V653
			C1161.8,649.1,1158.7,646,1154.8,646C1154.8,646,1154.8,646,1154.8,646z"/>
		<path id="Path_3011" class="st3" d="M1105.7,661.1h51.4v70.6h-51.4V661.1z"/>
		<path id="Path_3012" class="st0" d="M1145,654.5h-27.3c-0.5,0-0.9-0.4-0.9-0.9v-0.2c0-0.5,0.4-0.9,0.9-0.9h27.3
			c0.5,0,0.9,0.4,0.9,0.9v0.2C1145.9,654.1,1145.5,654.5,1145,654.5z"/>
		<path id="Path_3013" class="st4" d="M1145.4,667.8h-28.1c-2.9,0-5.3,2.4-5.3,5.3c0,2.9,2.4,5.3,5.3,5.3h33.4v-5.3
			C1150.8,670.1,1148.4,667.8,1145.4,667.8z"/>
		<path id="Path_3014" class="st5" d="M1117.5,670.2h27.7v1.8h-27.7V670.2z"/>
		<path id="Path_3015" class="st5" d="M1122.6,674.1h17.7v1.8h-17.7V674.1z"/>
		<path id="Path_3016" class="st6" d="M1145.4,709.4h-28.1c-2.9,0-5.3,2.4-5.3,5.3s2.4,5.3,5.3,5.3l0,0h33.4v-5.3
			C1150.8,711.8,1148.4,709.4,1145.4,709.4z"/>
		<path id="Path_3017" class="st1" d="M1117.5,711.9h27.7v1.8h-27.7V711.9z"/>
		<path id="Path_3019" class="st7" d="M1117.3,689.1h18.4c2.9,0,5.3,2.4,5.3,5.3c0,2.9-2.4,5.3-5.3,5.3H1112v-5.3
			C1112,691.5,1114.4,689.1,1117.3,689.1C1117.3,689.1,1117.3,689.1,1117.3,689.1z"/>
		<path id="Path_3020" class="st8" d="M1135.6,693.4h-18v-1.8h18V693.4z"/>
		<path id="Path_3021" class="st8" d="M1130.6,697.3h-8v-1.8h8V697.3z"/>
	</g>
</g>
</svg>
