<?xml version="1.0" encoding="utf-8"?>
<!-- Generator: Adobe Illustrator 25.4.1, SVG Export Plug-In . SVG Version: 6.00 Build 0)  -->
<svg version="1.1" id="Layer_1" xmlns="http://www.w3.org/2000/svg" xmlns:xlink="http://www.w3.org/1999/xlink" x="0px" y="0px"
	 viewBox="0 0 150 150" style="enable-background:new 0 0 150 150;" xml:space="preserve">
<style type="text/css">
	.st0{fill:#1F3C88;}
	.st1{fill:#EEEFEE;}
	.st2{fill:#2CBFAE;}
	.st3{fill:#DBD8DD;}
	.st4{fill:#EF5261;}
	.st5{fill:#828A9E;}
	.st6{fill:#69B0EE;}
	.st7{fill:#F6C863;}
</style>
<g id="Group_36213" transform="translate(-374 -299)">
	<g id="Group_36205">
		<path id="Path_5243" class="st0" d="M449,299c41.4,0,75,33.6,75,75s-33.6,75-75,75s-75-33.6-75-75S407.6,299,449,299z"/>
		<path id="Path_3053" class="st1" d="M467.5,327H409v94.3h80v-72.8L467.5,327z"/>
		<path id="Path_3054" class="st2" d="M435.7,354.9c0,3.5-2.5,6.6-5.9,7.3v1.9h-3.1v-1.9c-3.5-0.7-5.9-3.8-5.9-7.3h3.2
			c0,2.4,2,4.4,4.4,4.4s4.4-2,4.4-4.4c0-2.4-2-4.4-4.4-4.4l0,0c-4.1,0.1-7.5-3.3-7.6-7.4c0-3.6,2.5-6.7,6-7.4v-2.1h3.1v2.1
			c3.5,0.7,5.9,3.8,5.9,7.3h-3.2c0-2.4-1.9-4.4-4.4-4.4c-2.4,0-4.4,1.9-4.4,4.4c0,2.4,1.9,4.4,4.4,4.4l0,0l0,0
			C432.4,347.4,435.7,350.8,435.7,354.9z"/>
		<path id="Path_3055" class="st3" d="M465.3,350.7H489L465.3,327V350.7z"/>
		<path id="Path_3056" class="st4" d="M465.4,353.4h8.5v38.1h-8.5V353.4z"/>
		<path id="Path_3057" class="st5" d="M451.6,365.4h8.5v25.3h-8.5V365.4z"/>
		<path id="Path_3058" class="st6" d="M424,368.7h8.5v21.9H424V368.7z"/>
		<path id="Path_3059" class="st7" d="M437.8,358.8h8.5v32.3h-8.5V358.8z"/>
	</g>
	<path id="Path_3060" class="st3" d="M416.8,393.5h64.4v3.4h-64.4V393.5z"/>
	<path id="Path_3061" class="st3" d="M416.8,403.1h64.4v3.4h-64.4V403.1z"/>
	<path id="Path_3062" class="st3" d="M416.8,412.6H459v3.4h-42.1V412.6z"/>
</g>
</svg>
