<?xml version="1.0" encoding="utf-8"?>
<!-- Generator: Adobe Illustrator 25.4.1, SVG Export Plug-In . SVG Version: 6.00 Build 0)  -->
<svg version="1.1" id="Layer_1" xmlns="http://www.w3.org/2000/svg" xmlns:xlink="http://www.w3.org/1999/xlink" x="0px" y="0px"
	 viewBox="0 0 150 150" style="enable-background:new 0 0 150 150;" xml:space="preserve">
<style type="text/css">
	.st0{fill:#1F3C88;}
	.st1{fill:#E9EDF5;}
	.st2{fill:#FFBEAA;}
	.st3{fill:#DCE1EB;}
	.st4{fill:#CDD2E1;}
	.st5{fill:#FFFFFF;}
	.st6{fill:#FFCDBE;}
	.st7{fill:#F2F6FC;}
</style>
<g id="Group_36243" transform="translate(-715 -622)">
	<g id="Group_3602" transform="translate(715 622)">
		<g id="Group_3601">
			<g id="Group_3600">
				<circle id="Ellipse_335" class="st0" cx="75" cy="75" r="75"/>
			</g>
		</g>
	</g>
	<path id="Path_3078" class="st1" d="M770.5,751.4c5.4,3.7,11.8,5.6,18.4,5.6h1.8c0.3,0,0.6,0,0.9,0v-17.5L770.5,751.4z"/>
	<path id="Path_3073" class="st1" d="M790.6,637h-0.9v120h0.9c17.3-4.5,26.6-16.3,29.3-30.4l-0.2-6.4l3.7-0.9v-15.4l-4.1-8.3
		l4.1-14.6v-11C823.5,651.7,808.8,637,790.6,637L790.6,637z"/>
	<path id="Path_3075" class="st2" d="M789.8,644.8v46.6c10.2,0,18.4-8.3,18.4-18.4v-9.7C808.2,653.1,800,644.9,789.8,644.8z"/>
	<path id="Path_3077" class="st3" d="M789.8,700.1v23.1l23.9,13.8c2.7-4.8,9.8-7,9.8-12.9v-4.9L789.8,700.1z"/>
	<path id="Path_3079" class="st4" d="M789.8,740.4V757h0.9c18.1,0,32.9-14.7,32.9-32.9v-2.9L789.8,740.4z"/>
	<path id="Path_3072" class="st5" d="M790.6,637h-1.8c-18.1,0-32.9,14.7-32.9,32.9l0,0v11l3.7,15.1l-3.7,7.8v15.4l4,3.6
		c0,2.9,1.3,6.8,2,9.5c0.7,2.7-3.2,5.4-1.9,7.8c2.5,4.5,6.1,8.4,10.3,11.2c2.6,1.8,10,0,13.1,1c3.1,1,1.9,4.6,5.3,4.6h1.8
		c0.3,0,0.6,0,0.9,0V637C791.2,637,790.9,637,790.6,637z"/>
	<path id="Path_3074" class="st6" d="M789.8,691.4c-10.2,0-18.4-8.3-18.4-18.4l0,0v-9.7c0-10.2,8.3-18.4,18.4-18.4
		s18.4,8.3,18.4,18.4v9.7C808.2,683.2,799.9,691.4,789.8,691.4C789.8,691.4,789.8,691.4,789.8,691.4z"/>
	<path id="Path_3076" class="st7" d="M756,680.9v22.9l35.5,20.4v-23.1L756,680.9z"/>
	<path id="Path_3080" class="st1" d="M756,719.2v4.9c0,5.6,1.4,11.2,4.2,16.1l31.3-18v-23.1L756,719.2z"/>
	<path id="Path_3081" class="st4" d="M823.5,680.9l-33.7,19.1v23.1l33.7-19.4V680.9z"/>
</g>
</svg>
