<?xml version="1.0" encoding="utf-8"?>
<!-- Generator: Adobe Illustrator 25.4.1, SVG Export Plug-In . SVG Version: 6.00 Build 0)  -->
<svg version="1.1" id="Layer_1" xmlns="http://www.w3.org/2000/svg" xmlns:xlink="http://www.w3.org/1999/xlink" x="0px" y="0px"
	 viewBox="0 0 150 150" style="enable-background:new 0 0 150 150;" xml:space="preserve">
<style type="text/css">
	.st0{fill:#1F3C88;}
	.st1{fill:#FFD25A;}
	.st2{fill:#EBC255;}
	.st3{fill:#D6B24E;}
	.st4{fill:#BA9A43;}
	.st5{fill:#D6B251;}
	.st6{fill:#ECECEC;}
	.st7{fill:#E6E7E8;}
	.st8{fill:#DAD7DC;}
	.st9{fill:#509FD7;}
</style>
<g id="Group_36209" transform="translate(-1396 -622)">
	<path id="Path_5245" class="st0" d="M1471,622c41.4,0,75,33.6,75,75s-33.6,75-75,75s-75-33.6-75-75S1429.6,622,1471,622z"/>
	<path id="Path_3022" class="st1" d="M1501.9,684.5h-62.3l-13.6,16.1v33.8c0,3.6,2.9,6.5,6.5,6.5c0,0,0,0,0,0h76.4
		c3.6,0,6.5-2.9,6.5-6.5c0,0,0,0,0,0v-33.8L1501.9,684.5z"/>
	<path id="Path_3023" class="st2" d="M1432.5,736.6c-1.2,0-2.2-1-2.2-2.2v-27.3c0-1.2,1-2.2,2.2-2.2h76.4c1.2,0,2.2,1,2.2,2.2v27.3
		c0,1.2-1,2.2-2.2,2.2L1432.5,736.6z"/>
	<circle id="Ellipse_290" class="st3" cx="1455.1" cy="714.4" r="2.9"/>
	<circle id="Ellipse_291" class="st3" cx="1486.3" cy="714.4" r="2.9"/>
	<path id="Path_3024" class="st4" d="M1485.4,712.6H1456c-0.9,0-1.7,0.8-1.7,1.7c0,0.9,0.8,1.7,1.7,1.7h29.4c0.9,0,1.7-0.8,1.7-1.7
		C1487.1,713.4,1486.3,712.6,1485.4,712.6z"/>
	<path id="Path_3025" class="st5" d="M1501.9,684.5h-62.3l-13.6,16.1h89.5L1501.9,684.5z"/>
	<path id="Path_3026" class="st6" d="M1490.8,655.7h2.9v44.9h-2.9V655.7z"/>
	<path id="Path_3027" class="st7" d="M1462.2,653l-12.4,12.4v35.3h41.8V653H1462.2z"/>
	<path id="Path_3028" class="st8" d="M1462.2,665.4V653l-12.4,12.4L1462.2,665.4z"/>
	<path id="Path_3029" class="st9" d="M1475.2,656.3h13.2v15.5h-13.2V656.3z"/>
	<path id="Path_3030" class="st8" d="M1454.2,675.1h33.1v1.1h-33.1V675.1z"/>
	<path id="Path_3031" class="st8" d="M1454.2,678.7h33.1v1.1h-33.1V678.7z"/>
	<path id="Path_3032" class="st8" d="M1454.2,682.4h33.1v1.1h-33.1V682.4z"/>
	<path id="Path_3033" class="st8" d="M1454.2,686h33.1v1.1h-33.1V686z"/>
	<path id="Path_3034" class="st8" d="M1454.2,689.7h33.1v1.1h-33.1V689.7z"/>
	<path id="Path_3035" class="st8" d="M1454.2,693.3h33.1v1.1h-33.1V693.3z"/>
	<path id="Path_3036" class="st8" d="M1454.2,697h33.1v1.1h-33.1V697z"/>
</g>
</svg>
