<?xml version="1.0" encoding="utf-8"?>
<!-- Generator: Adobe Illustrator 25.4.1, SVG Export Plug-In . SVG Version: 6.00 Build 0)  -->
<svg version="1.1" id="Layer_1" xmlns="http://www.w3.org/2000/svg" xmlns:xlink="http://www.w3.org/1999/xlink" x="0px" y="0px"
	 viewBox="0 0 150 150" style="enable-background:new 0 0 150 150;" xml:space="preserve">
<style type="text/css">
	.st0{fill-rule:evenodd;clip-rule:evenodd;fill:#1F3C88;}
	.st1{fill:#7DDCD4;}
	.st2{fill:#B1EAE5;}
	.st3{fill:#40D2BE;}
	.st4{fill:#02C8A7;}
	.st5{fill:#FDE59A;}
	.st6{fill:#FEF2CC;}
	.st7{fill:#FFFFFF;}
</style>
<g id="Group_36207" transform="translate(-1055 -299)">
	<path id="Path_3528" class="st0" d="M1130,449c41.4,0,75-33.6,75-75c0-41.4-33.6-75-75-75c-41.4,0-75,33.6-75,75
		C1055.1,415.4,1088.6,448.9,1130,449z"/>
	<path id="Path_3107" class="st1" d="M1130,408.9h46v-5.8l-51.8-5.8L1130,408.9z"/>
	<path id="Path_3108" class="st2" d="M1084,403.1v5.8h46v-11.5L1084,403.1z"/>
	<path id="Path_3109" class="st3" d="M1130,403.1h46v-5.8l-51.8-5.8L1130,403.1z"/>
	<path id="Path_3110" class="st1" d="M1084,397.4v5.8h46v-11.5L1084,397.4z"/>
	<path id="Path_3111" class="st1" d="M1130,397.4h46v-5.8l-51.8-5.8L1130,397.4z"/>
	<path id="Path_3112" class="st2" d="M1084,391.6v5.8h46v-11.5L1084,391.6z"/>
	<path id="Path_3113" class="st4" d="M1130,339.9l-5.8,25.9l5.8,25.9h46v-51.8H1130z"/>
	<rect id="Rectangle_1641" x="1084" y="339.9" class="st3" width="46" height="51.8"/>
	<path id="Path_3114" class="st1" d="M1161.6,345.6H1130l-5.8,20.1l5.8,20.1h31.6c0-4.8,3.9-8.6,8.6-8.6v-23
		C1165.5,354.3,1161.6,350.4,1161.6,345.6z"/>
	<path id="Path_3115" class="st2" d="M1098.4,345.6c0,4.8-3.9,8.6-8.6,8.6v23c4.8,0,8.6,3.9,8.6,8.6h31.6v-40.2H1098.4z"/>
	<path id="Path_3116" class="st4" d="M1130,348.5c12.7,0,23,7.7,23,17.2s-10.3,17.2-23,17.2V348.5z"/>
	<path id="Path_3117" class="st3" d="M1107,365.8c0,9.5,10.3,17.2,23,17.2v-34.5C1117.3,348.5,1107,356.2,1107,365.8z"/>
	<path id="Path_3118" class="st5" d="M1124.2,391.6l5.8,20.1h17.2v-20.1H1124.2z"/>
	<path id="Path_3119" class="st6" d="M1147.3,337H1130l-5.8,54.6h23V337z"/>
	<rect id="Rectangle_1642" x="1112.8" y="391.6" class="st6" width="17.2" height="20.1"/>
	<rect id="Rectangle_1643" x="1112.8" y="337" class="st7" width="17.2" height="54.6"/>
</g>
</svg>
