<?xml version="1.0" encoding="utf-8"?>
<!-- Generator: Adobe Illustrator 25.4.1, SVG Export Plug-In . SVG Version: 6.00 Build 0)  -->
<svg version="1.1" id="Layer_1" xmlns="http://www.w3.org/2000/svg" xmlns:xlink="http://www.w3.org/1999/xlink" x="0px" y="0px"
	 viewBox="0 0 34 34" style="enable-background:new 0 0 34 34;" xml:space="preserve">
<style type="text/css">
	.st0{fill:#D2DCFF;}
	.st1{fill:#347AF0;}
</style>
<g id="Group_36273" transform="translate(-3862 -1583)">
	<g id="Group_1" transform="translate(3862 1583)">
		<path id="Rectangle_470" class="st0" d="M17,0L17,0c9.4,0,17,7.6,17,17l0,0c0,9.4-7.6,17-17,17l0,0C7.6,34,0,26.4,0,17l0,0
			C0,7.6,7.6,0,17,0z"/>
	</g>
	<g id="ico_24_communication_email" transform="translate(3870 1593)">
		<path id="Icon_color" class="st1" d="M16.2,14.4H1.8c-1,0-1.8-0.8-1.8-1.8V1.8C0,0.8,0.8,0,1.8,0c0,0,0,0,0,0h14.4
			c1,0,1.8,0.8,1.8,1.8v10.8C18,13.6,17.2,14.4,16.2,14.4z M1.8,4.4v1.9l5.7,4c0.9,0.6,2.1,0.6,3,0l5.7-4V4.4L9.6,9
			C9.2,9.3,8.8,9.3,8.4,9L1.8,4.4z"/>
	</g>
</g>
</svg>
