<?xml version="1.0" encoding="utf-8"?>
<!-- Generator: Adobe Illustrator 25.4.1, SVG Export Plug-In . SVG Version: 6.00 Build 0)  -->
<svg version="1.1" id="Layer_1" xmlns="http://www.w3.org/2000/svg" xmlns:xlink="http://www.w3.org/1999/xlink" x="0px" y="0px"
	 viewBox="0 0 100 100" style="enable-background:new 0 0 100 100;" xml:space="preserve">
<style type="text/css">
	.st0{fill:#38456E;}
	.st1{clip-path:url(#SVGID_00000124157839763271788260000008701795850986330270_);}
	.st2{fill:#B5683C;}
	.st3{fill:#A3420B;}
	.st4{fill:none;stroke:#00004D;stroke-width:2;stroke-linecap:round;stroke-linejoin:round;stroke-miterlimit:10;}
	.st5{fill:none;}
	.st6{fill:#FFFFFF;}
	.st7{fill:#00004D;}
	.st8{fill:#FB344F;}
</style>
<g id="Group_35991" transform="translate(-64 -680)">
	<g id="avatar-circle" transform="translate(64 680)">
		<circle id="background-circle-2" class="st0" cx="50" cy="50" r="50"/>
		<g>
			<defs>
				<circle id="SVGID_1_" cx="50" cy="50" r="50"/>
			</defs>
			<clipPath id="SVGID_00000013895146940205387250000007672558545565328774_">
				<use xlink:href="#SVGID_1_"  style="overflow:visible;"/>
			</clipPath>
			<g id="avatar-circle-2" style="clip-path:url(#SVGID_00000013895146940205387250000007672558545565328774_);">
				<g id="body" transform="translate(5.556 19.445)">
					<g id="body_dark-brown">
						<path id="Fill_1" class="st2" d="M80.8,69c-2.9-4.3-7.3-7.4-12.3-8.8l-11.6-3.2v-8.3c5.1-3.8,8.1-9.7,8.3-16
							c2.8,1.2,6.1,0,7.3-2.8c1.2-2.8,0-6.1-2.8-7.3c-1.4-0.6-3-0.6-4.5,0v-1.6C65.3,9.3,56,0,44.4,0c0,0,0,0,0,0l0,0
							C32.9,0,23.6,9.3,23.6,20.8l0,0v1.6c-2.8-1.2-6.1,0.1-7.3,2.9s0.1,6.1,2.9,7.3c1.4,0.6,3,0.6,4.5,0c0.2,6.3,3.2,12.2,8.3,16
							v8.3l-11.6,3.2c-5,1.4-9.3,4.5-12.3,8.8L0,80.6v8.3h88.9v-8.3L80.8,69z"/>
						<path id="Fill_4" class="st3" d="M44.4,52.8c-2.5,0-5-0.4-7.3-1.3c3.3,2.1,7.2,3.3,11.2,3.3c3,0,5.9-0.6,8.6-1.9v-4.2
							C53.3,51.3,49,52.8,44.4,52.8z"/>
						<path id="Stroke_6" class="st4" d="M24.3,28.3c0.4-1.6-0.5-3.3-2.1-3.8c-0.7-0.2-1.4-0.1-2,0.1"/>
						<path id="Stroke_8" class="st4" d="M64.6,28.3c-0.4-1.6,0.5-3.3,2.1-3.8c0.7-0.2,1.4-0.1,2,0.1"/>
					</g>
				</g>
				<g id="mouth" transform="translate(38.889 56.808)">
					<rect id="mouth_default_background" x="0" y="0" class="st5" width="22.2" height="16.7"/>
					<path id="default" class="st6" d="M16.7,2.6c0,3.1-2.6,5.5-5.6,5.5c-3,0-5.4-2.5-5.5-5.5H16.7z"/>
				</g>
				<g id="eyes" transform="translate(36.111 42.222)">
					<rect id="eyes_default_background" x="0" y="0" class="st5" width="27.8" height="11.1"/>
					<path id="eye-right" class="st7" d="M25.3,5.6c0,1.2-1,2.2-2.2,2.2s-2.2-1-2.2-2.2s1-2.2,2.2-2.2c0,0,0,0,0,0
						C24.3,3.3,25.3,4.3,25.3,5.6"/>
					<path id="eye-left" class="st7" d="M6.9,5.6c0,1.2-1,2.2-2.2,2.2s-2.2-1-2.2-2.2s1-2.2,2.2-2.2c0,0,0,0,0,0
						C5.9,3.3,6.9,4.3,6.9,5.6"/>
				</g>
				<g id="nose" transform="translate(45.278 42.222)">
					<rect id="nose_default_background" x="0" y="0" class="st5" width="11.1" height="16.7"/>
					<path id="nose-2" class="st4" d="M4.7,3.3l2.8,9.4l-3.9,0.6"/>
				</g>
				<g id="clothing" transform="translate(5.556 76.389)">
					<path id="t-shirt" class="st8" d="M88.9,23.7L80.8,12c-2.9-4.3-7.3-7.4-12.3-8.8L56.9,0c0,6.9-5.6,12.5-12.5,12.5l0,0
						c-6.9,0-12.5-5.6-12.5-12.5L20.4,3.2C15.4,4.6,11,7.7,8.1,12L0,23.7v8.3h88.9V23.7z"/>
				</g>
				<g id="facial_hair" transform="translate(25 50.678)">
					<rect id="facial_hair_no-facial_background" y="0" class="st5" width="50" height="44.4"/>
				</g>
				<g id="accessories" transform="translate(27.778 37.5)">
					<rect id="accessories_no-accessory_background" x="0" class="st5" width="44.4" height="22.2"/>
				</g>
				<path id="long-13" class="st7" d="M216.4,54.7c0.6,0,1.1,0.1,1.7,0.3c0.2-0.5,0.4-1,0.4-1.5c0-1.2-0.6-2.3-1.7-2.9
					c2.4-1.4,3.2-4.4,1.8-6.8c-0.8-1.3-2.1-2.2-3.6-2.4c1.3-2.3,0.5-5.2-1.8-6.4c-1.5-0.9-3.5-0.8-4.9,0.2c0,0,0-0.1,0-0.1
					c0-3.4-2.7-6.1-6.1-6.1c-1.4,0-2.8,0.5-3.9,1.4c-1.4-2.7-4.7-3.8-7.5-2.4c-1,0.5-1.9,1.4-2.4,2.4c-2.6-2.1-6.5-1.7-8.6,0.9
					c-0.9,1.1-1.4,2.5-1.4,3.9c0,0,0,0.1,0,0.1c-2.2-1.4-5.1-0.9-6.5,1.3c-1,1.5-1.1,3.4-0.2,4.9c-2.7,0.4-4.6,3-4.2,5.7
					c0.2,1.5,1.1,2.8,2.4,3.6c-1.6,0.9-2.1,2.8-1.3,4.4c2.3-0.7,4.9,0.1,6.3,2.2c2.9-1.1,4.9-3.7,5.3-6.8c3.1,1.7,7,0.5,8.6-2.6
					c0.1-0.1,0.1-0.3,0.2-0.4c2.4,2.3,6.2,2.3,8.6,0c1.4,3.2,5.2,4.7,8.4,3.2c0.1-0.1,0.3-0.1,0.4-0.2c0.4,3.1,2.4,5.7,5.3,6.8
					C212.8,55.6,214.6,54.7,216.4,54.7"/>
			</g>
		</g>
	</g>
	<path id="long-13-2" class="st7" d="M137.1,722.2c0.6,0,1.1,0.1,1.7,0.3c0.2-0.5,0.4-1,0.4-1.5c0-1.2-0.6-2.3-1.7-2.9
		c2.4-1.4,3.2-4.4,1.8-6.8c-0.8-1.3-2.1-2.2-3.6-2.4c1.3-2.3,0.5-5.2-1.8-6.4c-1.5-0.9-3.5-0.8-4.9,0.2c0,0,0-0.1,0-0.1
		c0-3.4-2.7-6.1-6.1-6.1c-1.4,0-2.8,0.5-3.9,1.4c-1.4-2.7-4.7-3.8-7.5-2.4c-1,0.5-1.9,1.4-2.4,2.4c-2.6-2.1-6.5-1.7-8.6,0.9
		c-0.9,1.1-1.4,2.5-1.4,3.9c0,0,0,0.1,0,0.1c-2.2-1.4-5.1-0.9-6.5,1.3c-1,1.5-1.1,3.4-0.2,4.9c-2.7,0.4-4.6,3-4.2,5.7
		c0.2,1.5,1.1,2.8,2.4,3.6c-1.6,0.9-2.1,2.8-1.3,4.4c2.3-0.7,4.9,0.1,6.3,2.2c2.9-1.1,4.9-3.7,5.3-6.8c3.1,1.7,7,0.5,8.6-2.6
		c0.1-0.1,0.1-0.3,0.2-0.4c2.4,2.3,6.2,2.3,8.6,0c1.4,3.2,5.2,4.7,8.4,3.2c0.1-0.1,0.3-0.1,0.4-0.2c0.4,3.1,2.4,5.7,5.3,6.8
		C133.5,723.1,135.2,722.2,137.1,722.2"/>
</g>
</svg>
