<?xml version="1.0" encoding="utf-8"?>
<!-- Generator: Adobe Illustrator 25.4.1, SVG Export Plug-In . SVG Version: 6.00 Build 0)  -->
<svg version="1.1" id="Layer_1" xmlns="http://www.w3.org/2000/svg" xmlns:xlink="http://www.w3.org/1999/xlink" x="0px" y="0px"
	 viewBox="0 0 19.6 19.6" style="enable-background:new 0 0 19.6 19.6;" xml:space="preserve">
<style type="text/css">
	.st0{fill:#D2DCFF;}
	.st1{fill:#347AF0;}
</style>
<g id="Group_36270" transform="translate(-3636.397 -1705)">
	<path id="Path_5246" class="st0" d="M3646.2,1705v5.6l-1-1l-1.1,1.1l2.1,2.1v4l-2.1,2.1l1.1,1.1l1-1v5.6c-5.4,0-9.8-4.4-9.8-9.8
		C3636.4,1709.4,3640.8,1705,3646.2,1705L3646.2,1705z"/>
	<path id="Path_5247" class="st0" d="M3650.4,1714.8l-4.2-4.2v-5.6c5.4,0,9.8,4.4,9.8,9.8l0,0c0,5.4-4.4,9.8-9.8,9.8c0,0,0,0,0,0
		v-5.6L3650.4,1714.8z"/>
	<path id="Path_5248" class="st0" d="M3646.2,1716.8v-4l2,2L3646.2,1716.8z"/>
	<path id="Path_5249" class="st1" d="M3646.3,1719l-1,1l-1.1-1.1l2.1-2.1l2-2l-2-2l-2.1-2.1l1.1-1.1l1,1l4.2,4.2L3646.3,1719z"/>
</g>
</svg>
