<?xml version="1.0" encoding="utf-8"?>
<!-- Generator: Adobe Illustrator 25.4.1, SVG Export Plug-In . SVG Version: 6.00 Build 0)  -->
<svg version="1.1" id="Layer_1" xmlns="http://www.w3.org/2000/svg" xmlns:xlink="http://www.w3.org/1999/xlink" x="0px" y="0px"
	 viewBox="0 0 540.9 528.2" style="enable-background:new 0 0 540.9 528.2;" xml:space="preserve">
<style type="text/css">
	.st0{fill:url(#Path_5108_00000140013070273521769200000004689159842092729513_);}
	.st1{opacity:0.3;}
	.st2{fill:#BDD0FB;}
	.st3{fill:url(#Path_5115_00000098909957823966288810000001117112637247457701_);}
	.st4{fill:url(#Path_5116_00000072274991093339218580000002159077795049621153_);}
	.st5{fill:url(#Path_5122_00000057113270360859522970000014685207848464983701_);}
	.st6{fill:url(#Path_5123_00000063627681578357123950000010401297736048012988_);}
	.st7{fill:url(#Path_5124_00000158027660974121826980000004203433521772418965_);}
	.st8{fill:#7D97F4;}
	.st9{fill:url(#Path_5126_00000112607371666915061420000008219938090038993302_);}
	.st10{fill:url(#Path_5127_00000088851910936987741620000010215068786670695299_);}
	.st11{fill:url(#Path_5129_00000094596054939692259860000004577298911201422240_);}
	.st12{fill:url(#Path_5130_00000094576591877675772700000013768028254265827751_);}
	.st13{fill:#91B3FA;}
	.st14{fill:url(#Path_5132_00000042729097255399163040000004274378755671665054_);}
	.st15{opacity:0.47;fill:#FFFFFF;enable-background:new    ;}
	.st16{fill:url(#Path_5134_00000181058212873093147940000011796394309462104240_);}
	.st17{fill:url(#Path_5135_00000152986728884527482390000015479866359888990350_);}
	.st18{fill:url(#Path_5136_00000035488456199713117130000001359001309413025416_);}
	.st19{fill:url(#Path_5137_00000054949627911020441800000012627624921012693390_);}
	.st20{fill:url(#Path_5138_00000029757877847777662430000014319416022171407272_);}
	.st21{fill:url(#Rectangle_1761_00000051370828829895910880000014661681259014933633_);}
	.st22{fill:url(#Path_5139_00000101076772626066576150000008455696763074974371_);}
	.st23{fill:url(#Path_5140_00000178883720265805667510000010052902041328083611_);}
	.st24{fill:url(#Path_5141_00000068672087183124846920000006698739445967879355_);}
	.st25{fill:url(#Path_5142_00000058590081741070318480000011959173064894967471_);}
	.st26{fill:url(#Path_5143_00000147923196281289801840000000826144008530337443_);}
	.st27{fill:url(#Path_5144_00000067924785537308864530000002127435554627972740_);}
	.st28{fill:#EB5D60;}
	.st29{fill:url(#Path_5146_00000020401044385171667480000003964465269253353099_);}
	.st30{fill:url(#Path_5147_00000180349370398984381170000017812697261473369531_);}
	.st31{fill:url(#Path_5148_00000094593311518880980810000017884220113323185065_);}
	.st32{fill:url(#Path_5149_00000101792705064117970930000005082421209937604738_);}
	.st33{fill:url(#Path_5150_00000083775435142739918510000013742596651206205840_);}
	.st34{fill:url(#Path_5151_00000120549909316790507490000007096764650676237201_);}
	.st35{fill:url(#Path_5152_00000166668582395571406320000008576320350477098887_);}
	.st36{fill:url(#Path_5153_00000034068715586239321930000006022547539103093691_);}
	.st37{fill:url(#Path_5156_00000111165704066847148200000016907619841154378657_);}
	.st38{fill:#FFFFFF;}
	.st39{opacity:0.5;fill:#FFFFFF;enable-background:new    ;}
	.st40{fill:url(#Path_5163_00000057112396669700527950000017105941341662700947_);}
	.st41{fill:url(#Rectangle_1764_00000173134609587747663800000002709355666511815615_);}
	.st42{fill:url(#Path_5164_00000158737639796918574520000011489786113291654033_);}
	.st43{clip-path:url(#SVGID_00000042724061717244012150000013677106548658099593_);}
	.st44{fill:url(#Path_5165_00000174578038390081418430000000384754947801674666_);}
	.st45{fill:url(#Path_5166_00000071548318739371976690000011227258868084468369_);}
	.st46{fill:url(#Path_5167_00000067918810808302210180000014396301410647718796_);}
	.st47{fill:url(#Path_5168_00000023281208016704806240000015144409211338783156_);}
	.st48{fill:url(#Path_5169_00000088129491361714486160000000863657546207051160_);}
	.st49{fill:url(#Path_5170_00000160163181754418966030000016085657482237050294_);}
	.st50{fill:url(#Path_5171_00000062188050862581560470000018214081974420134021_);}
	.st51{fill:url(#Path_5172_00000104689857070867447790000013602019304246854035_);}
	.st52{fill:url(#Path_5174_00000130611002171800503300000005564991819117111723_);}
	.st53{fill:url(#Path_5176_00000049184090871672498140000013726025789179043757_);}
	.st54{fill:url(#Path_5177_00000074399728849762991910000006884758406375820705_);}
	.st55{fill:url(#Path_5178_00000110449093385886037990000013397104596682031025_);}
	.st56{fill:url(#Path_5179_00000087377558131813067940000017526983958032352442_);}
	.st57{fill:url(#Path_5180_00000047759405997889606650000008291987285351348143_);}
	.st58{fill:url(#Path_5181_00000107588354554403487300000006728676042489984180_);}
</style>
<g id="Group_36111" transform="translate(-451.1 -455)">
	
		<linearGradient id="Path_5108_00000112622529210858405240000013817993138896983687_" gradientUnits="userSpaceOnUse" x1="571.9656" y1="868.0531" x2="571.2606" y2="868.8081" gradientTransform="matrix(531.6165 0 0 -528.2209 -303032.7812 459593)">
		<stop  offset="0" style="stop-color:#DAE3FE"/>
		<stop  offset="1" style="stop-color:#E9EFFD"/>
	</linearGradient>
	<path id="Path_5108" style="fill:url(#Path_5108_00000112622529210858405240000013817993138896983687_);" d="M921.1,909.3
		c-13.8,14.3-26.2,22.6-35.7,29c-92.5,61.7-198.1,43.9-230.8,37.9c-52.7-9.8-97.2-16.7-135.5-51.3c-86.9-78.5-82.7-242.2-16.3-343.7
		c7.9-12,74.2-110.3,180.1-124.1c2.6-0.3,4.5-0.5,6.2-0.7c16.4-1.7,117.9-10.9,200.7,58.5c18.9,15.9,35.2,34.4,48.6,55.2
		C1003.1,669.8,1003.3,824.5,921.1,909.3z"/>
	<g id="Group_36093" transform="translate(569.068 470.214)">
		<g id="Group_36088" transform="translate(66.657 18.199)">
			<g id="Group_36085" transform="translate(22.148)" class="st1">
				<path id="Path_5109" class="st2" d="M0.4,24.5c-0.6-0.8-0.5-1.9,0.2-2.5c1.5-1.5,3.2-3,4.8-4.4c0.8-0.7,2-0.6,2.7,0.3
					c0,0,0,0,0,0l0,0c0.6,0.8,0.5,2-0.3,2.7c-1.6,1.3-3.1,2.7-4.6,4.1c-0.8,0.7-2,0.7-2.7,0c0,0,0,0,0,0C0.5,24.6,0.5,24.5,0.4,24.5
					z M13.5,14.2c0-0.1-0.1-0.1-0.1-0.2c-0.6-0.9-0.3-2.1,0.6-2.6c1.8-1.1,3.7-2.2,5.7-3.2c0.9-0.5,2.1-0.2,2.6,0.7
					c0.5,0.9,0.2,2.1-0.7,2.6c-0.1,0-0.1,0.1-0.2,0.1c-1.8,0.9-3.6,1.9-5.4,3C15.2,15.1,14.1,15,13.5,14.2L13.5,14.2z M28.5,7.1
					c-0.7-0.8-0.5-2,0.3-2.7c0.2-0.1,0.4-0.2,0.6-0.3c2-0.7,4.1-1.3,6.2-1.8c1-0.3,2.1,0.3,2.4,1.3c0.3,1-0.3,2.1-1.3,2.4
					c-0.1,0-0.1,0-0.2,0c-2,0.5-4,1.1-5.9,1.8C29.9,7.9,29,7.7,28.5,7.1L28.5,7.1z M44.8,3.5c-0.7-0.8-0.5-2,0.3-2.7
					c0.3-0.2,0.6-0.4,1-0.4C48.2,0.2,50.4,0,52.6,0c1.1,0,1.9,0.8,2,1.8c0,1.1-0.8,1.9-1.8,2c0,0,0,0,0,0c-2.1,0-4.1,0.2-6.2,0.4
					C45.8,4.3,45.2,4,44.8,3.5L44.8,3.5z M61.4,3.6c-0.7-0.8-0.5-2,0.3-2.7c0.4-0.3,0.9-0.5,1.4-0.4c2.1,0.3,4.3,0.6,6.4,1
					c1,0.2,1.7,1.2,1.5,2.2s-1.2,1.7-2.2,1.5c0,0,0,0,0,0c-2-0.4-4.1-0.8-6.1-1C62.2,4.3,61.7,4,61.4,3.6L61.4,3.6z M77.6,7.4
					c-0.7-0.8-0.5-2,0.3-2.7c0.5-0.4,1.2-0.5,1.8-0.3c2,0.7,4.1,1.5,6,2.4c1,0.4,1.4,1.6,0.9,2.5c-0.4,0.9-1.5,1.4-2.5,0.9
					c-1.9-0.9-3.8-1.6-5.7-2.3C78.1,7.9,77.8,7.7,77.6,7.4L77.6,7.4z M124.7,59.3c-0.2-0.2-0.3-0.5-0.4-0.7c-0.5-2-1.1-4-1.8-5.9
					c-0.3-1,0.2-2.1,1.2-2.4c1-0.3,2,0.2,2.4,1.2c0.7,2,1.3,4.1,1.9,6.2c0.3,1-0.4,2.1-1.4,2.3C125.9,60.1,125.2,59.9,124.7,59.3z
					 M92.5,14.7c-0.7-0.8-0.5-2,0.3-2.7c0.6-0.5,1.5-0.6,2.2-0.1c1.8,1.2,3.6,2.4,5.3,3.7c0.8,0.6,1,1.8,0.4,2.7
					c-0.6,0.8-1.8,1-2.7,0.4c-1.6-1.2-3.3-2.4-5.1-3.5C92.8,15,92.6,14.9,92.5,14.7L92.5,14.7z M118.9,43.7
					c-0.1-0.1-0.1-0.2-0.2-0.3c-0.9-1.8-2-3.6-3-5.4c-0.6-0.9-0.3-2.1,0.6-2.6s2.1-0.3,2.6,0.6c0,0,0,0,0,0c1.1,1.8,2.2,3.7,3.2,5.7
					c0.5,0.9,0.1,2.1-0.8,2.6C120.4,44.7,119.4,44.4,118.9,43.7L118.9,43.7z M105.4,25.1c-0.7-0.8-0.5-2,0.3-2.7
					c0.8-0.6,1.9-0.5,2.5,0.2c1.5,1.5,3,3.2,4.4,4.8l0,0c0.6,0.8,0.5,2-0.3,2.7c-0.8,0.6-2,0.5-2.6-0.3c-1.3-1.6-2.7-3.1-4.2-4.6
					C105.5,25.2,105.5,25.2,105.4,25.1L105.4,25.1z"/>
				<path id="Path_5110" class="st2" d="M126.8,72.5c-0.2-0.3-0.4-0.7-0.4-1.1c-0.1-1-0.1-2-0.3-3c-0.1-1,0.7-2,1.7-2.1
					s2,0.7,2.1,1.7c0.1,1,0.2,2.1,0.3,3.1c0.1,1.1-0.7,2-1.8,2C127.8,73.3,127.2,73,126.8,72.5L126.8,72.5z"/>
			</g>
			<g id="Group_36086" transform="translate(0 75.752)" class="st1">
				<path id="Path_5111" class="st2" d="M129.7,51.7c-0.6-0.7-0.5-1.8,0.1-2.5c0.7-0.7,1.3-1.5,2-2.2c0.7-0.8,1.9-0.9,2.7-0.3
					c0.8,0.7,0.9,1.9,0.3,2.7c0,0,0,0,0,0.1c-0.7,0.8-1.4,1.6-2.1,2.4c-0.7,0.8-1.9,0.8-2.7,0.1C129.8,51.9,129.8,51.8,129.7,51.7
					L129.7,51.7z"/>
				<path id="Path_5112" class="st2" d="M16.6,48c-0.5-0.7-1.1-1.4-1.6-2.1c-0.6-0.8-0.5-2,0.4-2.7c0.8-0.6,2-0.5,2.7,0.4
					c1.2,1.6,2.5,3.2,3.8,4.7c0.7,0.8,0.6,2-0.1,2.7c-0.8,0.7-2,0.6-2.7-0.1c0,0,0,0,0,0C18.2,50,17.4,49,16.6,48z M9.6,37.4
					c-0.1-0.1-0.1-0.2-0.2-0.3c-1-1.9-2-3.8-2.9-5.7c-0.4-1,0-2.1,1-2.5s2.1,0,2.5,1l0,0c0.8,1.8,1.7,3.7,2.7,5.4
					c0.5,0.9,0.2,2.1-0.7,2.6C11.2,38.4,10.2,38.2,9.6,37.4L9.6,37.4z M26.2,58c-0.7-0.8-0.5-2,0.3-2.7c0.7-0.6,1.7-0.6,2.4,0.1
					c1.5,1.3,3.1,2.6,4.8,3.8c0.9,0.6,1.1,1.8,0.5,2.7s-1.8,1.1-2.7,0.5c0,0,0,0,0,0c-1.7-1.3-3.4-2.6-5-4
					C26.3,58.1,26.3,58.1,26.2,58L26.2,58z M3.3,22.3C3.2,22.1,3,21.9,3,21.7c-0.6-2-1.1-4.1-1.5-6.2c-0.2-1,0.5-2,1.5-2.2
					c1-0.2,2,0.5,2.2,1.5c0.4,2,0.9,4,1.4,5.9c0.3,1-0.3,2.1-1.3,2.4C4.6,23.2,3.8,22.9,3.3,22.3L3.3,22.3z M39.7,67.2
					c-0.7-0.8-0.5-2,0.3-2.7c0.6-0.5,1.4-0.6,2.1-0.2c1.8,0.9,3.6,1.8,5.5,2.6c1,0.4,1.4,1.5,1,2.5c-0.4,1-1.5,1.4-2.5,1l0,0
					c-2-0.8-3.9-1.8-5.8-2.8C40,67.6,39.8,67.4,39.7,67.2L39.7,67.2z M54.9,73.3c-0.7-0.8-0.5-2,0.3-2.7c0.5-0.4,1.1-0.5,1.7-0.3
					c1.9,0.5,3.9,1,5.9,1.4c1,0.2,1.7,1.2,1.6,2.2s-1.2,1.7-2.2,1.6c0,0,0,0-0.1,0c-2.1-0.4-4.2-0.9-6.2-1.4
					C55.5,73.8,55.1,73.6,54.9,73.3L54.9,73.3z M71,75.9c-0.7-0.8-0.5-2,0.3-2.7c0.4-0.3,0.8-0.4,1.3-0.4c2,0.1,4.1,0.1,6.1,0.1
					c1.1,0,1.9,0.8,1.9,1.9c0,1-0.8,1.9-1.8,1.9c-2.1,0.1-4.3,0.1-6.4-0.1C71.9,76.6,71.3,76.3,71,75.9L71,75.9z M87.3,74.9
					c-0.7-0.8-0.5-2,0.3-2.7c0.3-0.2,0.5-0.3,0.9-0.4c2-0.3,4-0.8,5.9-1.3c1-0.3,2.1,0.3,2.4,1.3c0.3,1-0.3,2.1-1.3,2.4
					c0,0-0.1,0-0.1,0c-2.1,0.5-4.2,1-6.3,1.3C88.5,75.7,87.8,75.5,87.3,74.9L87.3,74.9z M103.1,70.4c-0.7-0.8-0.5-2,0.3-2.7
					c0.1-0.1,0.3-0.2,0.5-0.3c1.9-0.8,3.7-1.6,5.5-2.6c0.9-0.5,2.1-0.1,2.6,0.9c0.5,0.9,0.1,2.1-0.8,2.5c-1.9,1-3.8,1.9-5.8,2.7
					C104.5,71.3,103.6,71.1,103.1,70.4L103.1,70.4z M117.4,62.5C117.4,62.5,117.4,62.5,117.4,62.5c-0.7-1-0.5-2.1,0.4-2.8
					c1.2-0.9,2.4-1.8,3.6-2.7c0.4-0.3,0.8-0.7,1.2-1c0.8-0.7,2-0.6,2.7,0.2c0,0,0,0,0,0c0.7,0.8,0.6,2-0.2,2.7c0,0,0,0,0,0
					c-0.4,0.4-0.9,0.7-1.3,1.1c-1.2,1-2.5,1.9-3.8,2.8C119.2,63.5,118,63.3,117.4,62.5L117.4,62.5z"/>
				<path id="Path_5113" class="st2" d="M0.5,6.1C0.3,5.8,0.1,5.5,0.1,5.1C0.1,4,0,3,0,1.9C0,0.9,0.8,0,1.8,0c1.1,0,1.9,0.8,2,1.8
					c0,0,0,0,0,0c0,1,0.1,2,0.1,3c0.1,1.1-0.7,2-1.8,2C1.5,6.9,0.9,6.6,0.5,6.1L0.5,6.1z"/>
			</g>
			<g id="Group_36087" transform="translate(19.438 18.621)">
				<path id="Path_5114" class="st2" d="M0,51.5c-0.1,0.4,0.1,0.8,0.4,1l9.3,5.6c0.1,5.1,1,10.2,2.7,15.1l-6.7,8.5
					c-0.2,0.3-0.3,0.7-0.1,1l7,11c0.2,0.3,0.6,0.5,1,0.4l10.5-2.6c3.7,3.6,7.9,6.5,12.6,8.7l1.3,10.8c0,0.4,0.3,0.7,0.7,0.8
					l12.7,2.8c0.4,0.1,0.8-0.1,1-0.4l5.6-9.3c5.1-0.1,10.2-1,15.1-2.7l8.5,6.7c0.3,0.2,0.7,0.3,1,0l11-7c0.3-0.2,0.5-0.6,0.4-1
					l-2.6-10.5c3.6-3.7,6.5-7.9,8.7-12.6l10.8-1.3c0.4,0,0.7-0.3,0.8-0.7l2.8-12.7c0.1-0.4-0.1-0.8-0.4-1l-9.3-5.6
					c-0.1-5.1-1-10.2-2.7-15.1l6.7-8.5c0.2-0.3,0.3-0.7,0.1-1l-7-11c-0.2-0.3-0.6-0.5-1-0.4l-10.5,2.6c-3.7-3.6-7.9-6.5-12.6-8.7
					L76.5,3.5c0-0.4-0.3-0.7-0.7-0.8L63.1,0c-0.4-0.1-0.8,0.1-1,0.4l-5.6,9.3c-5.1,0.1-10.2,1-15.1,2.7l-8.5-6.7
					c-0.3-0.2-0.7-0.3-1,0l-11,7c-0.3,0.2-0.5,0.6-0.4,1l2.6,10.5c-3.6,3.7-6.5,7.9-8.7,12.6L3.6,38.1c-0.4,0-0.7,0.3-0.8,0.7
					L0,51.5z"/>
				
					<linearGradient id="Path_5115_00000124845853501987337200000012309587208013675905_" gradientUnits="userSpaceOnUse" x1="-88.643" y1="365.8171" x2="-87.643" y2="365.8171" gradientTransform="matrix(26.201 0 0 -26.2006 2366.7312 9641.8975)">
					<stop  offset="0" style="stop-color:#DAE3FE"/>
					<stop  offset="1" style="stop-color:#E9EFFD"/>
				</linearGradient>
				<path id="Path_5115" style="fill:url(#Path_5115_00000124845853501987337200000012309587208013675905_);" d="M47,65.4
					c-4.5-5.7-3.5-13.9,2.1-18.4c5.7-4.5,13.9-3.5,18.4,2.1s3.5,13.9-2.1,18.4c-5.1,4-12.4,3.7-17.1-0.7
					C47.9,66.4,47.4,65.9,47,65.4z M65.1,51c-0.3-0.4-0.6-0.8-1-1.1c-4-3.8-10.4-3.5-14.1,0.5s-3.5,10.4,0.5,14.1
					c4,3.8,10.4,3.5,14.1-0.5C68,60.5,68.2,54.9,65.1,51z"/>
				
					<linearGradient id="Path_5116_00000150817432014383504980000014391633116146253733_" gradientUnits="userSpaceOnUse" x1="-85.9863" y1="363.2368" x2="-84.9863" y2="363.2368" gradientTransform="matrix(62.3922 0 0 -64.378 5392.2314 23441.7695)">
					<stop  offset="0" style="stop-color:#DAE3FE"/>
					<stop  offset="1" style="stop-color:#E9EFFD"/>
				</linearGradient>
				<path id="Path_5116" style="fill:url(#Path_5116_00000150817432014383504980000014391633116146253733_);" d="M32.4,77.4
					c-0.7-0.9-1.3-1.8-1.9-2.7l0,0c-0.2-0.3-0.4-0.6-0.6-0.9c-0.9-1.5-1.6-3-2.3-4.6l0-0.1c0-0.1,0-0.1-0.1-0.2
					c0-0.1-0.1-0.2-0.1-0.4c-0.1-0.4,0.1-0.8,0.4-1c0.4-0.1,0.8,0.1,1,0.4l0,0c4.5,12,16,20,28.9,19.9c5.8,0,11.5-1.7,16.4-4.9
					c0.9-0.6,1.7-1.2,2.6-1.8c13.2-10.6,15.4-29.9,4.8-43.1C71.7,25.9,54.2,23,41,31.5c-4.7,3-8.4,7.2-10.9,12.2
					c0,0.1-0.1,0.2-0.2,0.3c-0.3,0.3-0.8,0.2-1.1-0.1c-0.2-0.2-0.2-0.6-0.1-0.8c2.1-4.2,5.1-7.9,8.8-10.9
					c13.9-11.1,34.2-8.8,45.2,5.1c0.7,0.9,1.3,1.7,1.9,2.6c8.9,13.9,5.9,32.3-7,42.6c-0.9,0.7-1.8,1.3-2.7,1.9
					C61.1,93.3,42.7,90.3,32.4,77.4L32.4,77.4z"/>
			</g>
		</g>
		<g id="Group_36092" transform="translate(0)">
			<g id="Group_36089" transform="translate(9.042)" class="st1">
				<path id="Path_5117" class="st2" d="M0.3,23c-0.3-0.4-0.3-1,0-1.4C0.8,20.8,1.4,20,2,19.2c0.4-0.5,1.1-0.6,1.7-0.2
					s0.6,1.1,0.2,1.7c-0.6,0.7-1.2,1.5-1.7,2.3c-0.4,0.5-1.1,0.7-1.6,0.3C0.4,23.2,0.3,23.1,0.3,23z"/>
				<path id="Path_5118" class="st2" d="M6.1,16.1c-0.4-0.5-0.3-1.2,0.1-1.6c1.2-1.2,2.5-2.4,3.9-3.4c0.3-0.2,0.6-0.4,0.9-0.7
					c0.5-0.4,1.2-0.3,1.7,0.2c0.4,0.5,0.3,1.3-0.2,1.7c-0.3,0.2-0.6,0.4-0.8,0.6c-1.3,1-2.5,2.1-3.7,3.3C7.4,16.7,6.7,16.7,6.1,16.1
					C6.2,16.2,6.2,16.2,6.1,16.1z M15.9,8.7c0,0-0.1-0.1-0.1-0.1C15.4,8,15.6,7.3,16.2,7c1.8-1.1,3.7-2,5.6-2.8
					c0.6-0.3,1.3,0,1.6,0.6c0.3,0.6,0,1.3-0.6,1.6c0,0,0,0-0.1,0C20.9,7.1,19.1,8,17.4,9C16.9,9.3,16.2,9.2,15.9,8.7L15.9,8.7z
					 M27.1,3.9c-0.4-0.5-0.3-1.3,0.2-1.7C27.4,2.1,27.6,2,27.7,2c2-0.6,4.1-1,6.1-1.4c0.6-0.1,1.2,0.3,1.3,1s-0.3,1.2-1,1.3
					c-2,0.3-3.9,0.8-5.8,1.3C27.9,4.4,27.4,4.2,27.1,3.9L27.1,3.9z M39.2,1.9c-0.4-0.5-0.3-1.3,0.2-1.7C39.6,0.1,39.8,0,40.1,0
					c2.1-0.1,4.2,0,6.3,0.2c0.6,0.1,1.1,0.6,1.1,1.3s-0.6,1.1-1.3,1.1l0,0c-2-0.2-4-0.2-6-0.2C39.8,2.4,39.4,2.2,39.2,1.9L39.2,1.9z
					 M51.4,3c-0.4-0.5-0.3-1.3,0.2-1.7c0.3-0.2,0.6-0.3,1-0.2c2,0.4,4.1,1,6,1.7c0.6,0.2,0.9,0.9,0.7,1.5c-0.2,0.6-0.9,0.9-1.5,0.7
					c0,0,0,0,0,0c-1.9-0.7-3.8-1.2-5.8-1.6C51.8,3.4,51.6,3.2,51.4,3z M63,7c-0.4-0.5-0.3-1.3,0.2-1.7C63.5,5.1,64,5,64.4,5.2
					c1.9,0.9,3.7,2,5.4,3.1c0.5,0.4,0.7,1.1,0.3,1.6c-0.4,0.5-1.1,0.7-1.6,0.3c-1.7-1.1-3.4-2.1-5.2-3C63.2,7.3,63.1,7.2,63,7L63,7z
					 M73.2,13.8c-0.4-0.5-0.3-1.3,0.2-1.7c0.4-0.3,1.1-0.3,1.5,0c1.6,1.4,3.1,2.8,4.5,4.4c0.4,0.5,0.4,1.2-0.1,1.7s-1.2,0.4-1.7-0.1
					c-1.3-1.5-2.8-2.9-4.3-4.2C73.3,13.9,73.2,13.8,73.2,13.8L73.2,13.8z M84.7,28c0-0.1-0.1-0.1-0.1-0.2c-0.8-1.5-1.7-3-2.7-4.4
					c-0.1-0.2-0.3-0.4-0.4-0.6c-0.4-0.5-0.3-1.3,0.3-1.6c0.5-0.4,1.3-0.3,1.6,0.3c0.2,0.2,0.3,0.5,0.5,0.7c1,1.5,2,3,2.9,4.6
					c0.3,0.6,0.1,1.3-0.5,1.6C85.7,28.6,85.1,28.4,84.7,28L84.7,28z"/>
			</g>
			<g id="Group_36090" transform="translate(0 50.699)" class="st1">
				<path id="Path_5119" class="st2" d="M11.5,32.5c-0.4-0.5-0.3-1.3,0.2-1.7c0.5-0.4,1.2-0.3,1.6,0.2c1.2,1.5,2.6,3,4,4.3
					c0.5,0.5,0.4,1.2,0,1.7c-0.4,0.4-1.1,0.4-1.6,0C14.2,35.6,12.8,34.1,11.5,32.5L11.5,32.5z M8,27.6C8,27.6,7.9,27.5,8,27.6
					c-1.2-1.8-2.2-3.6-3.1-5.5c-0.3-0.6,0-1.3,0.6-1.6s1.3,0,1.6,0.6c0.8,1.8,1.8,3.5,2.9,5.2c0.3,0.6,0.2,1.3-0.4,1.6
					C9,28.2,8.4,28.1,8,27.6L8,27.6z M20.2,40.8c-0.4-0.5-0.3-1.3,0.2-1.7c0.4-0.3,1-0.3,1.4,0c1.6,1.2,3.2,2.3,4.9,3.2
					c0.6,0.3,0.8,1,0.4,1.6s-1,0.8-1.6,0.4c-1.8-1-3.5-2.2-5.2-3.4C20.3,41,20.3,40.9,20.2,40.8L20.2,40.8z M2.8,16.7
					c-0.1-0.1-0.2-0.2-0.2-0.4c-0.7-2-1.2-3.9-1.6-6C0.9,9.7,1.3,9.1,1.9,9c0.6-0.1,1.3,0.2,1.4,0.9c0,0,0,0,0,0.1
					c0.4,1.9,0.9,3.8,1.5,5.7c0.2,0.6-0.1,1.3-0.7,1.5C3.6,17.3,3.1,17.1,2.8,16.7L2.8,16.7z M30.6,46.8c-0.4-0.5-0.3-1.3,0.2-1.7
					c0.3-0.3,0.8-0.3,1.2-0.2c1.8,0.8,3.7,1.4,5.6,2c0.6,0.2,1,0.8,0.8,1.5c-0.2,0.6-0.8,1-1.5,0.8l0,0c-2-0.6-3.9-1.2-5.8-2
					C30.9,47.1,30.8,46.9,30.6,46.8L30.6,46.8z M42.2,50.1c-0.4-0.5-0.3-1.3,0.2-1.7c0.3-0.2,0.6-0.3,0.9-0.2
					c1.9,0.3,3.9,0.5,5.9,0.6c0.7,0,1.1,0.6,1.1,1.2c0,0.6-0.6,1.1-1.2,1.1C47,51,45,50.8,43,50.5C42.7,50.5,42.4,50.3,42.2,50.1
					L42.2,50.1z M54.3,50.5c-0.4-0.5-0.3-1.3,0.2-1.7c0.2-0.1,0.4-0.2,0.6-0.3c2-0.2,3.9-0.5,5.8-0.9c0.6-0.1,1.3,0.3,1.4,0.9
					s-0.3,1.3-0.9,1.4c-2,0.4-4.1,0.7-6.1,0.9C54.9,51,54.5,50.8,54.3,50.5L54.3,50.5z"/>
				<path id="Path_5120" class="st2" d="M0.4,4.9C0.3,4.7,0.2,4.5,0.1,4.2c-0.1-1-0.1-2-0.1-3C0,0.6,0.5,0,1.2,0
					c0.7,0,1.2,0.5,1.2,1.2c0,0.9,0.1,1.9,0.1,2.9c0.1,0.6-0.4,1.2-1.1,1.3C1,5.3,0.6,5.2,0.4,4.9L0.4,4.9z"/>
			</g>
			<g id="Group_36091" transform="translate(12.909 12.371)">
				<path id="Path_5121" class="st2" d="M0,34.5C0,34.7,0.1,35,0.3,35.1l6.2,3.8c0.1,3.4,0.7,6.8,1.8,10.1l-4.5,5.7
					c-0.2,0.2-0.2,0.5,0,0.7l4.7,7.3c0.1,0.2,0.4,0.3,0.6,0.3l7.1-1.7c2.5,2.4,5.3,4.4,8.4,5.8l0.9,7.2c0,0.3,0.2,0.5,0.5,0.5
					l8.5,1.9c0.2,0.1,0.5-0.1,0.6-0.3l3.8-6.2c3.4-0.1,6.8-0.7,10.1-1.8l5.7,4.5c0.2,0.2,0.5,0.2,0.7,0l7.3-4.7
					c0.2-0.1,0.3-0.4,0.3-0.6l-1.7-7.1c2.4-2.5,4.4-5.3,5.8-8.4l7.2-0.9c0.3,0,0.5-0.2,0.5-0.5l1.9-8.5c0.1-0.2-0.1-0.5-0.3-0.6
					l-6.2-3.8c-0.1-3.4-0.7-6.8-1.8-10.1l4.5-5.7c0.2-0.2,0.2-0.5,0-0.7L68.2,14c-0.1-0.2-0.4-0.3-0.6-0.3l-7.1,1.7
					C58,13,55.1,11.1,52,9.6l-0.9-7.2c0-0.3-0.2-0.5-0.5-0.5L42.2,0c-0.2-0.1-0.5,0.1-0.6,0.3l-3.8,6.2c-3.4,0.1-6.8,0.7-10.1,1.8
					L22,3.8c-0.2-0.2-0.5-0.2-0.7,0L14,8.5c-0.2,0.1-0.3,0.4-0.3,0.6l1.7,7.1c-2.4,2.5-4.4,5.3-5.8,8.4l-7.2,0.9
					c-0.3,0-0.5,0.2-0.5,0.5L0,34.5z"/>
				
					<linearGradient id="Path_5122_00000019654277877309215570000003357519073275210135_" gradientUnits="userSpaceOnUse" x1="-17.5881" y1="392.2907" x2="-16.5881" y2="392.2907" gradientTransform="matrix(17.8807 0 0 -17.8804 343.8778 7052.5981)">
					<stop  offset="0" style="stop-color:#DAE3FE"/>
					<stop  offset="1" style="stop-color:#E9EFFD"/>
				</linearGradient>
				<path id="Path_5122" style="fill:url(#Path_5122_00000019654277877309215570000003357519073275210135_);" d="M31.3,43.9
					c-3.1-3.9-2.4-9.5,1.4-12.6c3.9-3.1,9.5-2.4,12.6,1.4c3.1,3.9,2.4,9.5-1.4,12.6c-3.5,2.8-8.4,2.6-11.7-0.4
					C31.9,44.5,31.6,44.2,31.3,43.9z M43.5,34.2c-2.3-2.8-6.4-3.3-9.2-1.1c-0.3,0.2-0.5,0.4-0.7,0.7c-2.5,2.6-2.3,6.8,0.3,9.3l0,0
					c2.6,2.5,6.8,2.3,9.3-0.3C45.3,40.4,45.5,36.8,43.5,34.2L43.5,34.2z"/>
				
					<linearGradient id="Path_5123_00000010304071130986548520000008568242190389926546_" gradientUnits="userSpaceOnUse" x1="-13.6612" y1="388.4821" x2="-12.6612" y2="388.4821" gradientTransform="matrix(43.1007 0 0 -44.4088 606.4313 17290.3555)">
					<stop  offset="0" style="stop-color:#DAE3FE"/>
					<stop  offset="1" style="stop-color:#E9EFFD"/>
				</linearGradient>
				<path id="Path_5123" style="fill:url(#Path_5123_00000010304071130986548520000008568242190389926546_);" d="M21.2,52.2
					c-0.5-0.6-0.9-1.2-1.3-1.8c-0.8-1.3-1.5-2.6-2.1-4l-0.1-0.2c-0.2-0.6,0-1.3,0.7-1.5s1.3,0,1.5,0.7c0,0,0,0,0,0.1
					c0.5,1.3,1.1,2.6,1.9,3.8l0,0c0,0.1,0.1,0.1,0.1,0.2c1.8,2.8,4.3,5,7.2,6.6c1.6,0.8,3.3,1.5,5,1.9l0,0l0.1,0
					c5.1,1.1,10.5,0.2,15-2.7c0.6-0.4,1.1-0.8,1.7-1.2C59.5,47,60.9,34.5,54,26c-6.8-8.6-19.3-9.9-27.9-3.1
					c-2.3,1.8-4.1,4.1-5.4,6.7c-0.1,0.2-0.2,0.3-0.3,0.4c-0.5,0.4-1.3,0.3-1.7-0.2c-0.3-0.4-0.3-0.8-0.1-1.3
					c5.4-11,18.8-15.5,29.8-10c11,5.4,15.5,18.8,10,29.8c-1.4,2.9-3.5,5.5-6,7.5c-0.6,0.5-1.2,0.9-1.9,1.3
					C40.9,63.2,28.3,61.1,21.2,52.2z"/>
			</g>
		</g>
	</g>
	<g id="Group_36095" transform="translate(452.202 590.791)">
		<g id="Group_36094" transform="translate(23.982 0)">
			
				<linearGradient id="Path_5124_00000170244986895928533340000014548074705396124823_" gradientUnits="userSpaceOnUse" x1="95.0789" y1="277.6629" x2="95.3019" y2="278.7579" gradientTransform="matrix(483.5057 0 0 -295.3667 -45772.4297 82287.6719)">
				<stop  offset="0" style="stop-color:#09005D"/>
				<stop  offset="1" style="stop-color:#1A0F91"/>
			</linearGradient>
			<path id="Path_5124" style="fill:url(#Path_5124_00000170244986895928533340000014548074705396124823_);" d="M477.2,286.9
				c0,4.7-3.8,8.4-8.4,8.4H12.2c-4.7,0-8.4-3.8-8.4-8.4L0,24.6c0-4.6,5.5-13.7,15.5-13L461.7,0c11.7-0.3,21.5,9,21.8,20.7
				c0,0.4,0,0.7,0,1.1L477.2,286.9z"/>
			<path id="Path_5125" class="st8" d="M468.9,278.8c0,4.4-3.6,8-8,8H23.2c-4.4,0-8-3.6-8-8L11.7,40.7c0.4-14.3,13-19.5,20.6-19.2
				L459.9,10c8.2-0.2,15.1,6.3,15.3,14.5c0,0.3,0,0.5,0,0.8L468.9,278.8z"/>
			
				<linearGradient id="Path_5126_00000181810233053545575530000017945396665509999776_" gradientUnits="userSpaceOnUse" x1="94.6094" y1="278.2536" x2="95.6094" y2="278.2536" gradientTransform="matrix(391.3772 0 0 -209.3212 -36983.0039 58379.9023)">
				<stop  offset="0" style="stop-color:#4F52FF"/>
				<stop  offset="1" style="stop-color:#4042E2"/>
			</linearGradient>
			<path id="Path_5126" style="fill:url(#Path_5126_00000181810233053545575530000017945396665509999776_);" d="M45.8,232.4
				C46.2,215.7,46,67.9,45,55.2S65.5,40,98.6,38.6s312.3-7.1,319.5-7.7c16.2-1.2,19.5,21.1,17.9,69.4c-1.2,36.3-3.2,96.2-4.2,123.7
				c-0.3,8.2-7.5,14.7-16.4,14.7c-67.2,0.2-324.7,0.9-341.8,1.3C53.8,240.6,45.6,239,45.8,232.4z"/>
		</g>
		
			<linearGradient id="Path_5127_00000126304106733531114340000010203506139986210213_" gradientUnits="userSpaceOnUse" x1="119.1379" y1="277.8804" x2="119.2129" y2="287.5184" gradientTransform="matrix(538.252 0 0 -23.0518 -63877.0977 6821.2993)">
			<stop  offset="0" style="stop-color:#09005D"/>
			<stop  offset="1" style="stop-color:#1A0F91"/>
		</linearGradient>
		<path id="Path_5127" style="fill:url(#Path_5127_00000126304106733531114340000010203506139986210213_);" d="M526.7,317.1H11.5
			C5.2,317.1,0,312,0,305.6l0,0c0-6.4,5.2-11.5,11.5-11.5h515.2c6.4,0,11.5,5.2,11.5,11.5l0,0C538.2,312,533.1,317.1,526.7,317.1z"
			/>
		<path id="Path_5128" class="st2" d="M209.5,250l0.3,1.3c0.2,1.2,3.5,1.1,5.8,1.1l241.2,1c1.3,0.1,2.6-0.7,3-2
			c0-1.3-0.5-2.6-2.9-2.6l-242.2-1.2C211.8,247.6,209.2,248.6,209.5,250z"/>
		
			<linearGradient id="Path_5129_00000000221344506429274700000000371997066749318540_" gradientUnits="userSpaceOnUse" x1="118.3706" y1="297.0858" x2="119.3706" y2="297.0858" gradientTransform="matrix(227.5265 0 0 -5.8833 -26870.7051 1997.8638)">
			<stop  offset="0" style="stop-color:#FF928E"/>
			<stop  offset="1" style="stop-color:#FE7062"/>
		</linearGradient>
		<path id="Path_5129" style="fill:url(#Path_5129_00000000221344506429274700000000371997066749318540_);" d="M288.7,251.5
			c-0.4-1.2-0.9-2.4-1.4-3.6l-218.9-0.8c-3.9,0-7,1.2-6.6,2.5l0.4,1.3c0.3,1.2,3.2,2.1,6.5,2.1h220.6
			C289,252.4,288.8,251.9,288.7,251.5z"/>
		
			<linearGradient id="Path_5130_00000085969328166942296210000005648182990939641990_" gradientUnits="userSpaceOnUse" x1="105.2095" y1="292.317" x2="102.4405" y2="281.814" gradientTransform="matrix(8.318 0 0 -8.3181 -583.4838 2675.6172)">
			<stop  offset="0" style="stop-color:#FEBBBA"/>
			<stop  offset="1" style="stop-color:#FF928E"/>
		</linearGradient>
		<path id="Path_5130" style="fill:url(#Path_5130_00000085969328166942296210000005648182990939641990_);" d="M293.8,251.6
			c0,2.3-1.9,4.2-4.2,4.2c-2.3,0-4.2-1.9-4.2-4.2c0-2.3,1.9-4.2,4.2-4.2l0,0C292,247.4,293.8,249.3,293.8,251.6z"/>
	</g>
	<g id="Group_36099" transform="translate(709.087 849.974)">
		<g id="Group_36097" transform="translate(0 49.248)">
			<g id="Group_36096">
				<path id="Path_5131" class="st13" d="M275.2,62.4H20.8V11.5h254.4C269.7,11.5,269.7,62.4,275.2,62.4z"/>
				
					<linearGradient id="Path_5132_00000183217372614345671480000001680622667393832352_" gradientUnits="userSpaceOnUse" x1="-138.1383" y1="-32.274" x2="-137.7923" y2="-27.744" gradientTransform="matrix(282.9349 0 0 -73.9309 39161.3359 -2120.3418)">
					<stop  offset="0" style="stop-color:#4F52FF"/>
					<stop  offset="1" style="stop-color:#4042E2"/>
				</linearGradient>
				<path id="Path_5132" style="fill:url(#Path_5132_00000183217372614345671480000001680622667393832352_);" d="M20.8,49.7V26.4
					c0-8.2,5-14.9,11.2-14.9h250.2c0.4,0,0.6-0.3,0.7-0.7V0.6c0-0.4-0.3-0.6-0.7-0.7H15.7C9.6,0,0,9.5,0,21.3v32.5
					c0,11.1,9.4,20.1,15.1,20.1h267.2c0.4,0,0.6-0.3,0.7-0.7V63.1c0-0.4-0.3-0.6-0.7-0.7H30.4C25.1,62.4,20.8,56.7,20.8,49.7z"/>
				<path id="Path_5133" class="st15" d="M269.8,58.3H42.4c-9.9,0-18-6.9-18-15.4V32.4c0-9.4,8.9-17,19.9-17h225.5
					C264.4,15.4,264.4,58.3,269.8,58.3z"/>
			</g>
			
				<linearGradient id="Path_5134_00000144334516676374702470000010962970962311996060_" gradientUnits="userSpaceOnUse" x1="-138.4872" y1="56.819" x2="-137.4872" y2="56.819" gradientTransform="matrix(239.8733 0 0 -1.3022 33246.5664 95.9504)">
				<stop  offset="0" style="stop-color:#DAE3FE"/>
				<stop  offset="1" style="stop-color:#E9EFFD"/>
			</linearGradient>
			<path id="Path_5134" style="fill:url(#Path_5134_00000144334516676374702470000010962970962311996060_);" d="M266.4,22.6H27.9
				c-0.4,0-0.7-0.3-0.7-0.6c0-0.4,0.3-0.7,0.6-0.7c0,0,0,0,0.1,0h238.5c0.4,0,0.7,0.3,0.7,0.6C267.1,22.3,266.8,22.6,266.4,22.6
				C266.4,22.6,266.4,22.6,266.4,22.6z"/>
			
				<linearGradient id="Path_5135_00000067949353581596119690000013699659161312468106_" gradientUnits="userSpaceOnUse" x1="-138.4872" y1="56.819" x2="-137.4872" y2="56.819" gradientTransform="matrix(239.8733 0 0 -1.3022 33246.5664 103.5073)">
				<stop  offset="0" style="stop-color:#DAE3FE"/>
				<stop  offset="1" style="stop-color:#E9EFFD"/>
			</linearGradient>
			<path id="Path_5135" style="fill:url(#Path_5135_00000067949353581596119690000013699659161312468106_);" d="M266.4,30.2H27.9
				c-0.4,0-0.7-0.3-0.7-0.6c0-0.4,0.3-0.7,0.6-0.7c0,0,0,0,0.1,0h238.5c0.4,0,0.7,0.3,0.7,0.6C267.1,29.8,266.8,30.1,266.4,30.2
				C266.4,30.2,266.4,30.2,266.4,30.2z"/>
			
				<linearGradient id="Path_5136_00000163774397551182309580000013591146122359712644_" gradientUnits="userSpaceOnUse" x1="-138.4872" y1="56.819" x2="-137.4872" y2="56.819" gradientTransform="matrix(239.8733 0 0 -1.3022 33246.5664 111.0632)">
				<stop  offset="0" style="stop-color:#DAE3FE"/>
				<stop  offset="1" style="stop-color:#E9EFFD"/>
			</linearGradient>
			<path id="Path_5136" style="fill:url(#Path_5136_00000163774397551182309580000013591146122359712644_);" d="M266.4,37.7H27.9
				c-0.4,0-0.7-0.3-0.7-0.6c0-0.4,0.3-0.7,0.6-0.7c0,0,0,0,0.1,0h238.5c0.4,0,0.7,0.3,0.7,0.6C267.1,37.4,266.8,37.7,266.4,37.7
				C266.4,37.7,266.4,37.7,266.4,37.7z"/>
			
				<linearGradient id="Path_5137_00000083772726586832650480000002774258807584160918_" gradientUnits="userSpaceOnUse" x1="-138.4872" y1="56.819" x2="-137.4872" y2="56.819" gradientTransform="matrix(239.8733 0 0 -1.3022 33246.5664 118.6203)">
				<stop  offset="0" style="stop-color:#DAE3FE"/>
				<stop  offset="1" style="stop-color:#E9EFFD"/>
			</linearGradient>
			<path id="Path_5137" style="fill:url(#Path_5137_00000083772726586832650480000002774258807584160918_);" d="M266.4,45.3H27.9
				c-0.4,0-0.7-0.3-0.7-0.6c0-0.4,0.3-0.7,0.6-0.7c0,0,0,0,0.1,0h238.5c0.4,0,0.7,0.3,0.7,0.6C267.1,45,266.8,45.3,266.4,45.3
				C266.4,45.3,266.4,45.3,266.4,45.3z"/>
			
				<linearGradient id="Path_5138_00000008128543316917089410000008950158164816145310_" gradientUnits="userSpaceOnUse" x1="-138.4872" y1="56.819" x2="-137.4872" y2="56.819" gradientTransform="matrix(239.8733 0 0 -1.3022 33246.5664 126.1772)">
				<stop  offset="0" style="stop-color:#DAE3FE"/>
				<stop  offset="1" style="stop-color:#E9EFFD"/>
			</linearGradient>
			<path id="Path_5138" style="fill:url(#Path_5138_00000008128543316917089410000008950158164816145310_);" d="M266.4,52.8H27.9
				c-0.4,0-0.7-0.3-0.7-0.6c0-0.4,0.3-0.7,0.6-0.7c0,0,0,0,0.1,0h238.5c0.4,0,0.7,0.3,0.7,0.6C267.1,52.5,266.8,52.8,266.4,52.8
				C266.4,52.8,266.4,52.8,266.4,52.8z"/>
		</g>
		<g id="Group_36098" transform="translate(76.537 0)">
			
				<linearGradient id="Rectangle_1761_00000058581791742229231680000004003603352770515596_" gradientUnits="userSpaceOnUse" x1="-212.88" y1="20.7522" x2="-213.173" y2="18.3842" gradientTransform="matrix(-205.457 0 0 49.594 -43749.9961 -779.9815)">
				<stop  offset="0" style="stop-color:#4F52FF"/>
				<stop  offset="1" style="stop-color:#4042E2"/>
			</linearGradient>
			<path id="Rectangle_1761" style="fill:url(#Rectangle_1761_00000058581791742229231680000004003603352770515596_);" d="
				M194.7,49.6h-184C4.8,49.6,0,44.8,0,38.8V10.8C0,4.8,4.8,0,10.8,0h184c5.9,0,10.8,4.8,10.8,10.8v28.1
				C205.5,44.8,200.6,49.6,194.7,49.6z"/>
			<rect id="Rectangle_1762" x="158.1" y="5.7" class="st13" width="24.1" height="38.2"/>
			<rect id="Rectangle_1763" x="145.5" y="5.7" class="st13" width="9.1" height="38.2"/>
		</g>
	</g>
	<g id="Group_36104" transform="translate(802.402 713.753)">
		
			<linearGradient id="Path_5139_00000038381731772839934550000015552376874832055455_" gradientUnits="userSpaceOnUse" x1="-217.1589" y1="163.9619" x2="-217.9939" y2="163.5219" gradientTransform="matrix(86.3821 0 0 -93.7249 20103.166 14761.7598)">
			<stop  offset="0" style="stop-color:#FEBBBA"/>
			<stop  offset="1" style="stop-color:#FF928E"/>
		</linearGradient>
		<path id="Path_5139" style="fill:url(#Path_5139_00000038381731772839934550000015552376874832055455_);" d="M5.1,186.7
			c0.1,0,45.8-80.2,52-87.7c1-1.3,2.7-1.9,4.3-1.7l12.8,1.5l15,32.5l-25-14.6c2.5,17.1-29.6,42.5-40.6,51.8
			c-1.1,0.9-1.2,2.5-0.3,3.6c0,0,0.1,0.1,0.1,0.1l4.4,4.6c-6.8,7-15.4,12-24.9,14.2L5.1,186.7z"/>
		
			<linearGradient id="Path_5140_00000150061180845185978490000001710032245454664098_" gradientUnits="userSpaceOnUse" x1="-235.9082" y1="163.2953" x2="-233.6311" y2="154.9543" gradientTransform="matrix(29.1428 0 0 -22.813 6860.7896 3829.9583)">
			<stop  offset="0" style="stop-color:#09005D"/>
			<stop  offset="1" style="stop-color:#1A0F91"/>
		</linearGradient>
		<path id="Path_5140" style="fill:url(#Path_5140_00000150061180845185978490000001710032245454664098_);" d="M25.2,174.3
			c1.7,0.6,3,1.8,3.8,3.4c0.4,1.2,0,2.6-1.1,3.3C23.3,184.3,8,195,1,197.1c-0.4,0.1-0.9-0.1-1-0.6c0-0.1,0-0.3,0-0.4
			c0.4-1.6,1.5-4.9,5.3-9.7L5,187.2c-0.2,0.5,0,1.1,0.4,1.3c0.3,0.1,0.6,0.1,0.9,0C11,185.8,20.6,180,25.2,174.3z"/>
		
			<linearGradient id="Path_5141_00000036222711799048492290000003828492927710363034_" gradientUnits="userSpaceOnUse" x1="-213.4496" y1="164.1773" x2="-210.0466" y2="165.6533" gradientTransform="matrix(72.5127 0 0 -104.7019 16913.8867 16474.9746)">
			<stop  offset="0" style="stop-color:#FEBBBA"/>
			<stop  offset="1" style="stop-color:#FF928E"/>
		</linearGradient>
		<path id="Path_5141" style="fill:url(#Path_5141_00000036222711799048492290000003828492927710363034_);" d="M23,206.4
			c0.1,0,6.9-16.6,7-16.6c6.3-38.3,21.6-71.1,26.2-79.8c0.8-1.5,2.2-2.4,3.8-2.6l12.8-1.1l21.3,28.7l-27.4-9.2
			c5.9,16.2-20.4,47.6-29.3,58.9c-0.9,1.1-0.7,2.7,0.4,3.6c0,0,0.1,0.1,0.1,0.1l5.2,3.6c-5.2,8.3-12.7,14.8-21.6,18.9L23,206.4z"/>
		
			<linearGradient id="Path_5142_00000147183855505319024310000015747430903605609365_" gradientUnits="userSpaceOnUse" x1="-237.0462" y1="162.6838" x2="-234.3952" y2="155.7138" gradientTransform="matrix(25.0354 0 0 -27.3066 5930.5962 4543.4404)">
			<stop  offset="0" style="stop-color:#09005D"/>
			<stop  offset="1" style="stop-color:#1A0F91"/>
		</linearGradient>
		<path id="Path_5142" style="fill:url(#Path_5142_00000147183855505319024310000015747430903605609365_);" d="M40.1,190.2
			c1.7,0.2,3.3,1.2,4.4,2.6c0.7,1.1,0.5,2.5-0.4,3.4c-3.9,4.2-16.6,17.7-23.1,21.2c-0.4,0.2-0.9,0-1.1-0.3c-0.1-0.1-0.1-0.2-0.1-0.4
			c0-1.7,0.5-5.1,3.2-10.5l-0.2,0.7c-0.1,0.5,0.2,1.1,0.7,1.2c0.3,0.1,0.6,0,0.9-0.2C28.5,204.3,36.7,196.7,40.1,190.2z"/>
		<g id="Group_36100" transform="translate(51.238 99.756)">
			
				<linearGradient id="Path_5143_00000141433487279933455220000016073086392658023829_" gradientUnits="userSpaceOnUse" x1="-296.8871" y1="-0.3524" x2="-296.1721" y2="2.7266" gradientTransform="matrix(94.2212 0 0 -37.7207 26741.2559 2207.1597)">
				<stop  offset="0" style="stop-color:#09005D"/>
				<stop  offset="1" style="stop-color:#1A0F91"/>
			</linearGradient>
			<path id="Path_5143" style="fill:url(#Path_5143_00000141433487279933455220000016073086392658023829_);" d="M81.6,0.5
				c0,0,11.6,17.2,12.5,25.1s-3.2,10.6-15.3,11.6c-36.1,3-53.9-7.8-53.9-7.8C22.4,13.6,20.6,9.6,0,1c0,0,26.1,2.1,31.3,0
				S81.6,0.5,81.6,0.5z"/>
		</g>
		<g id="Group_36102" transform="translate(65.037 0)">
			
				<linearGradient id="Path_5144_00000169552301991943882150000003104556694530546108_" gradientUnits="userSpaceOnUse" x1="-301.6847" y1="165.5544" x2="-301.3667" y2="164.8084" gradientTransform="matrix(55.8108 0 0 -59.6078 16680.4414 9367.9277)">
				<stop  offset="0" style="stop-color:#09005D"/>
				<stop  offset="1" style="stop-color:#1A0F91"/>
			</linearGradient>
			<path id="Path_5144" style="fill:url(#Path_5144_00000169552301991943882150000003104556694530546108_);" d="M21.5,3.7
				c0,0,8.1-9.6,16.7,2.2c1.6,2.1,7.5,0.4,9.7,4.8c1.1,2.3,3.6,3.6,6.1,3.1c6.3-1.2,16.5-1.3,21.6,8.6c3.9,7.5,0.9,11.9-3,14.4
				c-2.9,1.8-3.8,5.5-2.1,8.5c1.6,2.8,2,6.6-2.3,11.1c-9.5,10.2-28.3-6.5-28.3-6.5L24.9,14.5L21.5,3.7z"/>
			<path id="Path_5145" class="st28" d="M36.4,98c0,0-13.5-12.9-20.1-21.4C12.7,72,11.5,66,13.2,60.4c3-10.2,8.4-20.8,8.9-22.5
				c0.8-2.5,15.9-2.4,15.9-2.4s29.8,19.3,41.5,52.1l-13.1,4.1c0,0-7.8-13-15.5-21.3c0,0,13.3,17.6,13.8,24.8L36.4,98z"/>
			
				<linearGradient id="Path_5146_00000108282973666409379560000009187571921393508498_" gradientUnits="userSpaceOnUse" x1="-310.6041" y1="161.6161" x2="-309.6041" y2="161.6161" gradientTransform="matrix(71.8501 0 0 -16.5959 21422.6699 2778.0264)">
				<stop  offset="0" style="stop-color:#FEBBBA"/>
				<stop  offset="1" style="stop-color:#FF928E"/>
			</linearGradient>
			<path id="Path_5146" style="fill:url(#Path_5146_00000108282973666409379560000009187571921393508498_);" d="M10.7,103.1l10.1-11
				l11.7,3.2c0,0,13.7,2.1,21.5,0l7.8-2.1l17.7-5.5l2.8,7.8c0.7,2,0,4.2-1.7,5.4c-1.4,1.1-2.9,2-4.5,2.8c-2.3,1-53.6,0.3-53.6,0.3
				L10.7,103.1z"/>
			
				<linearGradient id="Path_5147_00000111174645933266190040000009949907011518733227_" gradientUnits="userSpaceOnUse" x1="-303.7411" y1="149.933" x2="-303.5571" y2="151.013" gradientTransform="matrix(19.0964 0 0 -23.7963 5797.7012 3824.1213)">
				<stop  offset="0" style="stop-color:#FEBBBA"/>
				<stop  offset="1" style="stop-color:#FF928E"/>
			</linearGradient>
			<path id="Path_5147" style="fill:url(#Path_5147_00000111174645933266190040000009949907011518733227_);" d="M27.6,17.3
				l10.2,18.9c-0.7,4.1-11.1,4.2-12.7,1.8c-0.2-0.3-0.3-0.5-0.3-0.8l-6.1-12.6c-0.3-1.2,3.1-5.4,4.2-6l4-2.2
				C28.5,15.6,22,15.5,27.6,17.3z"/>
			<g id="Group_36101" transform="translate(0 0.554)">
				
					<linearGradient id="Path_5148_00000074438790779439748540000002040812112260832643_" gradientUnits="userSpaceOnUse" x1="-328.6148" y1="119.3894" x2="-327.0468" y2="121.6644" gradientTransform="matrix(21.1006 0 0 -25.8658 6379.832 4122.9536)">
					<stop  offset="0" style="stop-color:#FEBBBA"/>
					<stop  offset="1" style="stop-color:#FF928E"/>
				</linearGradient>
				<path id="Path_5148" style="fill:url(#Path_5148_00000074438790779439748540000002040812112260832643_);" d="M7,12.3
					c0,0-1.1,6.4,3.9,14.5s10,7.8,12.6,4.9s5.6-7.7,4.2-15.8S8.8,4.1,7,12.3z"/>
				
					<linearGradient id="Path_5149_00000045604965226302780290000005538082111846873260_" gradientUnits="userSpaceOnUse" x1="-301.7863" y1="170.0496" x2="-301.2773" y2="167.8156" gradientTransform="matrix(32.5039 0 0 -18.5714 9752.1729 2986.8672)">
					<stop  offset="0" style="stop-color:#09005D"/>
					<stop  offset="1" style="stop-color:#1A0F91"/>
				</linearGradient>
				<path id="Path_5149" style="fill:url(#Path_5149_00000045604965226302780290000005538082111846873260_);" d="M21.6,16.7
					c0,0-8.1-10.7-14.4-1.4l0.1,3.2c0,0-8.1-0.4-7.2-7.9s7.5-12.6,16.7-10s14.6,5.5,15.6,11.8c1,6.4-4.2,5.3-4.2,5.3s-2-4.4-4.4-4.7
					s-1.5,3.2-1.5,3.2L21.6,16.7z"/>
				
					<linearGradient id="Path_5150_00000097468272974748659420000001707749506503342269_" gradientUnits="userSpaceOnUse" x1="-463.2885" y1="0.9165" x2="-456.8825" y2="8.3625" gradientTransform="matrix(5.1621 0 0 -7.9036 1671.1906 1346.3336)">
					<stop  offset="0" style="stop-color:#FEBBBA"/>
					<stop  offset="1" style="stop-color:#FF928E"/>
				</linearGradient>
				<path id="Path_5150" style="fill:url(#Path_5150_00000097468272974748659420000001707749506503342269_);" d="M23.4,16.4
					c0,0-4.2-5.5-0.4-6.6s3.7,5.4,3.4,7.8L23.4,16.4z"/>
			</g>
		</g>
		<g id="Group_36103" transform="translate(17.493 65.064)">
			
				<linearGradient id="Path_5151_00000108994867808788584880000014264727822494704297_" gradientUnits="userSpaceOnUse" x1="-250.9303" y1="115.7455" x2="-251.6693" y2="113.3085" gradientTransform="matrix(50.8391 0 0 -4.2271 12811.4717 533.3383)">
				<stop  offset="0" style="stop-color:#4F52FF"/>
				<stop  offset="1" style="stop-color:#4042E2"/>
			</linearGradient>
			<path id="Path_5151" style="fill:url(#Path_5151_00000108994867808788584880000014264727822494704297_);" d="M91.8,42.4
				c0,0-0.1,0-0.1,0L45,42.3c-1.2,0-2.1-0.9-2.1-2.1c0-1.2,0.9-2.1,2.1-2.1l46.7,0.1c1.2,0,2.1,0.9,2.1,2.1
				C93.8,41.4,92.9,42.3,91.8,42.4L91.8,42.4z"/>
			
				<linearGradient id="Path_5152_00000017506853411546658090000000566169178010267818_" gradientUnits="userSpaceOnUse" x1="-231.7463" y1="94.8028" x2="-226.6713" y2="95.4748" gradientTransform="matrix(66.6155 0 0 -42.3323 16693.5996 3931.6516)">
				<stop  offset="0" style="stop-color:#09005D"/>
				<stop  offset="1" style="stop-color:#1A0F91"/>
			</linearGradient>
			<path id="Path_5152" style="fill:url(#Path_5152_00000017506853411546658090000000566169178010267818_);" d="M3.1,0H42
				c2.9,0,5.5,1.7,6.7,4.2l18,38.1H18.3c-1.8,0-3.5-1.1-4.2-2.8L0.2,4.2c-0.6-1.6,0.1-3.4,1.7-4C2.3,0.1,2.7,0,3.1,0z"/>
			
				<linearGradient id="Path_5153_00000092458324081415307570000004100730451246241429_" gradientUnits="userSpaceOnUse" x1="-336.1293" y1="30.1209" x2="-337.9693" y2="28.2339" gradientTransform="matrix(6.5759 0 0 -9.6599 1780.3341 1000.7949)">
				<stop  offset="0" style="stop-color:#4F52FF"/>
				<stop  offset="1" style="stop-color:#4042E2"/>
			</linearGradient>
			<path id="Path_5153" style="fill:url(#Path_5153_00000092458324081415307570000004100730451246241429_);" d="M30.5,19.5
				c0.8,2.6,0.2,5.2-1.4,5.7s-3.6-1.2-4.4-3.8s-0.2-5.2,1.4-5.7S29.6,16.9,30.5,19.5z"/>
		</g>
	</g>
	<g id="Group_36105" transform="translate(826.435 520.948)">
		<path id="Path_5154" class="st28" d="M24.1,37.5l-8,29c-1.1,3.9-0.4,8.2,1.8,11.6c5.7,8.5,19.6,24,49,31.9
			c29.9,8,46.8-0.2,54.1-5.7c2.6-2,4.6-4.7,5.5-7.9l8.8-30.7L24.1,37.5z"/>
		<path id="Path_5155" class="st28" d="M87.8,0.2L4.1,23.7c-3,0.8-4.7,3.9-3.9,6.9c0.3,1.1,0.9,2,1.7,2.7
			c16.6,14.2,54.3,47.2,68.6,66.4c1.5,2.1,4.3,2.8,6.6,1.8l84.7-35c2.9-1.2,4.2-4.5,3-7.3c-0.3-0.8-0.8-1.5-1.5-2.1
			C147,42.7,105.1,6.6,91.6,0.5C90.4,0,89-0.1,87.8,0.2z"/>
		
			<linearGradient id="Path_5156_00000146479784387390154930000005612201555418832562_" gradientUnits="userSpaceOnUse" x1="-255.3038" y1="349.5805" x2="-256.6838" y2="348.7665" gradientTransform="matrix(49.998 0 0 -135.8799 12972.0098 47450.7266)">
			<stop  offset="0" style="stop-color:#FF928E"/>
			<stop  offset="1" style="stop-color:#FE7062"/>
		</linearGradient>
		<path id="Path_5156" style="fill:url(#Path_5156_00000146479784387390154930000005612201555418832562_);" d="M86,43.4
			c0,0,44.6,28.1,48,34.6s-3.4,35.7-3.4,35.7c7,24.7,8.1,51.6-3.8,65.7c0,0-14.6-32.5-8.1-46.2s9.1-19.3,9.1-19.3s5.7-31.2,3.9-35.6
			C131.6,78.1,82.2,45.2,86,43.4z"/>
		<path id="Path_5157" class="st38" d="M15.4,31.4l42.8,42.2l10.7,10.6l2.7,2.6l1.3,1.3c2.2,2.1,5.3,2.8,8.2,1.8l28.5-9.6
			c0.2-0.1,0.5,0.1,0.5,0.3c0.1,0.2,0,0.5-0.3,0.5L81.4,91c-3.2,1.1-6.8,0.4-9.3-2l-1.4-1.3L68,85.1L57.3,74.6L14.1,32.7
			c-0.4-0.3-0.4-0.9,0-1.3C14.4,31.1,15,31.1,15.4,31.4L15.4,31.4z"/>
		<path id="Path_5158" class="st38" d="M127.3,128.7L127.3,128.7l-0.2,0.2l-0.2,0.2l-0.4,0.5c-0.3,0.3-0.5,0.7-0.7,1.1l-0.6,1.2
			c-0.2,0.4-0.4,0.8-0.6,1.2c-0.2,0.4-0.4,0.8-0.5,1.2c-0.1,0.4-0.3,0.8-0.5,1.3l-0.4,1.3c-0.1,0.4-0.2,0.9-0.3,1.3l-0.3,1.3
			c-0.1,0.4-0.2,0.9-0.2,1.3c-0.1,0.9-0.2,1.8-0.3,2.7l-0.1,2.7c0,0.2,0,0.5,0,0.7l0,0.7l0,1.4c0,1.8,0.2,3.7,0.4,5.5
			c0,0.5,0.1,0.9,0.2,1.4l0.2,1.4c0.1,0.9,0.3,1.8,0.4,2.7c0.4,1.8,0.8,3.6,1.2,5.4l1.5,5.3v0c0,0.2,0,0.3-0.2,0.4s-0.3,0-0.4-0.2
			l-1.6-5.3c-0.5-1.8-0.9-3.6-1.4-5.4c-0.2-0.9-0.3-1.8-0.5-2.7l-0.3-1.4c-0.1-0.5-0.2-0.9-0.2-1.4c-0.2-1.9-0.5-3.7-0.5-5.6
			l-0.1-1.4l0-0.7c0-0.2,0-0.5,0-0.7l0.1-2.8c0.1-0.9,0.2-1.9,0.3-2.8c0-0.5,0.1-0.9,0.2-1.4l0.2-1.4c0.1-0.5,0.2-0.9,0.3-1.4
			l0.3-1.4c0.1-0.5,0.3-0.9,0.4-1.4c0.1-0.5,0.3-0.9,0.5-1.3c0.2-0.4,0.4-0.9,0.6-1.3l0.7-1.3c0.3-0.4,0.5-0.8,0.8-1.2l0.4-0.6
			l0.2-0.3l0.1-0.2l0.1-0.2c0.3-0.4,0.9-0.4,1.3,0C127.6,127.7,127.6,128.3,127.3,128.7L127.3,128.7L127.3,128.7z"/>
		<path id="Path_5159" class="st38" d="M128.6,140.2v1.7l0,2l0.1,3.9l0.1,7.9l0.3,15.7c0,0.3-0.2,0.5-0.5,0.5
			c-0.3,0-0.5-0.2-0.5-0.5l-0.7-15.7l-0.3-7.9L127,144l-0.1-2l0-1l0-0.5c0-0.2,0-0.5,0-0.7c0-0.5,0.5-0.8,0.9-0.8
			c0.4,0,0.8,0.4,0.8,0.9L128.6,140.2z"/>
	</g>
	<g id="Group_36106" transform="translate(451.1 524.024)">
		<path id="Path_5160" class="st13" d="M205.4,152.2H25.5c-7.3,0-13.4-5.5-14.1-12.8L0.1,19.1C-0.7,11.3,5,4.4,12.8,3.7
			c0.4,0,0.7-0.1,1.1-0.1L205.1,0c7.8-0.1,14.3,6.1,14.4,13.9c0,0.1,0,0.2,0,0.3v123.9C219.5,145.9,213.2,152.2,205.4,152.2z"/>
		<path id="Path_5161" class="st39" d="M11.6,29.8l8,104c0.3,4.5,4.1,8,8.6,8.1l172.7,1.8c4.8,0.1,8.8-3.8,8.8-8.7c0,0,0-0.1,0-0.1
			V23c0-4.8-3.9-8.7-8.7-8.7c-0.1,0-0.2,0-0.3,0L20,20.4c-4.8,0.2-8.6,4.2-8.4,9C11.5,29.6,11.6,29.7,11.6,29.8z"/>
		<path id="Path_5162" class="st39" d="M31.1,124.8h155.4c4.5,0,8.2-3.7,8.2-8.2c0,0,0-0.1,0-0.1L193.9,44l-13.2,16.7L170,62
			c0,0-9.6,0.3-12.2,0.7s-14.4,3.1-14.4,3.1L132,71.6l-2.7,7.4l-7.9,4.5l-8.5,5H95.7L74.4,79h-7.2L54,86.6l-12.3,14.3L31.1,124.8z"
			/>
		
			<linearGradient id="Path_5163_00000022541376458680155720000002088425471884631949_" gradientUnits="userSpaceOnUse" x1="119.3108" y1="395.3727" x2="119.3108" y2="378.4317" gradientTransform="matrix(100.912 0 0 -6.4539 -11958.3154 2373.3352)">
			<stop  offset="0" style="stop-color:#DAE3FE"/>
			<stop  offset="1" style="stop-color:#E9EFFD"/>
		</linearGradient>
		<path id="Path_5163" style="fill:url(#Path_5163_00000022541376458680155720000002088425471884631949_);" d="M32.8,35.8l97.4-2.9
			c1,0,1.8,0.7,1.8,1.7c0,0,0,0,0,0.1v1.6c0,1-0.8,1.8-1.7,1.8l-97.4,1.3c-1,0-1.8-0.8-1.8-1.7c0,0,0,0,0,0l0,0
			C31.1,36.6,31.9,35.8,32.8,35.8z"/>
		
			<linearGradient id="Rectangle_1764_00000156546300974126728670000008801237705125937063_" gradientUnits="userSpaceOnUse" x1="119.3108" y1="424.8788" x2="119.3108" y2="398.9048" gradientTransform="matrix(100.912 0 0 -4.209 -11958.3174 1609.9641)">
			<stop  offset="0" style="stop-color:#DAE3FE"/>
			<stop  offset="1" style="stop-color:#E9EFFD"/>
		</linearGradient>
		<path id="Rectangle_1764" style="fill:url(#Rectangle_1764_00000156546300974126728670000008801237705125937063_);" d="M33.2,44
			h96.7c1.2,0,2.1,0.9,2.1,2.1l0,0c0,1.2-0.9,2.1-2.1,2.1H33.2c-1.2,0-2.1-0.9-2.1-2.1l0,0C31.1,44.9,32.1,44,33.2,44z"/>
		
			<linearGradient id="Path_5164_00000108996011267028956100000005735192994004624527_" gradientUnits="userSpaceOnUse" x1="119.6948" y1="345.9366" x2="121.0038" y2="344.3567" gradientTransform="matrix(166.4694 0 0 -83.8922 -19827.9688 29095.6953)">
			<stop  offset="0" style="stop-color:#E1473D"/>
			<stop  offset="1" style="stop-color:#E9605A"/>
		</linearGradient>
		<path id="Path_5164" style="fill:url(#Path_5164_00000108996011267028956100000005735192994004624527_);" d="M31.7,124.8
			c-1.8,0-3.3-1.5-3.3-3.3c0-0.4,0.1-0.9,0.3-1.3c11.2-26.4,23.8-40.8,38.6-44c10.1-2.2,18,1.8,24.9,5.4c7.4,3.8,13.7,7.1,22.4,3.8
			c6.6-2.5,10.2-7.1,14-11.9c4.8-6,9.7-12.3,20.1-14c4.3-0.6,8.6-0.5,12.9,0.4c4.3,0.7,7.8,1.3,12.5-1c5.6-2.7,10.5-8.1,14.5-16.1
			c0.8-1.6,2.8-2.3,4.5-1.5c1.6,0.8,2.3,2.8,1.5,4.5l0,0c-4.7,9.3-10.6,15.7-17.6,19.1c-6.7,3.2-11.7,2.4-16.5,1.6
			c-3.5-0.8-7.1-0.9-10.7-0.4c-7.9,1.3-11.7,6.1-16,11.6c-4,5.1-8.6,10.9-16.9,14c-11.5,4.3-20.1-0.1-27.8-4.1
			c-6.5-3.3-12.7-6.5-20.5-4.8c-12.3,2.6-23.7,16.1-33.9,40.1C34.2,124,33,124.8,31.7,124.8z"/>
	</g>
	<g id="Group_36110" transform="translate(544.299 565.213)">
		<g>
			<defs>
				<rect id="SVGID_1_" x="0" y="0" width="254" height="265.5"/>
			</defs>
			<clipPath id="SVGID_00000072961200167355925230000005500999135225421227_">
				<use xlink:href="#SVGID_1_"  style="overflow:visible;"/>
			</clipPath>
			
				<g id="Group_36109" transform="translate(0)" style="clip-path:url(#SVGID_00000072961200167355925230000005500999135225421227_);">
				
					<linearGradient id="Path_5165_00000078021171761674651320000000812206797073765565_" gradientUnits="userSpaceOnUse" x1="23.216" y1="305.226" x2="21.577" y2="306.57" gradientTransform="matrix(23.4111 0 0 -39.8834 -490.6022 12272.2695)">
					<stop  offset="0" style="stop-color:#FEBBBA"/>
					<stop  offset="1" style="stop-color:#FF928E"/>
				</linearGradient>
				<path id="Path_5165" style="fill:url(#Path_5165_00000078021171761674651320000000812206797073765565_);" d="M33.1,80.8
					c-0.4,1.2,3.9,3,6.5-1.8c0.1-2.3,1.5-12.2,0.1-14.1C32.3,54.8,18,42.2,18,42.2c-1.4,1.2-1.6,3.3-0.4,4.7l6.9,7.2
					c-1.4,2.6-3.2,4.8-4,8c-0.6,2.4-0.3,5,1,7.1c1.2,2.2,2.9,5,4.4,7.3C27.5,79,30.2,80.5,33.1,80.8z"/>
				
					<linearGradient id="Path_5166_00000041292844119870373480000014452011634173982121_" gradientUnits="userSpaceOnUse" x1="17.1369" y1="311.8368" x2="9.2759" y2="305.9648" gradientTransform="matrix(9.6875 0 0 -16.907 -113.4882 5308.9292)">
					<stop  offset="0" style="stop-color:#FEBBBA"/>
					<stop  offset="1" style="stop-color:#FF928E"/>
				</linearGradient>
				<path id="Path_5166" style="fill:url(#Path_5166_00000041292844119870373480000014452011634173982121_);" d="M27.5,58.8l6.3,5.3
					l2,5.3l-5.6,6.2c0,0-1.9-10.6-3.3-12.8S26.2,59.5,27.5,58.8z"/>
				
					<linearGradient id="Path_5167_00000054224094646107669710000007925117709540200372_" gradientUnits="userSpaceOnUse" x1="26.1375" y1="309.7689" x2="23.3025" y2="303.2729" gradientTransform="matrix(54.2626 0 0 -25.7617 -1233.9294 8414.5635)">
					<stop  offset="0" style="stop-color:#09005D"/>
					<stop  offset="1" style="stop-color:#1A0F91"/>
				</linearGradient>
				<path id="Path_5167" style="fill:url(#Path_5167_00000054224094646107669710000007925117709540200372_);" d="M152.2,474.5
					c0,0,1.6,9,2.4,17.9c0.3,3.4-2.2,6.4-5.6,6.6c-0.1,0-0.2,0-0.3,0c-11.9,0.5-37.3,1.5-46.5,1.1c-1.1-0.1-2-1-1.9-2.1
					c0-0.2,0.1-0.4,0.1-0.6c0.4-1.1,1.2-1.9,2.3-2.4l42-19.3L152.2,474.5z"/>
				
					<linearGradient id="Path_5168_00000042706959568532676810000018169615738607393467_" gradientUnits="userSpaceOnUse" x1="27.3835" y1="311.5138" x2="28.3835" y2="311.5138" gradientTransform="matrix(13.665 0 0 -13.8572 -106.3696 4791.1543)">
					<stop  offset="0" style="stop-color:#FEBBBA"/>
					<stop  offset="1" style="stop-color:#FF928E"/>
				</linearGradient>
				<path id="Path_5168" style="fill:url(#Path_5168_00000042706959568532676810000018169615738607393467_);" d="M153.5,469.2
					l-1.3,10.8c0,0-7.4,3.4-12.4-0.4l3-12L153.5,469.2z"/>
				
					<linearGradient id="Path_5169_00000045600020578048522010000016846877991080733837_" gradientUnits="userSpaceOnUse" x1="28.1467" y1="304.931" x2="25.2497" y2="304.075" gradientTransform="matrix(45.1865 0 0 -207.2256 -950.2936 63332.7852)">
					<stop  offset="0" style="stop-color:#09005D"/>
					<stop  offset="1" style="stop-color:#1A0F91"/>
				</linearGradient>
				<path id="Path_5169" style="fill:url(#Path_5169_00000045600020578048522010000016846877991080733837_);" d="M152.6,266.4
					c0.6,2.8,3,140.6-11.8,202.3c-0.2,1,0.3,2,1.2,2.4c3.8,1.5,7.9,2.3,12,2.4c1.6,0.1,3.1-1,3.6-2.6c4.2-14.3,24.4-86.1,27-154.7
					c2.9-76.6,0-2.6,0-2.6l-1.7-47.4L152.6,266.4z"/>
				
					<linearGradient id="Path_5170_00000011721796274080798930000001638641048057183883_" gradientUnits="userSpaceOnUse" x1="25.1018" y1="311.8975" x2="18.0848" y2="304.2905" gradientTransform="matrix(21.9155 0 0 -21.9985 -283.6472 7276.064)">
					<stop  offset="0" style="stop-color:#09005D"/>
					<stop  offset="1" style="stop-color:#1A0F91"/>
				</linearGradient>
				<path id="Path_5170" style="fill:url(#Path_5170_00000011721796274080798930000001638641048057183883_);" d="M200.6,479.2
					c0,0,2.5,4.6,5,16.7c0.4,2-0.9,4-2.9,4.4c-0.1,0-0.3,0-0.4,0.1c-3.9,0.4-10,0.9-14.8,0.8c-2.1,0-3.7-1.7-3.7-3.8
					c0-0.1,0-0.3,0-0.4c0.5-4.4,2.2-11.7,7.4-17.3L200.6,479.2z"/>
				
					<linearGradient id="Path_5171_00000029727156126185787490000007842277968368553909_" gradientUnits="userSpaceOnUse" x1="18.9696" y1="309.5732" x2="19.9696" y2="309.5732" gradientTransform="matrix(11.799 0 0 -18.1348 -5.2395 6087.7871)">
					<stop  offset="0" style="stop-color:#FEBBBA"/>
					<stop  offset="1" style="stop-color:#FF928E"/>
				</linearGradient>
				<path id="Path_5171" style="fill:url(#Path_5171_00000029727156126185787490000007842277968368553909_);" d="M202.8,465.3
					l-3,16.3c0,0-3,2.2-8.8,0.6l1.4-17.6L202.8,465.3z"/>
				
					<linearGradient id="Path_5172_00000106835124888509801350000007910010626034081174_" gradientUnits="userSpaceOnUse" x1="27.2433" y1="304.6193" x2="25.2033" y2="303.7784" gradientTransform="matrix(64.1489 0 0 -211.054 -1447.9032 64492.4023)">
					<stop  offset="0" style="stop-color:#09005D"/>
					<stop  offset="1" style="stop-color:#1A0F91"/>
				</linearGradient>
				<path id="Path_5172" style="fill:url(#Path_5172_00000106835124888509801350000007910010626034081174_);" d="M210.9,270.6
					c12,72.7-2.6,179.7-7.6,200.6c-0.3,1.3-1.3,2.3-2.6,2.5c-3.1,0.6-6.3,0.4-9.4-0.4c-1.2-0.4-2.1-1.5-2.2-2.8
					c-0.7-16.9,0.5-120.8-10.7-161.9c-0.6-2.1-1.8-3.9-3.6-5.1L153,288l-1.7-25L210.9,270.6z"/>
				<g id="Group_36107" transform="translate(27.485 76.936)">
					<path id="Path_5173" class="st28" d="M106.6,55.9c36.1-0.6,75.9,9.5,75.9,9.5c10.8,62.8,1.9,135.2,1.9,135.2
						c-27.9,7.3-59.5-4.5-59.5-4.5C120.3,169.9,98.6,96,98.6,96C81,93.8,66.5,88.7,54.5,82c9.1-10.6,13.4-24,15.3-32
						C82.6,54,95.5,56.1,106.6,55.9z"/>
					
						<linearGradient id="Path_5174_00000136385880605192931060000011851922253793772971_" gradientUnits="userSpaceOnUse" x1="-1.8818" y1="227.8406" x2="-1.5358" y2="227.0006" gradientTransform="matrix(69.8141 0 0 -82.006 167.7533 18717.1367)">
						<stop  offset="0" style="stop-color:#FEBBBA"/>
						<stop  offset="1" style="stop-color:#FF928E"/>
					</linearGradient>
					<path id="Path_5174" style="fill:url(#Path_5174_00000136385880605192931060000011851922253793772971_);" d="M0,2.7
						c1.9-2.5,5.2-3.4,8-2.3C13.3,22.9,41.2,41.1,69.8,50c-1.9,8-6.2,21.4-15.3,32C7,55.3,0,2.7,0,2.7z"/>
				</g>
				<path id="Path_5175" class="st28" d="M196.2,177.3l13.8-35c0,0,33.7,22.9,39.3,52c-10.2,0.7-20.1,3.4-29.3,7.9
					C217.5,188.4,196.2,177.3,196.2,177.3z"/>
				
					<linearGradient id="Path_5176_00000147939127281220971670000001259312280650934657_" gradientUnits="userSpaceOnUse" x1="25.9701" y1="303.1115" x2="23.4001" y2="306.9455" gradientTransform="matrix(34.9277 0 0 -37.6779 -668.7991 11663.5781)">
					<stop  offset="0" style="stop-color:#FEBBBA"/>
					<stop  offset="1" style="stop-color:#FF928E"/>
				</linearGradient>
				<path id="Path_5176" style="fill:url(#Path_5176_00000147939127281220971670000001259312280650934657_);" d="M170.7,103.5
					l11.5,33.2c0.2,0.5,0,1.2-0.5,1.4c-3.1,1.7-14.4,6.7-28-1.9c-1.4-0.9-2.4-2.4-2.6-4l-3.7-28.7L170.7,103.5z"/>
				<g id="Group_36108" transform="translate(134.544 55.515)">
					
						<linearGradient id="Path_5177_00000039855424240151106960000008679590537708947590_" gradientUnits="userSpaceOnUse" x1="-114.4033" y1="264.4764" x2="-114.7253" y2="265.5414" gradientTransform="matrix(40.5806 0 0 -40.4059 4492.2656 10162.9111)">
						<stop  offset="0" style="stop-color:#FEBBBA"/>
						<stop  offset="1" style="stop-color:#FF928E"/>
					</linearGradient>
					<path id="Path_5177" style="fill:url(#Path_5177_00000039855424240151106960000008679590537708947590_);" d="M11.1,17.3
						c0,0-12.6,23.7-11,33.3s17.2,8.9,30.9,1.1l9.5-25.6L11.1,17.3z"/>
					
						<linearGradient id="Path_5178_00000168085734702050134080000005655424578177834927_" gradientUnits="userSpaceOnUse" x1="-111.2394" y1="260.002" x2="-111.0344" y2="258.823" gradientTransform="matrix(53.2513 0 0 -52.8253 5862.1421 13229.0479)">
						<stop  offset="0" style="stop-color:#09005D"/>
						<stop  offset="1" style="stop-color:#1A0F91"/>
					</linearGradient>
					<path id="Path_5178" style="fill:url(#Path_5178_00000168085734702050134080000005655424578177834927_);" d="M30.4,39.1
						c-0.5-0.2-0.7-0.8-0.5-1.3c0,0,0-0.1,0.1-0.1c1.6-2.3,2.8-4.8,3.5-7.4c0,0,2.3-1.5-5.8-3.4s-20-4.9-22.5-11.8
						C2.7,8.4,9.2-8.3,19.5,5c0.3,0.4,0.9,0.5,1.4,0.2C20.9,5.2,21,5.1,21.1,5c1.7-2.2,6.1-6.8,12.3-4c5.8,2.6,6.4,6.8,6.3,8.9
						c0,0.5,0.4,1,0.9,1c0.1,0,0.2,0,0.2,0c2.9-0.6,9.9-1,13.2,6.1c2.7,5.9,0.9,9.3-0.7,10.9c-0.4,0.4-0.4,1,0,1.4
						c0.1,0.1,0.3,0.2,0.4,0.2c1.9,0.6,4.4,2.2,4.1,6.7c-0.3,6.2-7.3,5.7-9.3,5.4c-0.3,0-0.6,0.1-0.9,0.3
						c-1.7,1.9-9.3,9.8-17.6,10.8c-0.5,0.1-1-0.3-1.1-0.9c0-0.1,0-0.3,0-0.4l3.6-10.4c0.2-0.5-0.1-1-0.5-1.2L30.4,39.1z"/>
					
						<linearGradient id="Path_5179_00000096780221269757394910000004114875886750593679_" gradientUnits="userSpaceOnUse" x1="-127.4258" y1="313.3376" x2="-128.3688" y2="317.9846" gradientTransform="matrix(12.4519 0 0 -8.3347 1487.8257 2220.8176)">
						<stop  offset="0" style="stop-color:#FEBBBA"/>
						<stop  offset="1" style="stop-color:#FF928E"/>
					</linearGradient>
					<path id="Path_5179" style="fill:url(#Path_5179_00000096780221269757394910000004114875886750593679_);" d="M29,40.6
						c0,0,9-6.2,9.6-1s-8.1,7.5-12.4,5.6L29,40.6z"/>
				</g>
				
					<linearGradient id="Path_5180_00000132788147040519620100000014824883010723918526_" gradientUnits="userSpaceOnUse" x1="17.8318" y1="317.412" x2="16.9148" y2="319.5291" gradientTransform="matrix(30.9736 0 0 -96.3077 -490.1353 29564.9258)">
					<stop  offset="0" style="stop-color:#FEBBBA"/>
					<stop  offset="1" style="stop-color:#FF928E"/>
				</linearGradient>
				<path id="Path_5180" style="fill:url(#Path_5180_00000132788147040519620100000014824883010723918526_);" d="M220,202.1
					c0,0,11.8,53.2,1.1,83.1c13.1,6.1,10.7,4.9,10.7,4.9s25.9-75.6,17.5-95.8C232.8,192.5,224.6,197,220,202.1z"/>
				
					<linearGradient id="Path_5181_00000140730765343373549150000010285117973184088480_" gradientUnits="userSpaceOnUse" x1="16.9967" y1="321.0167" x2="15.7317" y2="325.9677" gradientTransform="matrix(17.928 0 0 -32.865 -145.6208 10381.6807)">
					<stop  offset="0" style="stop-color:#FEBBBA"/>
					<stop  offset="1" style="stop-color:#FF928E"/>
				</linearGradient>
				<path id="Path_5181" style="fill:url(#Path_5181_00000140730765343373549150000010285117973184088480_);" d="M221.1,285.2
					c0,0-6.7,8.7-6.2,12.2s0.7,4.9,0.7,4.9s3.4-2.3,3.2-5.3c-0.5,9.4-3.6,20.1-0.8,19.6s17.7-14.2,14.3-28.7
					C224.7,282.6,222.6,283.2,221.1,285.2z"/>
			</g>
		</g>
	</g>
</g>
</svg>
