<?xml version="1.0" encoding="utf-8"?>
<!-- Generator: Adobe Illustrator 25.4.1, SVG Export Plug-In . SVG Version: 6.00 Build 0)  -->
<svg version="1.1" id="Layer_1" xmlns="http://www.w3.org/2000/svg" xmlns:xlink="http://www.w3.org/1999/xlink" x="0px" y="0px"
	 viewBox="0 0 538.5 533" style="enable-background:new 0 0 538.5 533;" xml:space="preserve">
<style type="text/css">
	.st0{fill:url(#Path_5041_00000175287930951845455600000003033564777173814697_);}
	.st1{opacity:0.3;}
	.st2{fill:#91B3FA;}
	.st3{fill:#BDD0FB;}
	.st4{fill:url(#Path_5057_00000011024462531520364150000011427156166545044142_);}
	.st5{fill:url(#Path_5058_00000115472783930727698700000008669762732985936262_);}
	.st6{fill:url(#Path_5059_00000035498596803233036860000016281352125639591086_);}
	.st7{fill:url(#Path_5060_00000080885067212426645130000005760537523061486751_);}
	.st8{fill:#FFFFFF;}
	.st9{fill:url(#Path_5065_00000167393529619283521290000003345140406969753269_);}
	.st10{fill:url(#Path_5066_00000065772969931130989020000014539491517441691822_);}
	.st11{fill:url(#Path_5067_00000066490133146658886050000002113854354099068328_);}
	.st12{fill:url(#Path_5068_00000080908046403695190680000017591048319241169545_);}
	.st13{fill:url(#Path_5069_00000052084502888951247800000011575881818234634649_);}
	.st14{fill:url(#Path_5070_00000173878402723077647110000010896943281569655700_);}
	.st15{fill:#EB5D60;}
	.st16{fill:url(#Path_5072_00000022556548853185330850000000299556774014568867_);}
	.st17{fill:url(#Path_5073_00000054976694348885836350000000588763472809498263_);}
	.st18{fill:url(#Path_5074_00000090283646708993222970000007480123069410425513_);}
	.st19{fill:url(#Path_5076_00000024721201795204928200000008986805713636933309_);}
	.st20{fill:url(#Path_5077_00000002342752160364561590000002001465814159406470_);}
	.st21{fill:url(#Path_5078_00000142878279096804253920000013979486817758667709_);}
	.st22{fill:url(#Path_5079_00000165193173143557179990000014344149087617377700_);}
	.st23{fill:url(#Path_5080_00000037657648271414002570000009692588375530401709_);}
	.st24{fill:url(#Path_5081_00000068642782100652939600000016675538538276910755_);}
	.st25{fill:url(#Path_5082_00000083082188019395132050000006245542540798321575_);}
	.st26{fill:url(#Path_5083_00000078002568905885250020000001934227719768905380_);}
	.st27{fill:url(#Path_5084_00000004542318798856988630000012321857970772020377_);}
	.st28{fill:url(#Path_5085_00000062900464651912036210000011716598414376946336_);}
	.st29{fill:url(#Path_5086_00000141444623590966215270000012576019354379510967_);}
	.st30{fill:url(#Path_5087_00000180329647351846836520000014334436803526039988_);}
	.st31{fill:url(#Path_5088_00000119087768445797513930000011272384264385440935_);}
	.st32{fill:url(#Path_5089_00000030455576587752190080000015079530046075666069_);}
	.st33{fill:url(#Path_5090_00000093894174497875678810000006905516989331421578_);}
	.st34{fill:url(#Path_5092_00000137097243871016581870000007259603634081950628_);}
	.st35{fill:url(#Path_5093_00000172433213834231817870000012892531284136031907_);}
	.st36{fill:url(#Path_5094_00000163068204535991159190000016724177578590752694_);}
	.st37{fill:url(#Path_5095_00000121994967538064962710000013805104939569821603_);}
	.st38{fill:url(#Path_5096_00000130612749165518035250000004142461254994277535_);}
	.st39{fill:url(#Ellipse_405_00000002381935248931457470000005801607719650324907_);}
	.st40{opacity:0.78;fill:#FFFFFF;enable-background:new    ;}
	.st41{fill:url(#Ellipse_408_00000047768488135069244270000011281307085736512191_);}
</style>
<g id="Group_36083" transform="translate(-465.049 -455)">
	
		<linearGradient id="Path_5041_00000046310992075589393190000018102408744524469152_" gradientUnits="userSpaceOnUse" x1="584.8809" y1="870.0923" x2="584.1439" y2="870.8854" gradientTransform="matrix(519.6906 0 0 -521.3871 -302940.75 454699.2188)">
		<stop  offset="0" style="stop-color:#DAE3FE"/>
		<stop  offset="1" style="stop-color:#E9EFFD"/>
	</linearGradient>
	<path id="Path_5041" style="fill:url(#Path_5041_00000046310992075589393190000018102408744524469152_);" d="M963,808.5
		c-52.6,123.1-191.6,175.9-300.5,166.9c-29.7-2.5-89.5-7.4-136.3-51.6c-89.7-84.8-75.9-262.1,10-366.5
		C547.2,543.9,623.8,453.8,743,455c87.3,0.9,148.6,50.2,156.1,56.4c19.1,15.9,35.6,34.6,48.9,55.5C992,635.6,995.8,731.6,963,808.5z
		"/>
	<g id="Group_36066" transform="translate(470.005 483.201)">
		<g id="Group_36060" transform="translate(0 42.676)">
			<g id="Group_36056" transform="translate(50.871 52.064)" class="st1">
				<path id="Path_5042" class="st2" d="M104,0.1c1-0.2,2,0.3,2.4,1.3c0.8,2.2,1.5,4.4,2.1,6.6c0.3,1.1-0.4,2.2-1.4,2.5c0,0,0,0,0,0
					l0,0c-1.1,0.3-2.2-0.4-2.4-1.4c-0.6-2.1-1.2-4.2-2-6.3c-0.4-1.1,0.2-2.2,1.2-2.6c0,0,0,0,0,0C103.8,0.1,103.9,0.1,104,0.1z
					 M108.1,17.2c1.1-0.3,2.2,0.4,2.5,1.5c0,0.1,0,0.2,0,0.2c0.3,2.3,0.5,4.6,0.6,6.9c0.1,1.1-0.8,2.1-1.9,2.1
					c-1.1,0.1-2.1-0.8-2.1-1.9c0,0,0-0.1,0-0.1c-0.1-2.2-0.3-4.4-0.5-6.5C106.4,18.4,107.1,17.5,108.1,17.2L108.1,17.2z M108.3,34.9
					c1.1-0.3,2.2,0.4,2.5,1.5c0.1,0.2,0.1,0.5,0,0.7c-0.2,2.3-0.6,4.6-1,6.8c-0.2,1.1-1.3,1.8-2.4,1.6c-1.1-0.2-1.8-1.3-1.6-2.3
					c0.4-2.1,0.7-4.3,0.9-6.5C106.9,35.8,107.5,35.1,108.3,34.9L108.3,34.9z M104.6,52.2c1.1-0.3,2.2,0.4,2.5,1.5
					c0.1,0.4,0.1,0.8,0,1.1c-0.7,2.2-1.6,4.3-2.5,6.5c-0.5,1-1.7,1.5-2.7,1c-1-0.5-1.5-1.6-1-2.6c0.9-2,1.7-4.1,2.4-6.1
					C103.4,52.9,103.9,52.4,104.6,52.2L104.6,52.2z M97.1,68.2c1.1-0.3,2.2,0.4,2.5,1.5c0.1,0.5,0,1.1-0.2,1.5
					c-1.2,2-2.5,3.9-3.9,5.7c-0.6,0.9-1.9,1.1-2.8,0.5s-1.1-1.9-0.5-2.8c0,0,0,0,0.1-0.1c1.3-1.8,2.5-3.6,3.7-5.5
					C96.1,68.7,96.6,68.3,97.1,68.2L97.1,68.2z M86.3,82.2c1.1-0.3,2.2,0.4,2.5,1.5c0.2,0.7,0,1.4-0.5,1.9c-1.6,1.6-3.3,3.2-5,4.7
					c-0.9,0.7-2.1,0.6-2.9-0.2c-0.7-0.8-0.6-2.1,0.2-2.8c1.7-1.4,3.3-2.9,4.8-4.5C85.6,82.5,85.9,82.3,86.3,82.2L86.3,82.2z
					 M15.3,104.7c0.3-0.1,0.6-0.1,0.9,0c2.1,0.4,4.3,0.7,6.5,0.9c1.1,0.1,1.9,1.1,1.8,2.2s-1.1,1.9-2.2,1.8c0,0,0,0,0,0
					c-2.3-0.2-4.6-0.6-6.9-1c-1.1-0.2-1.8-1.3-1.6-2.4C13.9,105.5,14.5,104.9,15.3,104.7L15.3,104.7z M72.6,93.4
					c1.1-0.3,2.2,0.4,2.5,1.5c0.2,0.8-0.1,1.7-0.9,2.2c-1.9,1.2-3.9,2.4-6,3.5c-1,0.6-2.2,0.2-2.8-0.7s-0.2-2.2,0.7-2.8
					c0,0,0.1,0,0.1-0.1c1.9-1,3.8-2.1,5.7-3.3C72.2,93.5,72.4,93.4,72.6,93.4L72.6,93.4z M32.9,106c0.1,0,0.3-0.1,0.4-0.1
					c2.2-0.1,4.4-0.3,6.6-0.6c1.1-0.2,2.1,0.6,2.3,1.7c0.2,1.1-0.6,2.1-1.7,2.3c0,0,0,0-0.1,0c-2.3,0.3-4.6,0.5-6.9,0.6
					c-1.1,0.1-2.1-0.8-2.1-1.9C31.3,107.1,31.9,106.2,32.9,106L32.9,106z M56.8,101.2c1.1-0.3,2.2,0.4,2.5,1.5c0.2,1-0.3,2-1.3,2.4
					c-2.2,0.8-4.4,1.5-6.6,2.1l0,0c-1.1,0.3-2.2-0.4-2.4-1.5c-0.2-1.1,0.4-2.1,1.4-2.4c2.1-0.6,4.2-1.2,6.3-2
					C56.7,101.3,56.7,101.3,56.8,101.2L56.8,101.2z"/>
				<path id="Path_5043" class="st2" d="M1.5,100.9c0.4-0.1,0.8-0.1,1.2,0.1c1,0.4,2,0.7,3,1.1c1.1,0.3,1.7,1.5,1.3,2.5
					c-0.3,1.1-1.5,1.7-2.5,1.3c0,0-0.1,0-0.1,0c-1-0.4-2.1-0.7-3.1-1.1c-1-0.4-1.6-1.6-1.2-2.6C0.4,101.5,0.9,101,1.5,100.9
					L1.5,100.9z"/>
			</g>
			<g id="Group_36057" class="st1">
				<path id="Path_5044" class="st2" d="M7.8,110c1-0.2,2,0.3,2.4,1.2c0.4,1,0.8,1.9,1.3,2.9c0.5,1,0,2.2-1,2.7s-2.2,0-2.7-1l0,0
					c-0.5-1-0.9-2-1.4-3c-0.4-1,0-2.2,1.1-2.7C7.6,110.1,7.7,110,7.8,110L7.8,110z"/>
				<path id="Path_5045" class="st2" d="M61.5,2.4c0.9-0.2,1.8-0.4,2.7-0.6c1.1-0.2,2.2,0.5,2.4,1.6c0.2,1.1-0.5,2.2-1.6,2.4l0,0
					c-2.1,0.5-4.2,1-6.3,1.6c-1.1,0.3-2.2-0.3-2.5-1.4c-0.3-1.1,0.3-2.2,1.4-2.5l0,0C58.9,3.1,60.2,2.7,61.5,2.4z M74.9,0.3
					c0.1,0,0.2,0,0.3-0.1C77.5,0.1,79.7,0,82,0c1.1,0,2,0.9,2,2s-0.9,2-2,2c0,0-0.1,0-0.1,0c-2.1,0-4.3,0-6.5,0.2
					c-1.1,0.1-2.1-0.8-2.2-1.9C73.3,1.4,73.9,0.5,74.9,0.3L74.9,0.3z M47.7,7.2c1.1-0.3,2.2,0.4,2.5,1.5c0.2,0.9-0.2,1.9-1.1,2.3
					c-2,0.9-3.9,1.9-5.8,2.9c-1,0.6-2.2,0.2-2.8-0.8c-0.6-1-0.2-2.2,0.8-2.8c2-1.1,4-2.2,6.1-3.1C47.4,7.3,47.5,7.3,47.7,7.2z
					 M92.2,0.9c0.3-0.1,0.5-0.1,0.8,0c2.2,0.3,4.5,0.8,6.7,1.3c1.1,0.3,1.7,1.4,1.5,2.5c-0.3,1.1-1.3,1.7-2.4,1.5
					c-2.1-0.5-4.2-0.9-6.3-1.2c-1.1-0.2-1.9-1.2-1.7-2.3C90.8,1.8,91.4,1.1,92.2,0.9z M32.8,16.2c1.1-0.3,2.2,0.4,2.5,1.5
					c0.2,0.8-0.1,1.6-0.7,2.1c-1.7,1.3-3.4,2.7-5,4.1c-0.8,0.8-2.1,0.7-2.9-0.1c-0.8-0.8-0.7-2.1,0.1-2.9c0,0,0,0,0,0
					c1.7-1.5,3.4-3,5.2-4.3C32.2,16.3,32.5,16.2,32.8,16.2L32.8,16.2z M20.2,28.1c1.1-0.3,2.2,0.4,2.5,1.5c0.2,0.6,0,1.3-0.4,1.8
					c-1.4,1.6-2.7,3.4-4,5.1c-0.6,0.9-1.9,1.1-2.8,0.5c-0.9-0.6-1.1-1.9-0.5-2.8c0,0,0,0,0,0c1.3-1.8,2.7-3.7,4.2-5.4
					C19.4,28.5,19.7,28.2,20.2,28.1L20.2,28.1z M10.5,42.6c1.1-0.3,2.2,0.4,2.5,1.5c0.1,0.5,0.1,1-0.2,1.4c-1,1.9-1.9,3.9-2.7,5.9
					c-0.4,1-1.6,1.5-2.6,1.1s-1.5-1.6-1.1-2.6c0,0,0,0,0-0.1c0.9-2.1,1.8-4.2,2.9-6.2C9.4,43.1,9.9,42.7,10.5,42.6L10.5,42.6z
					 M4.2,58.8c1.1-0.3,2.2,0.4,2.5,1.5c0.1,0.3,0.1,0.7,0,1c-0.6,2.1-1,4.2-1.4,6.3C5,68.7,4,69.5,2.9,69.3S1,68,1.2,66.9
					c0.4-2.2,0.9-4.5,1.5-6.6C2.9,59.5,3.5,59,4.2,58.8L4.2,58.8z M1.6,76c1.1-0.3,2.2,0.4,2.5,1.5c0,0.2,0.1,0.4,0.1,0.6
					c-0.1,2.1-0.1,4.3,0,6.5c0.1,1.1-0.8,2.1-1.9,2.1c-1.1,0.1-2.1-0.8-2.1-1.9c-0.1-2.3-0.1-4.5,0-6.8C0.1,77,0.7,76.2,1.6,76
					L1.6,76z M2.9,93.4c0,0,0.1,0,0.1,0c1.1-0.2,2.2,0.5,2.4,1.6c0.3,1.6,0.6,3.1,1,4.7c0.1,0.6,0.3,1.1,0.4,1.7
					c0.3,1.1-0.3,2.2-1.4,2.5c-1.1,0.3-2.2-0.3-2.5-1.4c0,0,0,0,0,0c-0.2-0.6-0.3-1.2-0.5-1.7C2,99,1.6,97.3,1.3,95.7
					C1.2,94.6,1.8,93.6,2.9,93.4L2.9,93.4z"/>
				<path id="Path_5046" class="st2" d="M109.1,5.4c0.4-0.1,0.8-0.1,1.2,0.1c1,0.4,2.1,0.8,3.1,1.3c1,0.4,1.5,1.6,1.1,2.7
					c-0.4,1-1.6,1.5-2.7,1.1c0,0,0,0-0.1,0c-1-0.4-1.9-0.8-2.9-1.2c-1-0.4-1.6-1.6-1.2-2.6C107.9,6,108.5,5.6,109.1,5.4L109.1,5.4z"
					/>
			</g>
			<g id="Group_36059" transform="translate(19.986 20.505)">
				<path id="Path_5047" class="st2" d="M92.1,8.4c-0.3-0.2-0.8-0.3-1.1,0l-9.6,6.5c-5-2.2-10.3-3.6-15.8-4.1L60.4,0.5
					c-0.2-0.4-0.6-0.6-1-0.5L45.7,2C45.3,2,45,2.3,44.9,2.7L42.8,14c-5.1,2-9.8,4.8-14,8.3l-11-3.5c-0.4-0.1-0.8,0-1,0.3L8.4,30.2
					c-0.2,0.3-0.3,0.8,0,1.1l6.5,9.6c-2.2,5-3.6,10.3-4.1,15.8L0.5,61.9c-0.4,0.2-0.6,0.6-0.5,1l2,13.7C2,77,2.3,77.3,2.7,77.4
					L14,79.6c2,5.1,4.8,9.8,8.3,14l-3.5,11c-0.1,0.4,0,0.8,0.3,1l11.1,8.3c0.3,0.2,0.8,0.3,1.1,0l9.6-6.5c5,2.2,10.3,3.6,15.8,4.1
					l5.3,10.3c0.2,0.4,0.6,0.6,1,0.5l13.7-2c0.4-0.1,0.7-0.4,0.8-0.8l2.2-11.3c5.1-2,9.8-4.8,14-8.3l11,3.5c0.4,0.1,0.8,0,1-0.3
					l8.3-11.1c0.2-0.3,0.3-0.8,0-1.1l-6.5-9.6c2.2-5,3.6-10.3,4.1-15.8l10.3-5.3c0.4-0.2,0.6-0.6,0.5-1l-2-13.7
					c-0.1-0.4-0.4-0.7-0.8-0.8l-11.3-2.2c-2-5.1-4.8-9.8-8.3-14l3.5-11c0.1-0.4,0-0.8-0.3-1L92.1,8.4z"/>
				<g id="Group_36058" transform="translate(47.247 47.247)">
					<path id="Path_5048" class="st3" d="M10.6,0.4c7.5-1.8,15,2.7,16.9,10.2c1.8,7.5-2.7,15-10.2,16.9c-7.5,1.8-15-2.7-16.9-10.2
						C-1.2,10.6,2.3,3.7,8.6,1C9.3,0.8,9.9,0.6,10.6,0.4z M16.5,24.3c5.7-1.4,9.2-7.2,7.8-12.9c-0.1-0.5-0.3-1-0.5-1.5
						c-2.2-5.5-8.5-8.1-13.9-5.8C4.4,6.3,1.8,12.5,4,18C6.1,22.9,11.3,25.5,16.5,24.3L16.5,24.3z"/>
				</g>
				<path id="Path_5049" class="st3" d="M52.7,28.2c1.1-0.3,2.3-0.5,3.5-0.7l0,0c0.4-0.1,0.7-0.1,1.1-0.1c1.8-0.2,3.6-0.3,5.5-0.2
					h0.1l0.2,0c0.1,0,0.3,0,0.4,0c0.4,0,0.8,0.4,0.8,0.9c0,0.4-0.4,0.8-0.9,0.8l0,0c-13.6-1-26.4,6.7-32,19.1
					c-2.6,5.6-3.5,11.9-2.6,18c0.2,1.1,0.4,2.2,0.6,3.3c4.4,17.5,22.1,28,39.6,23.6c16.1-4.1,26.6-19.6,24.3-36.1
					C92.4,51,90,45.5,86.3,40.9c-0.3-0.3-0.2-0.9,0.1-1.1s0.9-0.2,1.1,0.1c11.9,14.7,9.6,36.2-5.1,48.1
					c-14.7,11.9-36.2,9.6-48.1-5.1c-3.1-3.9-5.4-8.4-6.6-13.2c-0.3-1.1-0.5-2.3-0.7-3.5C24.7,48.9,35.7,32.5,52.7,28.2L52.7,28.2z"
					/>
			</g>
		</g>
		<g id="Group_36065" transform="translate(111.004)">
			<g id="Group_36061" transform="translate(55.077 26.231)" class="st1">
				<path id="Path_5050" class="st2" d="M43.1,0c0.5-0.1,1.1,0.1,1.4,0.6c0.5,0.9,1.1,1.9,1.5,2.8c0.3,0.6,0.1,1.4-0.6,1.7
					c-0.6,0.3-1.4,0.1-1.7-0.6c-0.5-0.9-0.9-1.8-1.5-2.7c-0.3-0.6-0.1-1.4,0.5-1.7C42.9,0.1,43,0.1,43.1,0z"/>
				<path id="Path_5051" class="st2" d="M47.2,8.8c0.6-0.2,1.3,0.2,1.5,0.8c0.6,1.7,1.2,3.5,1.6,5.3c0.1,0.4,0.2,0.8,0.3,1.1
					c0.1,0.7-0.3,1.3-0.9,1.5c-0.7,0.2-1.3-0.3-1.5-0.9c0,0,0,0,0,0c-0.1-0.4-0.2-0.7-0.3-1.1c-0.4-1.7-0.9-3.4-1.5-5
					c-0.2-0.7,0.1-1.4,0.8-1.6C47.1,8.8,47.2,8.8,47.2,8.8z M50.1,21.5c0.1,0,0.1,0,0.2,0c0.7-0.1,1.3,0.4,1.4,1.1
					c0.2,2.2,0.3,4.4,0.3,6.7c0,0.7-0.6,1.2-1.3,1.2s-1.2-0.6-1.2-1.3c0,0,0,0,0,0c0-2.1,0-4.2-0.2-6.4
					C49.1,22.2,49.5,21.6,50.1,21.5L50.1,21.5z M49.8,34.5c0.7-0.2,1.4,0.2,1.5,0.9c0,0.2,0,0.3,0,0.5c-0.3,2.2-0.8,4.4-1.4,6.5
					c-0.2,0.7-0.9,1.1-1.5,0.9c-0.7-0.2-1.1-0.9-0.9-1.5c0.6-2,1-4.1,1.3-6.2C48.9,35,49.3,34.6,49.8,34.5L49.8,34.5z M46.3,47
					c0.7-0.2,1.4,0.2,1.5,0.9c0.1,0.3,0,0.5-0.1,0.8c-0.9,2.1-1.8,4.1-2.9,6c-0.3,0.6-1.1,0.8-1.7,0.5c-0.6-0.3-0.8-1.1-0.5-1.7l0,0
					c1.1-1.8,2-3.8,2.8-5.7C45.6,47.4,45.9,47.1,46.3,47L46.3,47z M39.8,58.3c0.7-0.2,1.4,0.2,1.5,0.9c0.1,0.4,0,0.8-0.2,1.1
					c-1.3,1.8-2.8,3.5-4.3,5.1c-0.5,0.5-1.3,0.5-1.8,0c-0.5-0.5-0.5-1.3,0-1.8c1.5-1.5,2.8-3.2,4.1-4.9
					C39.3,58.5,39.5,58.4,39.8,58.3L39.8,58.3z M30.8,67.7c0.7-0.2,1.4,0.2,1.5,0.9c0.1,0.5,0,1-0.4,1.3c-1.7,1.4-3.5,2.7-5.4,3.9
					c-0.6,0.4-1.4,0.2-1.7-0.4s-0.2-1.4,0.4-1.7l0,0c1.8-1.1,3.5-2.4,5.2-3.7C30.5,67.8,30.6,67.7,30.8,67.7L30.8,67.7z M19.8,74.6
					c0.7-0.2,1.4,0.2,1.5,0.9c0.1,0.6-0.1,1.2-0.7,1.4c-2,0.9-4.1,1.8-6.2,2.4c-0.7,0.2-1.4-0.2-1.6-0.8c-0.2-0.6,0.2-1.3,0.8-1.5
					c2-0.7,4-1.4,5.9-2.3C19.6,74.6,19.7,74.6,19.8,74.6L19.8,74.6z M0.9,79.4c0.1,0,0.1,0,0.2,0C3,79.3,4.8,79,6.7,78.7
					c0.3,0,0.5-0.1,0.8-0.1c0.7-0.1,1.3,0.3,1.5,1c0.1,0.7-0.3,1.3-1,1.5c0,0,0,0,0,0c-0.3,0.1-0.6,0.1-0.9,0.2
					c-1.9,0.3-3.8,0.6-5.8,0.7c-0.7,0-1.3-0.5-1.3-1.2C0,80.1,0.4,79.6,0.9,79.4L0.9,79.4z"/>
			</g>
			<g id="Group_36062" class="st1">
				<path id="Path_5052" class="st2" d="M39.1,1.8c0.7-0.2,1.4,0.2,1.5,0.9c0.2,0.7-0.2,1.4-0.9,1.5l0,0c-2,0.5-4,1.2-5.9,1.9
					c-0.6,0.3-1.4-0.1-1.6-0.7c-0.3-0.6,0.1-1.4,0.7-1.6l0,0C34.9,3,37,2.3,39.1,1.8L39.1,1.8z M45.4,0.5c0,0,0.1,0,0.1,0
					C47.7,0.2,49.9,0,52.1,0c0.7,0,1.3,0.5,1.3,1.2c0,0.7-0.5,1.3-1.2,1.3c-2.1,0-4.2,0.2-6.2,0.5c-0.7,0.1-1.3-0.4-1.4-1.1
					C44.4,1.3,44.8,0.7,45.4,0.5L45.4,0.5z M27.2,6.5c0.7-0.2,1.4,0.2,1.5,0.9c0.1,0.6-0.1,1.1-0.6,1.4c-1.8,1-3.6,2.1-5.3,3.3
					c-0.6,0.4-1.4,0.2-1.7-0.3c-0.4-0.6-0.3-1.3,0.3-1.7c1.8-1.3,3.6-2.4,5.6-3.5C27,6.5,27.1,6.5,27.2,6.5L27.2,6.5z M58.2,0.3
					c0.1,0,0.3,0,0.4,0c2.2,0.2,4.3,0.6,6.5,1.1c0.7,0.1,1.1,0.8,1,1.5c-0.1,0.7-0.8,1.1-1.5,1c0,0,0,0,0,0c-2-0.5-4.1-0.8-6.2-1
					c-0.7-0.1-1.2-0.7-1.1-1.4C57.3,0.9,57.7,0.5,58.2,0.3L58.2,0.3z M16.8,13.9c0.7-0.2,1.4,0.2,1.5,0.9c0.1,0.4,0,0.9-0.4,1.2
					c-1.5,1.4-3,2.9-4.3,4.5c-0.4,0.5-1.2,0.6-1.8,0.1c-0.5-0.4-0.6-1.2-0.1-1.8c1.4-1.7,2.9-3.2,4.6-4.7
					C16.4,14.1,16.6,14,16.8,13.9z M8.5,23.6c0.7-0.2,1.4,0.2,1.5,0.9c0.1,0.3,0,0.7-0.2,1c-1.2,1.7-2.2,3.5-3.1,5.4
					c-0.3,0.6-1.1,0.9-1.7,0.6c-0.6-0.3-0.9-1.1-0.6-1.7c0,0,0,0,0,0c1-2,2.1-3.9,3.3-5.7C7.9,23.9,8.2,23.7,8.5,23.6z M2.8,35.1
					c0.7-0.2,1.4,0.2,1.5,0.9c0.1,0.2,0,0.5,0,0.7c-0.7,2-1.3,4-1.8,6c-0.2,0.7-0.8,1.1-1.5,0.9c-0.7-0.2-1.1-0.8-0.9-1.5
					c0.5-2.1,1.1-4.2,1.8-6.3C2,35.5,2.3,35.2,2.8,35.1z"/>
				<path id="Path_5053" class="st2" d="M70.7,3.3c0.2-0.1,0.5,0,0.7,0c1,0.4,2,0.8,3,1.2c0.6,0.3,0.9,1,0.7,1.7
					c-0.3,0.6-1,0.9-1.7,0.6c-0.9-0.4-1.9-0.8-2.8-1.1c-0.6-0.2-1-1-0.7-1.6C70,3.7,70.3,3.4,70.7,3.3L70.7,3.3z"/>
			</g>
			<g id="Group_36064" transform="translate(11.97 13.611)">
				<path id="Path_5054" class="st2" d="M61.6,5.6c-0.2-0.2-0.5-0.2-0.7,0l-6.4,4.3c-3.3-1.5-6.9-2.4-10.6-2.7l-3.5-6.9
					C40.3,0.1,40,0,39.8,0l-9.2,1.3c-0.3,0-0.5,0.2-0.5,0.5l-1.5,7.6c-3.4,1.3-6.6,3.2-9.4,5.6l-7.4-2.4c-0.3-0.1-0.5,0-0.7,0.2
					l-5.6,7.4c-0.2,0.2-0.2,0.5,0,0.7l4.3,6.4c-1.5,3.3-2.4,6.9-2.7,10.6l-6.9,3.5C0.1,41.6,0,41.8,0,42.1l1.3,9.2
					c0,0.3,0.2,0.5,0.5,0.5l7.6,1.5c1.3,3.4,3.2,6.6,5.6,9.4L12.6,70c-0.1,0.3,0,0.5,0.2,0.7l7.4,5.6c0.2,0.2,0.5,0.2,0.7,0l6.4-4.3
					c3.3,1.5,6.9,2.4,10.6,2.7l3.5,6.9c0.1,0.2,0.4,0.4,0.7,0.3l9.2-1.3c0.3,0,0.5-0.2,0.5-0.5l1.5-7.6c3.4-1.3,6.6-3.2,9.4-5.6
					l7.4,2.4c0.3,0.1,0.5,0,0.7-0.2l5.6-7.4c0.2-0.2,0.2-0.5,0-0.7l-4.3-6.4c1.5-3.3,2.4-6.9,2.7-10.6l6.9-3.5
					c0.2-0.1,0.4-0.4,0.3-0.7l-1.3-9.2c0-0.3-0.2-0.5-0.5-0.5l-7.6-1.5c-1.3-3.4-3.2-6.6-5.6-9.4l2.4-7.4c0.1-0.3,0-0.5-0.2-0.7
					L61.6,5.6z"/>
				<g id="Group_36063" transform="translate(31.443 31.443)">
					<path id="Path_5055" class="st3" d="M7.2,0.3c5.1-1.3,10.2,1.9,11.5,7c1.3,5.1-1.9,10.2-7,11.5s-10.2-1.9-11.5-7
						C-0.9,7.2,1.5,2.5,5.9,0.7C6.3,0.5,6.8,0.4,7.2,0.3z M11.2,16.3c3.7-0.9,6-4.7,5.1-8.4c-0.1-0.3-0.2-0.7-0.3-1
						C14.5,3.3,10.4,1.6,6.8,3c0,0,0,0,0,0l0,0C3.3,4.5,1.6,8.6,3,12.1C4.3,15.3,7.8,17.1,11.2,16.3L11.2,16.3z"/>
				</g>
				<path id="Path_5056" class="st3" d="M35.1,18.2c0.8-0.2,1.6-0.3,2.4-0.5c1.6-0.2,3.2-0.3,4.8-0.2l0.2,0c0.5,0,1,0.4,1.1,0.9
					c0.2,0.7-0.2,1.4-0.9,1.5c-0.1,0-0.3,0-0.4,0c-1.5-0.1-3-0.1-4.5,0.2l0,0l-0.2,0c-3.5,0.5-6.7,1.9-9.5,4c-1.5,1.2-2.9,2.5-4,4
					l0,0l-0.1,0.1c-3.4,4.5-4.8,10.1-4,15.6c0.1,0.7,0.2,1.4,0.4,2.1c2.8,11.3,14.2,18.2,25.6,15.4C56.4,59,63.3,48.8,61.7,38.1
					c-0.5-3.8-2.1-7.3-4.5-10.3c-0.4-0.5-0.4-1.3,0.2-1.8c0.5-0.4,1.3-0.4,1.8,0.2c8.2,10.1,6.6,25-3.5,33.2
					c-10.1,8.2-25,6.6-33.2-3.5c-2.2-2.7-3.7-5.8-4.6-9.1c-0.2-0.8-0.3-1.6-0.5-2.4C15.8,32.4,23.4,21.1,35.1,18.2z"/>
			</g>
		</g>
	</g>
	<g id="Group_36068" transform="translate(465.61 560.29)">
		
			<linearGradient id="Path_5057_00000090280104522129129960000005632201546610659720_" gradientUnits="userSpaceOnUse" x1="118.855" y1="311.044" x2="117.986" y2="310.075" gradientTransform="matrix(196.6819 0 0 -370.6213 -22838.6484 115271.7812)">
			<stop  offset="0" style="stop-color:#4F52FF"/>
			<stop  offset="1" style="stop-color:#4042E2"/>
		</linearGradient>
		<path id="Path_5057" style="fill:url(#Path_5057_00000090280104522129129960000005632201546610659720_);" d="M337.2,332.8
			l100.4-192.3H417c-2.5,0-4.5-2-4.5-4.5c0-1,0.4-2,1-2.8l107-130.4c2.6-3.2,7.4-3.7,10.6-1c1.9,1.5,2.9,3.9,2.7,6.3l-7.5,127.5
			c-0.4,7-6.4,12.4-13.5,12c-0.2,0-0.5,0-0.7-0.1l-14.3-1.6l-99.6,215.7c-2.6,5.6-8.2,9.2-14.4,9.2h-34.5L337.2,332.8z"/>
		
			<linearGradient id="Path_5058_00000071529690803002622250000017817903905607655335_" gradientUnits="userSpaceOnUse" x1="118.5389" y1="310.2364" x2="117.6869" y2="311.1684" gradientTransform="matrix(144.0441 0 0 -199.8899 -16687.2598 62394.543)">
			<stop  offset="0" style="stop-color:#4F52FF"/>
			<stop  offset="1" style="stop-color:#4042E2"/>
		</linearGradient>
		<path id="Path_5058" style="fill:url(#Path_5058_00000071529690803002622250000017817903905607655335_);" d="M254.2,197.9
			L325,355.3c4.2,9.3,13.5,15.3,23.7,15.3h36.5c4.8,0,9.3-2.6,11.7-6.9l1.3-2.3l0,0c-3.9,0-7.5-2.2-9.3-5.7l-94.4-185L254.2,197.9z"
			/>
		
			<linearGradient id="Path_5059_00000059990252571018614600000013994202955330816419_" gradientUnits="userSpaceOnUse" x1="118.745" y1="311.2684" x2="117.899" y2="310.2804" gradientTransform="matrix(190.7371 0 0 -217.1355 -22358.4004 67734.6406)">
			<stop  offset="0" style="stop-color:#4F52FF"/>
			<stop  offset="1" style="stop-color:#4042E2"/>
		</linearGradient>
		<path id="Path_5059" style="fill:url(#Path_5059_00000059990252571018614600000013994202955330816419_);" d="M304,189.4L304,189.4
			c-6.7-5.3-16.5-4.2-21.8,2.6c-0.3,0.3-0.5,0.7-0.7,1L177.4,349.5c-8.3,12.5-22.4,20.1-37.5,20.1h-14.7l-11.9-34.4
			c0,0,96.9-148.5,121.8-171c0,0,24.9-22.4,49.4-5.5c6.4,4.5,11.4,10.8,14.4,18.1L304,189.4z"/>
		
			<linearGradient id="Path_5060_00000170261252075233613650000011738917272388346248_" gradientUnits="userSpaceOnUse" x1="118.3381" y1="310.8536" x2="117.6091" y2="311.8976" gradientTransform="matrix(177.364 0 0 -153.5239 -20887.8203 48035.043)">
			<stop  offset="0" style="stop-color:#4F52FF"/>
			<stop  offset="1" style="stop-color:#4042E2"/>
		</linearGradient>
		<path id="Path_5060" style="fill:url(#Path_5060_00000170261252075233613650000011738917272388346248_);" d="M0,242.8
			c0,0,17.4-21.8,51.2-25.2c0,0,16,5.5,48,62.8s53.2,83.4,78.1,69.2l-2.1,3.4c-6.8,11.3-19,18.2-32.2,18.2h-13.8
			c-15.2,0-28.3-23.4-37.2-35.7C67.3,300.9,15.3,248.2,0,242.8z"/>
		<path id="Path_5061" class="st3" d="M521.8,48.3c0,0-0.1,0-0.1,0c-0.5-0.1-0.9-0.5-0.9-1.1l0.7-6.2c0-0.5,0.5-0.9,1-0.9
			c0.5,0,0.9,0.5,0.9,1c0,0,0,0,0,0.1l-0.7,6.2C522.7,47.9,522.3,48.3,521.8,48.3z"/>
		<path id="Path_5062" class="st3" d="M432.5,126.9c-0.5,0-1-0.4-1-1c0-0.2,0.1-0.4,0.2-0.6L520,10.5c1.2-1.6,3.5-1.9,5.2-0.7
			c1,0.8,1.6,2,1.4,3.3L525,27c0,0.5-0.5,0.9-1,0.9c-0.5,0-0.9-0.5-0.9-1c0,0,0,0,0-0.1l1.6-13.8c0.1-1-0.6-1.8-1.5-1.9
			c-0.6-0.1-1.2,0.2-1.6,0.7l-88.3,114.8C433,126.7,432.8,126.9,432.5,126.9z"/>
		<path id="Path_5063" class="st3" d="M232.1,247.2c-0.5,0-1-0.4-1-1c0-0.2,0.1-0.4,0.2-0.5L277,178c2.5-3.7,7.5-4.6,11.1-2.2
			c1.2,0.8,2.1,1.9,2.8,3.2c0.2,0.5,0.1,1.1-0.4,1.3c-0.5,0.2-1.1,0.1-1.3-0.4c0,0,0,0,0-0.1c-1.4-3-5.1-4.3-8.1-2.9
			c-1,0.5-1.8,1.2-2.4,2.1l-45.7,67.7C232.7,247,232.4,247.2,232.1,247.2z"/>
		<g id="Group_36067" transform="translate(219.236 258.52)">
			<path id="Path_5064" class="st8" d="M1,6.3c-0.5,0-1-0.4-1-1c0-0.2,0.1-0.4,0.2-0.5l2.9-4.3C3.4,0,4-0.1,4.4,0.2
				C4.9,0.5,5,1.1,4.7,1.5L1.8,5.8C1.6,6.1,1.3,6.3,1,6.3z"/>
		</g>
	</g>
	<g id="Group_36073" transform="translate(623.212 612.809)">
		
			<linearGradient id="Path_5065_00000154406381142357856780000013982731042888047545_" gradientUnits="userSpaceOnUse" x1="-40.9538" y1="264.2823" x2="-43.7888" y2="257.7863" gradientTransform="matrix(43.571 0 0 -20.6868 1902.0122 5804.2671)">
			<stop  offset="0" style="stop-color:#09005D"/>
			<stop  offset="1" style="stop-color:#1A0F91"/>
		</linearGradient>
		<path id="Path_5065" style="fill:url(#Path_5065_00000154406381142357856780000013982731042888047545_);" d="M78.6,347.1
			c0,0-1.3,7.2-1.9,14.4c-0.2,2.7,1.8,5.1,4.5,5.3c0.1,0,0.1,0,0.2,0c9.5,0.4,30,1.2,37.3,0.8c0.9,0,1.6-0.8,1.5-1.7
			c0-0.2,0-0.4-0.1-0.5l0,0c-0.3-0.9-1-1.6-1.8-1.9l-33.7-15.5L78.6,347.1z"/>
		
			<linearGradient id="Path_5066_00000116933492115198634170000010717395402783807632_" gradientUnits="userSpaceOnUse" x1="-50.0068" y1="268.1152" x2="-49.0068" y2="268.1152" gradientTransform="matrix(10.974 0 0 -11.1279 626.2923 3330.6631)">
			<stop  offset="0" style="stop-color:#FEBBBA"/>
			<stop  offset="1" style="stop-color:#FF928E"/>
		</linearGradient>
		<path id="Path_5066" style="fill:url(#Path_5066_00000116933492115198634170000010717395402783807632_);" d="M77.5,342.9l1,8.7
			c0,0,5.9,2.8,9.9-0.3l-2.4-9.7L77.5,342.9z"/>
		
			<linearGradient id="Path_5067_00000133502989906673529040000002004290796750789567_" gradientUnits="userSpaceOnUse" x1="-42.4425" y1="258.3881" x2="-41.4425" y2="258.3881" gradientTransform="matrix(36.2859 0 0 -166.4055 1591.5594 43260.3906)">
			<stop  offset="0" style="stop-color:#09005D"/>
			<stop  offset="1" style="stop-color:#1A0F91"/>
		</linearGradient>
		<path id="Path_5067" style="fill:url(#Path_5067_00000133502989906673529040000002004290796750789567_);" d="M78.3,180
			c-0.4,2.3-2.4,112.9,9.4,162.5c0.2,0.8-0.2,1.6-1,2c-3.1,1.2-6.3,1.9-9.6,2c-1.3,0-2.5-0.8-2.9-2.1
			c-3.4-11.5-19.6-69.1-21.7-124.2c-2.4-61.5,0-2.1,0-2.1l1.4-38L78.3,180z"/>
		
			<linearGradient id="Path_5068_00000110466251908254531530000015068182941857717427_" gradientUnits="userSpaceOnUse" x1="-42.8425" y1="266.9807" x2="-49.8605" y2="259.3737" gradientTransform="matrix(17.6047 0 0 -17.665 844.1407 5027.8589)">
			<stop  offset="0" style="stop-color:#09005D"/>
			<stop  offset="1" style="stop-color:#1A0F91"/>
		</linearGradient>
		<path id="Path_5068" style="fill:url(#Path_5068_00000110466251908254531530000015068182941857717427_);" d="M39.8,350.9
			c0,0-2,3.7-4,13.4c-0.3,1.6,0.7,3.2,2.3,3.6c0.1,0,0.2,0,0.3,0c3.2,0.3,8,0.7,11.9,0.7c1.7,0,3-1.3,3-3c0-0.1,0-0.2,0-0.3
			c-0.4-3.5-1.8-9.4-5.9-13.9L39.8,350.9z"/>
		
			<linearGradient id="Path_5069_00000122697470140541317590000014986187775726393779_" gradientUnits="userSpaceOnUse" x1="-51.725" y1="265.655" x2="-50.725" y2="265.655" gradientTransform="matrix(9.473 0 0 -14.5654 527.9577 4215.9097)">
			<stop  offset="0" style="stop-color:#FEBBBA"/>
			<stop  offset="1" style="stop-color:#FF928E"/>
		</linearGradient>
		<path id="Path_5069" style="fill:url(#Path_5069_00000122697470140541317590000014986187775726393779_);" d="M38,339.8l2.4,13.1
			c0,0,2.4,1.8,7.1,0.5l-1.1-14.1L38,339.8z"/>
		
			<linearGradient id="Path_5070_00000047755026815056923240000009612022822506756010_" gradientUnits="userSpaceOnUse" x1="-41.4732" y1="258.3755" x2="-40.4732" y2="258.3755" gradientTransform="matrix(51.5099 0 0 -169.4756 2164.0378 44050.3359)">
			<stop  offset="0" style="stop-color:#09005D"/>
			<stop  offset="1" style="stop-color:#1A0F91"/>
		</linearGradient>
		<path id="Path_5070" style="fill:url(#Path_5070_00000047755026815056923240000009612022822506756010_);" d="M31.5,183.4
			c-9.7,58.4,2.1,144.3,6.1,161.1c0.2,1,1.1,1.8,2.1,2c2.5,0.4,5.1,0.3,7.6-0.3c1-0.3,1.7-1.2,1.7-2.2c0.5-13.6-0.4-97,8.6-130
			c0.5-1.7,1.5-3.1,2.9-4.1l17.5-12.4l1.3-20.1L31.5,183.4z"/>
		<g id="Group_36069" transform="translate(27.869 27.89)">
			<path id="Path_5071" class="st15" d="M65.2,44.9c-29-0.5-61,7.6-61,7.6c-8.6,50.4-1.5,108.6-1.5,108.6
				c22.4,5.9,47.8-3.6,47.8-3.6c3.7-21.1,21.1-80.4,21.1-80.4c12.4-1.4,24.5-5.2,35.4-11.2c-7.3-8.5-10.8-19.3-12.3-25.7
				C84.6,43.3,74.2,45,65.2,44.9z"/>
			
				<linearGradient id="Path_5072_00000091726638574267157830000015872041171115410076_" gradientUnits="userSpaceOnUse" x1="-69.1546" y1="231.5626" x2="-68.1546" y2="231.5626" gradientTransform="matrix(56.061 0 0 -65.8485 3971.6853 15280.9756)">
				<stop  offset="0" style="stop-color:#FEBBBA"/>
				<stop  offset="1" style="stop-color:#FF928E"/>
			</linearGradient>
			<path id="Path_5072" style="fill:url(#Path_5072_00000091726638574267157830000015872041171115410076_);" d="M150.9,2.2
				c-1.5-2-4.1-2.7-6.5-1.8c-4.3,18-26.6,32.6-49.6,39.8c1.5,6.4,5,17.2,12.3,25.7C145.2,44.4,150.9,2.2,150.9,2.2z"/>
		</g>
		<g id="Group_36070" transform="translate(172.283)">
			
				<linearGradient id="Path_5073_00000068675343577826114900000011555380239843898017_" gradientUnits="userSpaceOnUse" x1="-194.4754" y1="230.8924" x2="-192.4744" y2="228.2194" gradientTransform="matrix(18.8 0 0 -32.0266 4094.1941 8384.9824)">
				<stop  offset="0" style="stop-color:#FEBBBA"/>
				<stop  offset="1" style="stop-color:#FF928E"/>
			</linearGradient>
			<path id="Path_5073" style="fill:url(#Path_5073_00000068675343577826114900000011555380239843898017_);" d="M5.8,31
				c0.3,0.9-3.2,2.4-5.2-1.5c-0.1-1.9-1.2-9.8-0.1-11.3C6.4,10.1,17.8,0,17.8,0c1.1,1,1.3,2.6,0.3,3.8l-5.6,5.8
				c1.2,2.1,2.6,3.9,3.2,6.4c0.5,1.9,0.2,4-0.8,5.7c-1,1.8-2.3,4-3.6,5.8C10.2,29.5,8.1,30.8,5.8,31z"/>
			
				<linearGradient id="Path_5074_00000180332761771711337950000014090804320566995892_" gradientUnits="userSpaceOnUse" x1="-226.4177" y1="266.0298" x2="-224.3987" y2="267.8078" gradientTransform="matrix(7.7725 0 0 -13.576 1766.0076 3634.5466)">
				<stop  offset="0" style="stop-color:#FEBBBA"/>
				<stop  offset="1" style="stop-color:#FF928E"/>
			</linearGradient>
			<path id="Path_5074" style="fill:url(#Path_5074_00000180332761771711337950000014090804320566995892_);" d="M10.2,13.3l-5.1,4.3
				l-1.6,4.3l4.5,5c0,0,1.5-8.5,2.6-10.3S11.3,13.9,10.2,13.3z"/>
		</g>
		<path id="Path_5075" class="st15" d="M43.3,108.5L32.1,80.4c0,0-27.1,18.4-31.5,41.7c8.2,0.6,16.2,2.7,23.5,6.3
			C26.2,117.4,43.3,108.5,43.3,108.5z"/>
		
			<linearGradient id="Path_5076_00000100347013557041756710000010010385755349247165_" gradientUnits="userSpaceOnUse" x1="-40.8401" y1="260.8937" x2="-39.8401" y2="260.8937" gradientTransform="matrix(70.9525 0 0 -36.2186 2897.7051 9589.4365)">
			<stop  offset="0" style="stop-color:#FEBBBA"/>
			<stop  offset="1" style="stop-color:#FF928E"/>
		</linearGradient>
		<path id="Path_5076" style="fill:url(#Path_5076_00000100347013557041756710000010010385755349247165_);" d="M66.9,134.9
			c0,0-30.4,17.2-40.7,2.5c-1.9-2.6-2.7-5.8-2.1-9c-7.4-3.6-15.4-5.7-23.5-6.3c-1.5,7.5-0.3,15.4,3.5,22.1
			c18,32.9,66.8-1.8,66.8-1.8L66.9,134.9z"/>
		<g id="Group_36071" transform="translate(63.204 88.226)">
			
				<linearGradient id="Path_5077_00000040560798527928098560000007594981656269428881_" gradientUnits="userSpaceOnUse" x1="-103.5484" y1="171.8042" x2="-103.0354" y2="169.3142" gradientTransform="matrix(75.9998 0 0 -65.2738 7898.8662 11215.8887)">
				<stop  offset="0" style="stop-color:#09005D"/>
				<stop  offset="1" style="stop-color:#1A0F91"/>
			</linearGradient>
			<path id="Path_5077" style="fill:url(#Path_5077_00000040560798527928098560000007594981656269428881_);" d="M0.1,68.4l16.6-57.9
				c0.2-0.7,0.8-1.1,1.4-1.2c3-0.4,11.7-1.3,21.8-2.2C52,6,66,5.2,74.4,5.9C75.4,6,76.1,6.8,76,7.7c0,0.2-0.1,0.4-0.2,0.6
				C71,18,51.4,57.3,41.5,70.2c-0.3,0.4-0.8,0.7-1.4,0.7L1.7,70.5c-0.9,0-1.7-0.8-1.7-1.7C0,68.7,0,68.5,0.1,68.4z"/>
			
				<linearGradient id="Path_5078_00000045601179654271355860000011728211589008661432_" gradientUnits="userSpaceOnUse" x1="-109.2715" y1="189.1026" x2="-111.1235" y2="182.7646" gradientTransform="matrix(14.4935 0 0 -6.8807 1642.7767 1285.4883)">
				<stop  offset="0" style="stop-color:#4F52FF"/>
				<stop  offset="1" style="stop-color:#4042E2"/>
			</linearGradient>
			<path id="Path_5078" style="fill:url(#Path_5078_00000045601179654271355860000011728211589008661432_);" d="M41.6,2l12-2
				c0.5-0.1,0.9,0.2,1,0.7c0,0.1,0,0.3,0,0.4l-1.2,3.6c-0.1,0.3-0.4,0.5-0.7,0.6L41.1,6.9c-0.5,0.1-0.9-0.3-1-0.7c0-0.1,0-0.2,0-0.3
				l0.7-3.2C41,2.3,41.2,2.1,41.6,2z"/>
			
				<linearGradient id="Path_5079_00000035500053547947416440000004772053238435429552_" gradientUnits="userSpaceOnUse" x1="-105.4268" y1="184.3491" x2="-106.3968" y2="179.9941" gradientTransform="matrix(27.6727 0 0 -10.0188 2984.3225 1822.4497)">
				<stop  offset="0" style="stop-color:#4F52FF"/>
				<stop  offset="1" style="stop-color:#4042E2"/>
			</linearGradient>
			<path id="Path_5079" style="fill:url(#Path_5079_00000035500053547947416440000004772053238435429552_);" d="M32.6,12.2l1-5.2
				c0.1-0.5,0.5-0.9,1.1-1l24.3-2.5c0.7-0.1,1.2,0.4,1.3,1.1c0,0.1,0,0.3,0,0.4l-1.5,6.4c-0.1,0.5-0.6,0.9-1.1,0.9l-23.7,1.2
				c-0.7,0-1.2-0.5-1.3-1.1C32.5,12.4,32.6,12.3,32.6,12.2z"/>
			
				<linearGradient id="Path_5080_00000151517875265157875030000004311129125732227746_" gradientUnits="userSpaceOnUse" x1="-107.751" y1="175.3051" x2="-106.751" y2="175.3051" gradientTransform="matrix(22.1025 0 0 -19.8625 2384.0442 3526.564)">
				<stop  offset="0" style="stop-color:#FEBBBA"/>
				<stop  offset="1" style="stop-color:#FF928E"/>
			</linearGradient>
			<path id="Path_5080" style="fill:url(#Path_5080_00000151517875265157875030000004311129125732227746_);" d="M4.1,54.4
				c0,0-2.3-9.5-1.4-12.9s2.7-7.7,8.8-6.7c4.5,0.8,8.8,2,13.1,3.5c0,0-0.4,4.4-4.9,3l2.8,2.2c0,0-0.4,3.5-4.3,1.6l2.6,2.9
				c-0.8,1.5-2.7,2.1-4.2,1.2c-0.1-0.1-0.2-0.1-0.3-0.2C13.5,47.2,12.1,55.5,4.1,54.4z"/>
		</g>
		
			<linearGradient id="Path_5081_00000075138102242903134810000011823461966122093216_" gradientUnits="userSpaceOnUse" x1="-43.7294" y1="260.0191" x2="-42.7424" y2="261.7211" gradientTransform="matrix(28.0503 0 0 -30.255 1272.0083 7976.8184)">
			<stop  offset="0" style="stop-color:#FEBBBA"/>
			<stop  offset="1" style="stop-color:#FF928E"/>
		</linearGradient>
		<path id="Path_5081" style="fill:url(#Path_5081_00000075138102242903134810000011823461966122093216_);" d="M63.8,49.2l-9.2,26.7
			c-0.2,0.4,0,0.9,0.4,1.2c2.5,1.4,11.6,5.4,22.5-1.5c1.1-0.7,1.9-1.9,2.1-3.2l3-23.1H63.8z"/>
		<g id="Group_36072" transform="translate(48.885 7.223)">
			
				<linearGradient id="Path_5082_00000015333099405468856050000015388978287071014334_" gradientUnits="userSpaceOnUse" x1="-91.666" y1="252.5334" x2="-92.738" y2="251.2514" gradientTransform="matrix(35.026 0 0 -38.7618 3212.7529 9856.0498)">
				<stop  offset="0" style="stop-color:#FEBBBA"/>
				<stop  offset="1" style="stop-color:#FF928E"/>
			</linearGradient>
			<path id="Path_5082" style="fill:url(#Path_5082_00000015333099405468856050000015388978287071014334_);" d="M29.6,13.2
				c0.4,0.3,15.2,29.5,15.2,29.5L28,50.8L9.8,25.3C9.8,25.3,23.6,7.5,29.6,13.2z"/>
			
				<linearGradient id="Path_5083_00000008128771807062287110000001980025222298554517_" gradientUnits="userSpaceOnUse" x1="-94.3876" y1="252.4502" x2="-93.4806" y2="252.4502" gradientTransform="matrix(49.4869 0 0 -58.5197 4476.2222 14802.5605)">
				<stop  offset="0" style="stop-color:#09005D"/>
				<stop  offset="1" style="stop-color:#1A0F91"/>
			</linearGradient>
			<path id="Path_5083" style="fill:url(#Path_5083_00000008128771807062287110000001980025222298554517_);" d="M17.2,26
				c-0.3,0.8-0.2,1.6,0.2,2.4l8.4,14c0.1,0.2,0.3,0.4,0.5,0.6c1,0.9,4.4,3.6,7.1,0c2.3-3.1,4.4-6,6.6-7.2c1.3-0.7,2.9-0.2,3.6,1.2
				c0,0,0,0,0,0c2.2,4.4,4.2,9,5.7,13.6c0.4,1.3-0.3,2.8-1.6,3.3c-5.2,2.2-10.6,3.7-16.1,4.7c-1,0.1-2-0.3-2.5-1.1
				c-2.6-3.5-9.8-13.4-12.3-15.8c-2.3-2.3-6.5-1.4-8.5-0.9c-0.7,0.2-1.5,0.1-2.1-0.3c-1.9-1.2-5.3-4.1-2.2-9
				c0.8-1.2,0.4-2.9-0.8-3.7c-2.2-1.4-4.5-4.1-2.3-8.4c2.3-4.4,6.3-4.8,9.1-4.4c1.2,0.2,2.4-0.5,2.9-1.6c0.2-0.6,0.8-1,1.4-1.1
				c1.4-0.2,2.4-1.6,2.1-3c0,0,0,0,0,0c-0.5-2.5-0.1-5.7,3.8-7.9c7.3-4,13.6,2.5,15.2,8s-6.5,9.4-11.6,10
				C20.1,19.7,18.1,23.8,17.2,26z"/>
			
				<linearGradient id="Path_5084_00000178916654684541065700000000398809224750975384_" gradientUnits="userSpaceOnUse" x1="-98.3308" y1="259.5383" x2="-95.7578" y2="261.5793" gradientTransform="matrix(12.2583 0 0 -11.6698 1206.0591 3082.3535)">
				<stop  offset="0" style="stop-color:#FEBBBA"/>
				<stop  offset="1" style="stop-color:#FF928E"/>
			</linearGradient>
			<path id="Path_5084" style="fill:url(#Path_5084_00000178916654684541065700000000398809224750975384_);" d="M20,46.7
				c0,0-3.2-9.5-7.4-9.1s-7.4,4.5-2.3,9.1C16.7,52.5,20,46.7,20,46.7z"/>
		</g>
	</g>
	
		<linearGradient id="Path_5085_00000029733368406177783740000006455292762821542017_" gradientUnits="userSpaceOnUse" x1="576.3253" y1="883.0617" x2="576.6893" y2="882.4187" gradientTransform="matrix(61.4724 0 0 -87.2139 -35224.2812 76730.3984)">
		<stop  offset="0" style="stop-color:#09005D"/>
		<stop  offset="1" style="stop-color:#1A0F91"/>
	</linearGradient>
	<path id="Path_5085" style="fill:url(#Path_5085_00000029733368406177783740000006455292762821542017_);" d="M609.1,651.1
		c0,0-7.5,3.7-8.9,7.9c-1.1,3.4-9.4,3.8-10.3,10.5c-0.4,3.4-3,6.2-6.4,6.7c-8.5,1.3-21.6,5.7-23.7,20.5c-1.6,11.3,4.1,15.5,10.2,17
		c4.5,1,7.3,5.4,6.5,9.9c-0.9,4.3,0.4,9.2,7.9,13.2c16.7,8.8,33.3-20.8,33.3-20.8l3.4-51.7L609.1,651.1z"/>
	
		<linearGradient id="Path_5086_00000170250167403619259650000015225540368175462319_" gradientUnits="userSpaceOnUse" x1="598.3298" y1="930.3057" x2="600.3839" y2="935.6978" gradientTransform="matrix(18.9471 0 0 -15.864 -10425.2725 14905.4082)">
		<stop  offset="0" style="stop-color:#09005D"/>
		<stop  offset="1" style="stop-color:#1A0F91"/>
	</linearGradient>
	<path id="Path_5086" style="fill:url(#Path_5086_00000170250167403619259650000015225540368175462319_);" d="M540.7,975.2l-1.1,8.9
		c-0.2,1.7-1.5,3-3.2,3.2c-3.9,0.5-7.9,0.5-11.9,0.2c-1.7-0.2-3-1.7-2.8-3.5c0-0.2,0.1-0.4,0.1-0.6c1.1-3.4,3.1-8.6,5.9-11.6h9.8
		c1.7,0,3,1.4,3,3C540.7,975,540.7,975.1,540.7,975.2z"/>
	
		<linearGradient id="Path_5087_00000091734893291755877720000016553308386068894634_" gradientUnits="userSpaceOnUse" x1="572.662" y1="851.5403" x2="573.697" y2="854.3293" gradientTransform="matrix(26.3506 0 0 -114.2371 -14672.3486 100487.9531)">
		<stop  offset="0" style="stop-color:#FEBBBA"/>
		<stop  offset="1" style="stop-color:#FF928E"/>
	</linearGradient>
	<path id="Path_5087" style="fill:url(#Path_5087_00000091734893291755877720000016553308386068894634_);" d="M617.7,871.5l1.7,9.8
		c0,0-5.6,56.3-6.5,78.8c-0.2,3.5,0.8,7,2.6,10l9.7,15.7l-24.5-14.5l-0.5-3l4-5.5l-5.3-63c-0.3-3.7,0.5-7.4,2.2-10.7l5.1-9.5
		L617.7,871.5z"/>
	
		<linearGradient id="Path_5088_00000103964543977181968130000006511181607112873126_" gradientUnits="userSpaceOnUse" x1="593.7923" y1="913.3789" x2="595.0623" y2="917.054" gradientTransform="matrix(30.6412 0 0 -23.2878 -17178.9199 21364.4023)">
		<stop  offset="0" style="stop-color:#09005D"/>
		<stop  offset="1" style="stop-color:#1A0F91"/>
	</linearGradient>
	<path id="Path_5088" style="fill:url(#Path_5088_00000103964543977181968130000006511181607112873126_);" d="M626.7,988h-7.8
		c-1.5,0-2.8-0.7-3.7-1.8c-2.4-3.2-7.5-9.4-9.9-9.5c-3.3-0.2-2.8,11.4-2.8,11.4h-1.8l-2.3-14.4c-0.6-3.6,1.2-7.2,4.5-8.9l0,0
		c0,0,0.7,5.5,4.8,7.9s16.4,11.2,16.4,11.2c1.1-0.1,2.1-0.1,3.2,0.1c1.1,0.2,1.9,1.3,1.6,2.4C628.5,987.3,627.6,988,626.7,988z"/>
	
		<linearGradient id="Path_5089_00000079446517660787027650000017773559129103895974_" gradientUnits="userSpaceOnUse" x1="581.7346" y1="866.6097" x2="582.1976" y2="869.5007" gradientTransform="matrix(58.8341 0 0 -110.2493 -33717.8086 97015.1641)">
		<stop  offset="0" style="stop-color:#FEBBBA"/>
		<stop  offset="1" style="stop-color:#FF928E"/>
	</linearGradient>
	<path id="Path_5089" style="fill:url(#Path_5089_00000079446517660787027650000017773559129103895974_);" d="M584,876.1
		c0,0-32.5,61.7-37.7,75.8c-3.3,8.7-5.6,17.8-7.1,27c-0.1,1.7-2.3,3.4-8.2,3.4c-3.1,0-4.6-1.2-5.3-2.4c-0.6-1-0.7-2.3-0.1-3.4
		c1.9-3.8,7.9-16,10.1-21.5c2.6-6.6,8.3-36.5,11.4-46.9s6.6-21.7,20.2-32C567.3,876.1,576.6,867,584,876.1z"/>
	
		<linearGradient id="Path_5090_00000016041266847394487320000001216386199436843700_" gradientUnits="userSpaceOnUse" x1="581.871" y1="871.5962" x2="582.837" y2="872.0982" gradientTransform="matrix(58.6541 0 0 -79.4539 -33546.1289 70020.8438)">
		<stop  offset="0" style="stop-color:#09005D"/>
		<stop  offset="1" style="stop-color:#1A0F91"/>
	</linearGradient>
	<path id="Path_5090" style="fill:url(#Path_5090_00000016041266847394487320000001216386199436843700_);" d="M604.6,775
		c8.4-35.6-12.9-55.7-12.9-55.7c13.4-12.9,37.9-18.7,37.9-18.7s23.3,17.1,20.6,30.4c-1.6,7.8-16.4,46.9-16.4,46.9
		S620.1,784.3,604.6,775z"/>
	<path id="Path_5091" class="st15" d="M586,792.6c3.4-10.3,18.6-17.6,18.6-17.6c15.5,9.3,29.2,2.8,29.2,2.8s3.1,11.7,0.9,22.6
		s-15.4,80.8-15.4,80.8c-20.9,4.2-53.1-4.3-53.1-4.3C579.6,853.3,582.6,802.9,586,792.6z"/>
	
		<linearGradient id="Path_5092_00000178907788000226134860000004323085918225952956_" gradientUnits="userSpaceOnUse" x1="578.5634" y1="872.9667" x2="578.6914" y2="874.2467" gradientTransform="matrix(20.1202 0 0 -35.7068 -11024.8096 31890.7148)">
		<stop  offset="0" style="stop-color:#FEBBBA"/>
		<stop  offset="1" style="stop-color:#FF928E"/>
	</linearGradient>
	<path id="Path_5092" style="fill:url(#Path_5092_00000178907788000226134860000004323085918225952956_);" d="M614.3,677l-6.8,30.7
		c-0.7,2.7,1.8,2.3,4.5,1.7c4.5-0.8,10.2-2.6,12.2-6.1c0.2-0.4,0.3-0.8,0.3-1.2l2.9-21.3c0.2-1.7-0.7-3.3-2.2-4l-5.7-2.5
		c-1.9-0.9-4.2,0-5,1.9C614.5,676.6,614.4,676.8,614.3,677z"/>
	
		<linearGradient id="Path_5093_00000085928945313852126650000008161904459183581346_" gradientUnits="userSpaceOnUse" x1="537.2617" y1="871.9725" x2="538.2617" y2="871.9725" gradientTransform="matrix(34.0258 0 0 -78.7789 -19185.1309 69451.7188)">
		<stop  offset="0" style="stop-color:#FEBBBA"/>
		<stop  offset="1" style="stop-color:#FF928E"/>
	</linearGradient>
	<path id="Path_5093" style="fill:url(#Path_5093_00000085928945313852126650000008161904459183581346_);" d="M591.7,719.3
		c0,0-47.6,34.1-6.1,69.9c1.3,1.3,2.9,2.2,4.7,2.7c1.6,0.5,6.2,4,8.6,5.8c0.7,0.5,1.7,0.4,2.3-0.3c0,0,0.1-0.1,0.1-0.1l0,0
		c0.4-0.6,0.4-1.4,0.1-2.1l-5.9-12.5c-1.6-1.5-4.1-1.6-5.9-0.3l0,0c-1,0.8-2.4,0.6-3.2-0.4c-0.1-0.1-0.2-0.3-0.2-0.4
		c-3.2-6.5-9.3-25.8,15.5-47.5c0.9-0.8,1.2-2.2,0.6-3.3C600.6,727.5,596.6,720.9,591.7,719.3z"/>
	<g id="Group_36074" transform="translate(600.813 637.261)">
		
			<linearGradient id="Path_5094_00000175301959834639676120000010685010733852474252_" gradientUnits="userSpaceOnUse" x1="-34.5246" y1="215.5822" x2="-32.9916" y2="217.8352" gradientTransform="matrix(29.146 0 0 -35.2891 616.3881 8375.1553)">
			<stop  offset="0" style="stop-color:#FEBBBA"/>
			<stop  offset="1" style="stop-color:#FF928E"/>
		</linearGradient>
		<path id="Path_5094" style="fill:url(#Path_5094_00000175301959834639676120000010685010733852474252_);" d="M26.6,11.8
			c0,0,7.3,4.9,10.4,17.4s-2,17-7.2,16.7s-12.7-1.9-19.3-10.9S17.1,5.8,26.6,11.8z"/>
		
			<linearGradient id="Path_5095_00000008130088213682620470000011959148056391661991_" gradientUnits="userSpaceOnUse" x1="-29.4323" y1="257.9522" x2="-28.8013" y2="256.5492" gradientTransform="matrix(35.4102 0 0 -39.9537 712.6158 9454.749)">
			<stop  offset="0" style="stop-color:#09005D"/>
			<stop  offset="1" style="stop-color:#1A0F91"/>
		</linearGradient>
		<path id="Path_5095" style="fill:url(#Path_5095_00000008130088213682620470000011959148056391661991_);" d="M17.1,30.1
			c0,0-2.7-17.9,12.2-15.2l3,3.1c0,0,7.3-8.2-0.8-14.4S12.3-1,6.1,10.3s-8.4,19.2-3.3,26.3s9.1,1,9.1,1s-2.4-6.1-0.4-8.7
			s4.5,1.5,4.5,1.5L17.1,30.1z"/>
		
			<linearGradient id="Path_5096_00000127043623302936685470000011863113821198672566_" gradientUnits="userSpaceOnUse" x1="-101.9459" y1="157.0864" x2="-96.1529" y2="164.2274" gradientTransform="matrix(7.7146 0 0 -11.1367 255.7098 2743.637)">
			<stop  offset="0" style="stop-color:#FEBBBA"/>
			<stop  offset="1" style="stop-color:#FF928E"/>
		</linearGradient>
		<path id="Path_5096" style="fill:url(#Path_5096_00000127043623302936685470000011863113821198672566_);" d="M15.1,31.6
			c0,0-1.3-9.2-6-6.6s1.7,8.6,4.3,10.7L15.1,31.6z"/>
	</g>
	<g id="Group_36076" transform="translate(722.978 536.085)">
		<path id="Path_5097" class="st3" d="M1.5,23.8C13.1-7,76.6-11.9,85.1,33.3C92.7,74.5,9.2,87.9,9.2,87.9
			C53,64.9-10.2,54.6,1.5,23.8z"/>
		<g id="Group_36075" transform="translate(11.86 29.054)">
			<path id="Path_5098" class="st8" d="M60.8,1.7L23,1.2c-0.3,0-0.5-0.2-0.5-0.5s0.2-0.5,0.5-0.5l37.8,0.4c0.3,0,0.5,0.2,0.5,0.5
				S61.1,1.7,60.8,1.7z"/>
			<path id="Path_5099" class="st8" d="M11.7,1.1L0.5,1C0.2,1,0,0.8,0,0.5S0.2,0,0.5,0l11.2,0.1c0.3,0,0.5,0.2,0.5,0.5
				S12,1.1,11.7,1.1z"/>
			<path id="Path_5100" class="st8" d="M62,9.3L47.8,9.2c-0.3,0-0.5-0.2-0.5-0.5c0-0.3,0.2-0.5,0.5-0.5L62,8.3
				c0.3,0,0.5,0.2,0.5,0.5C62.5,9.1,62.2,9.3,62,9.3z"/>
			<path id="Path_5101" class="st8" d="M26.9,8.9L1.7,8.7c-0.3,0-0.5-0.2-0.5-0.5s0.2-0.5,0.5-0.5l25.2,0.3c0.3,0,0.5,0.2,0.5,0.5
				S27.2,9,26.9,8.9z"/>
			<path id="Path_5102" class="st8" d="M63.2,17l-37.8-0.4c-0.3,0-0.5-0.2-0.5-0.5s0.2-0.5,0.5-0.5L63.2,16c0.3,0,0.5,0.2,0.5,0.5
				S63.4,17,63.2,17z"/>
			<path id="Path_5103" class="st8" d="M16,16.5L2.9,16.3c-0.3,0-0.5-0.2-0.5-0.5s0.2-0.5,0.5-0.5L16,15.5c0.3,0,0.5,0.2,0.5,0.5
				S16.2,16.5,16,16.5z"/>
		</g>
	</g>
	<g id="Group_36079" transform="translate(843.165 707.682)">
		<g id="Group_36078" transform="translate(0 0)">
			
				<linearGradient id="Ellipse_405_00000031901030688159189050000010451524603991627709_" gradientUnits="userSpaceOnUse" x1="-259.3185" y1="163.4895" x2="-258.6486" y2="164.2675" gradientTransform="matrix(80.1732 -80.1732 -80.1732 -80.1732 33986.875 -7484.2554)">
				<stop  offset="0" style="stop-color:#E1473D"/>
				<stop  offset="1" style="stop-color:#E9605A"/>
			</linearGradient>
			
				<circle id="Ellipse_405" style="fill:url(#Ellipse_405_00000031901030688159189050000010451524603991627709_);" cx="80.2" cy="80.2" r="56.7"/>
			<circle id="Ellipse_406" class="st15" cx="80.2" cy="80.2" r="54.8"/>
			<path id="Path_5104" class="st40" d="M35,58.7c-0.7,0-1.3-0.6-1.3-1.3c0-0.2,0-0.4,0.1-0.6c8.8-17.5,26.7-28.6,46.3-28.5
				c3.1,0,6.3,0.3,9.4,0.8c0.7,0.1,1.1,0.8,1,1.5c-0.1,0.7-0.8,1.1-1.5,1c-2.9-0.5-5.9-0.8-8.9-0.8C61.5,30.8,44.5,41.3,36.1,58
				C35.9,58.4,35.5,58.7,35,58.7z"/>
			<circle id="Ellipse_407" class="st40" cx="81.4" cy="81.4" r="46.4"/>
			<g id="Group_36077" transform="translate(60.936 48.538)">
				<path id="Path_5105" class="st15" d="M15.9,67.3v-5C11,62.1,6.2,61,1.7,59.2c-1.3-0.6-2-2.1-1.6-3.4L1.4,51
					C1.8,49.5,3.4,48.6,5,49c0.1,0,0.3,0.1,0.4,0.1c4.1,1.8,8.6,2.7,13.1,2.8c5.1,0,8.8-1.7,8.8-5.2c0-3.2-2.9-5.1-10-7
					c-10-2.7-17.3-7.1-17.3-16c0-8,5.8-14.1,16-15.7v-5C16.1,1.3,17.4,0,19,0h3c1.6,0,2.9,1.3,2.9,2.9v4.5c3.8,0.1,7.6,0.8,11.2,2
					c1.4,0.5,2.2,2.1,1.8,3.5l-1.2,4.3c-0.4,1.6-2,2.5-3.6,2.1c-0.1,0-0.2-0.1-0.3-0.1c-3.5-1.3-7.2-2-11-2c-6,0-7.7,2.5-7.7,4.7
					c0,2.7,3.6,4.6,11.4,7c11.2,3.3,15.8,8,15.8,16.3c0,7.6-5.7,14.5-16.7,16.2v5.6c0,1.6-1.3,2.9-2.9,2.9h-3
					C17.2,70.3,15.9,68.9,15.9,67.3L15.9,67.3z"/>
			</g>
		</g>
		<path id="Rectangle_1753" class="st15" d="M28.3,151.6h103.8c2,0,3.6,1.6,3.6,3.6v13.9c0,2-1.6,3.6-3.6,3.6H28.3
			c-2,0-3.6-1.6-3.6-3.6v-13.9C24.6,153.2,26.3,151.6,28.3,151.6z"/>
		<path id="Rectangle_1754" class="st15" d="M28.4,176.7h103.8c2,0,3.6,1.6,3.6,3.6v13.9c0,2-1.6,3.6-3.6,3.6H28.4
			c-2,0-3.6-1.6-3.6-3.6v-13.9C24.7,178.3,26.3,176.7,28.4,176.7z"/>
		<path id="Rectangle_1755" class="st15" d="M28.4,201.8h103.8c2,0,3.6,1.6,3.6,3.6v13.9c0,2-1.6,3.6-3.6,3.6H28.4
			c-2,0-3.6-1.6-3.6-3.6v-13.9C24.8,203.4,26.4,201.8,28.4,201.8z"/>
		<path id="Rectangle_1756" class="st15" d="M28.5,226.9h103.8c2,0,3.6,1.6,3.6,3.6v13.9c0,2-1.6,3.6-3.6,3.6H28.5
			c-2,0-3.6-1.6-3.6-3.6v-13.9C24.9,228.6,26.5,226.9,28.5,226.9z"/>
		<path id="Rectangle_1757" class="st15" d="M28.6,252.1h103.8c2,0,3.6,1.6,3.6,3.6v13.9c0,2-1.6,3.6-3.6,3.6H28.6
			c-2,0-3.6-1.6-3.6-3.6v-13.9C25,253.7,26.6,252.1,28.6,252.1z"/>
	</g>
	<g id="Group_36082" transform="translate(718.871 762.488)">
		<g id="Group_36081" transform="translate(0 0)">
			
				<linearGradient id="Ellipse_408_00000065064037107340447040000016617786101055572911_" gradientUnits="userSpaceOnUse" x1="-135.0245" y1="108.6835" x2="-134.3545" y2="109.4615" gradientTransform="matrix(80.1732 -80.1732 -80.1732 -80.1732 19627.8594 -1913.1783)">
				<stop  offset="0" style="stop-color:#E1473D"/>
				<stop  offset="1" style="stop-color:#E9605A"/>
			</linearGradient>
			
				<circle id="Ellipse_408" style="fill:url(#Ellipse_408_00000065064037107340447040000016617786101055572911_);" cx="80.2" cy="80.2" r="56.7"/>
			<circle id="Ellipse_409" class="st15" cx="80.2" cy="80.2" r="54.8"/>
			<path id="Path_5106" class="st40" d="M35,58.7c-0.7,0-1.3-0.6-1.3-1.3c0-0.2,0-0.4,0.1-0.6c8.8-17.5,26.7-28.6,46.3-28.5
				c3.1,0,6.3,0.3,9.4,0.8c0.7,0.1,1.1,0.8,1,1.5c-0.1,0.7-0.8,1.1-1.5,1l0,0c-2.9-0.5-5.9-0.8-8.9-0.8C61.5,30.8,44.5,41.3,36.1,58
				C35.9,58.4,35.5,58.7,35,58.7z"/>
			<circle id="Ellipse_410" class="st40" cx="81.4" cy="81.4" r="46.4"/>
			<g id="Group_36080" transform="translate(60.936 48.538)">
				<path id="Path_5107" class="st15" d="M15.9,67.3v-5C11,62.1,6.2,61,1.7,59.2c-1.3-0.6-2-2.1-1.6-3.4L1.4,51
					C1.8,49.5,3.4,48.6,5,49c0.1,0,0.3,0.1,0.4,0.1c4.1,1.8,8.6,2.7,13.1,2.8c5.1,0,8.8-1.7,8.8-5.2c0-3.2-2.9-5.1-10-7
					c-10-2.7-17.3-7.1-17.3-16c0-8,5.8-14.1,16-15.7v-5C16.1,1.3,17.4,0,19,0h3c1.6,0,2.9,1.3,2.9,2.9v4.5c3.8,0.1,7.6,0.8,11.2,2
					c1.4,0.5,2.2,2.1,1.8,3.5l-1.2,4.3c-0.4,1.6-2,2.5-3.6,2.1c-0.1,0-0.2-0.1-0.3-0.1c-3.5-1.3-7.2-2-11-2c-6,0-7.7,2.5-7.7,4.7
					c0,2.7,3.6,4.6,11.4,7c11.2,3.3,15.8,8,15.8,16.3c0,7.6-5.7,14.5-16.7,16.2v5.6c0,1.6-1.3,2.9-2.9,2.9h-3
					C17.2,70.2,15.9,68.9,15.9,67.3z"/>
			</g>
		</g>
		<path id="Rectangle_1758" class="st15" d="M32.3,147h103.8c2,0,3.6,1.6,3.6,3.6v13.9c0,2-1.6,3.6-3.6,3.6H32.3
			c-2,0-3.6-1.6-3.6-3.6v-13.9C28.7,148.6,30.3,147,32.3,147z"/>
		<path id="Rectangle_1759" class="st15" d="M32.4,172.1h103.8c2,0,3.6,1.6,3.6,3.6v13.9c0,2-1.6,3.6-3.6,3.6H32.4
			c-2,0-3.6-1.6-3.6-3.6v-13.9C28.8,173.8,30.4,172.1,32.4,172.1z"/>
		<path id="Rectangle_1760" class="st15" d="M32.5,197.3h103.8c2,0,3.6,1.6,3.6,3.6v13.9c0,2-1.6,3.6-3.6,3.6H32.5
			c-2,0-3.6-1.6-3.6-3.6v-13.9C28.8,198.9,30.5,197.3,32.5,197.3z"/>
	</g>
</g>
</svg>
