<?xml version="1.0" encoding="utf-8"?>
<!-- Generator: Adobe Illustrator 25.4.1, SVG Export Plug-In . SVG Version: 6.00 Build 0)  -->
<svg version="1.1" id="Layer_1" xmlns="http://www.w3.org/2000/svg" xmlns:xlink="http://www.w3.org/1999/xlink" x="0px" y="0px"
	 viewBox="0 0 516.5 521" style="enable-background:new 0 0 516.5 521;" xml:space="preserve">
<style type="text/css">
	.st0{fill:url(#Path_5182_00000108300712368424482560000016320337979424724390_);}
	.st1{fill:url(#Path_5183_00000011010984691271575020000011258172715469725056_);}
	.st2{fill:url(#Path_5184_00000025405455644648442900000013261957083314139015_);}
	.st3{fill:url(#Path_5185_00000176002072524356169240000017139576342045467264_);}
	.st4{fill:url(#Path_5186_00000036238722641389782810000010771595343823309758_);}
	.st5{fill:url(#Path_5187_00000182512974651660962910000010815462743964203177_);}
	.st6{fill:url(#Path_5188_00000098933358893265388440000004850718941044531607_);}
	.st7{fill:url(#Path_5189_00000091699981699312673020000014354902496407370928_);}
	.st8{fill:url(#Path_5190_00000094613492594202471780000010924866499392963995_);}
	.st9{fill:url(#Path_5191_00000088822196755859781910000002286690541480051092_);}
	.st10{fill:url(#Path_5192_00000105421750165508988740000015885014628863384752_);}
	.st11{fill:url(#Path_5193_00000124845678573327639030000006462797265847306679_);}
	.st12{fill:url(#Path_5194_00000068650212826648887190000006892035599887021972_);}
	.st13{fill:#7D97F4;}
	.st14{fill:url(#Path_5196_00000088829473628469563240000013563439797447230115_);}
	.st15{fill:url(#Path_5197_00000015318102728849467070000006062019264622680233_);}
	.st16{fill:url(#Path_5198_00000033339101104604874570000001609187669733332395_);}
	.st17{fill:url(#Path_5199_00000034799254770852355040000003388399548034826936_);}
	.st18{fill:#FFFFFF;}
	.st19{fill:url(#Path_5202_00000095332835543465560380000008931434703671118766_);}
	.st20{fill:url(#Path_5203_00000181080743406961269480000013289656660905576109_);}
	.st21{fill:url(#Path_5204_00000027581382682949681970000017430436992342140349_);}
	.st22{fill:url(#Path_5205_00000178200425276865858550000012470168270965522052_);}
	.st23{fill:url(#Path_5206_00000066476158087671106760000004577565594812909206_);}
	.st24{fill:url(#Path_5208_00000038383175046030071410000009307501139881447081_);}
	.st25{fill:url(#Path_5209_00000052075922897581646490000008183446314726515098_);}
	.st26{fill:url(#Path_5210_00000028323767588025224480000009393615788330392746_);}
	.st27{fill:url(#Path_5211_00000049931141956487465280000000380025045180536250_);}
	.st28{fill:url(#Path_5212_00000093162334122309490620000013985034808653434279_);}
	.st29{fill-rule:evenodd;clip-rule:evenodd;fill:url(#Path_5213_00000034061929606236405290000009362326795324773309_);}
	.st30{fill:url(#Path_5214_00000029046072725386170200000007793466081956651396_);}
	.st31{fill:url(#Path_5215_00000088131214183432275760000006792083418929437327_);}
	.st32{fill-rule:evenodd;clip-rule:evenodd;fill:url(#Path_5216_00000088115529564019013680000002991471281246098084_);}
	.st33{fill-rule:evenodd;clip-rule:evenodd;fill:url(#Path_5217_00000068645553879842237630000001079469144733475237_);}
	.st34{fill-rule:evenodd;clip-rule:evenodd;fill:url(#Path_5218_00000089567237044886775980000001102170552499359913_);}
	.st35{fill-rule:evenodd;clip-rule:evenodd;fill:url(#Path_5219_00000029040960096912332700000016194177128673849778_);}
	.st36{fill-rule:evenodd;clip-rule:evenodd;fill:url(#Path_5220_00000070081509604822338180000003392069650904676742_);}
	.st37{fill-rule:evenodd;clip-rule:evenodd;fill:url(#Path_5221_00000085208149814151441670000004329540965061342372_);}
	.st38{fill-rule:evenodd;clip-rule:evenodd;fill:url(#Path_5222_00000165235030282158242670000006276513992245401233_);}
	.st39{fill-rule:evenodd;clip-rule:evenodd;fill:url(#Path_5223_00000069375538590754970630000012908271019823428736_);}
	.st40{fill-rule:evenodd;clip-rule:evenodd;fill:url(#Path_5224_00000183250423517764122550000010921756105193191555_);}
	.st41{fill-rule:evenodd;clip-rule:evenodd;fill:url(#Path_5225_00000170263747198511345880000016528435707531887492_);}
	.st42{fill-rule:evenodd;clip-rule:evenodd;fill:url(#Path_5226_00000183969920338649611360000008360484092370926474_);}
	.st43{fill:url(#Path_5227_00000065057250824145629880000007143184868442758063_);}
	.st44{fill:url(#Path_5228_00000005228555681735636970000003821075765134680254_);}
	.st45{fill:url(#Path_5229_00000093887094054538870190000011680533087938215817_);}
	.st46{fill:url(#Path_5230_00000158722402517107216600000002105309058137479597_);}
	.st47{fill:url(#Path_5231_00000016756636748238733730000002441408176663466112_);}
</style>
<g id="Group_36118" transform="translate(-471.352 -437.176)">
	
		<linearGradient id="Path_5182_00000121245471421121077800000018374921979247345046_" gradientUnits="userSpaceOnUse" x1="580.2289" y1="847.3779" x2="579.4779" y2="848.0379" gradientTransform="matrix(516.5055 0 0 -514.1788 -298659.125 436667.25)">
		<stop  offset="0" style="stop-color:#DAE3FE"/>
		<stop  offset="1" style="stop-color:#E9EFFD"/>
	</linearGradient>
	<path id="Path_5182" style="fill:url(#Path_5182_00000121245471421121077800000018374921979247345046_);" d="M966.2,787.1
		c-50.1,118-183.6,184.1-299.4,166.3c-18.8-2.9-70.5-11.5-116.2-52.3c-88-78.5-106.8-233.9-35.8-343.4
		c51.7-79.7,141.5-117.7,229.5-115.4c19,0.5,94.4-3.7,158.3,48.9c19,15.8,35.4,34.4,48.7,55.3C995.1,614.9,998.9,710.2,966.2,787.1z
		"/>
	<g id="Group_36117" transform="translate(487.031 437.176)">
		
			<linearGradient id="Path_5183_00000056418797100952021190000005212162146776959144_" gradientUnits="userSpaceOnUse" x1="101.7583" y1="414.1439" x2="102.7583" y2="414.1439" gradientTransform="matrix(45.137 0 0 -30.4622 -3738.2795 13116.2715)">
			<stop  offset="0" style="stop-color:#4F52FF"/>
			<stop  offset="1" style="stop-color:#4042E2"/>
		</linearGradient>
		<path id="Path_5183" style="fill:url(#Path_5183_00000056418797100952021190000005212162146776959144_);" d="M365.9,514.4
			c0-0.3,0-0.6-0.1-0.9c-5.1-17.4-30.3-28.2-30.3-28.2l-10,0.7c-5.8,15.3-5,24.7-4.1,28.9c0,0.1,0.1,0.2,0.1,0.3
			C336.3,516.2,351.2,515.9,365.9,514.4z"/>
		
			<linearGradient id="Path_5184_00000154385473864605100930000009458853356915111871_" gradientUnits="userSpaceOnUse" x1="90.5945" y1="442.0281" x2="91.6995" y2="480.2931" gradientTransform="matrix(44.4031 0 0 -4.6204 -3669.7947 2524.3914)">
			<stop  offset="0" style="stop-color:#09005D"/>
			<stop  offset="1" style="stop-color:#1A0F91"/>
		</linearGradient>
		<path id="Path_5184" style="fill:url(#Path_5184_00000154385473864605100930000009458853356915111871_);" d="M321.5,515.3
			c0.5,1.4,1.7,2.5,3.2,2.8c11.7,2.1,30.4,0.4,38.2-0.5c1.6-0.1,2.9-1.5,3-3.1C351.2,515.9,336.3,516.2,321.5,515.3z"/>
		
			<linearGradient id="Path_5185_00000101806199853307351420000000244530294446844073_" gradientUnits="userSpaceOnUse" x1="87.2036" y1="421.5403" x2="86.7646" y2="418.2893" gradientTransform="matrix(17.0095 0 0 -20.0779 -1140.8279 8836.1602)">
			<stop  offset="0" style="stop-color:#FEBBBA"/>
			<stop  offset="1" style="stop-color:#FF928E"/>
		</linearGradient>
		<path id="Path_5185" style="fill:url(#Path_5185_00000101806199853307351420000000244530294446844073_);" d="M321.5,473.2
			l4.2,17.6c0.3,1.3,1.5,2.3,2.8,2.4c2.2,0.2,4.4,0.2,6.6-0.1c2-0.2,3.5-2,3.4-4c0-0.1,0-0.2,0-0.3l-2.9-15.6L321.5,473.2z"/>
		
			<linearGradient id="Path_5186_00000163072646716176073660000003436134045793724065_" gradientUnits="userSpaceOnUse" x1="91.2152" y1="436.1792" x2="91.9672" y2="472.8352" gradientTransform="matrix(65.2405 0 0 -4.8237 -5525.5278 2606.2024)">
			<stop  offset="0" style="stop-color:#09005D"/>
			<stop  offset="1" style="stop-color:#1A0F91"/>
		</linearGradient>
		<path id="Path_5186" style="fill:url(#Path_5186_00000163072646716176073660000003436134045793724065_);" d="M409.2,515.1
			c-11-0.3-16.8-1.4-19.7-2.4c0,0.9,0,1.9,0,2.9c0.1,1.1,1,1.9,2.1,1.9l60.6-0.3c1.3,0.1,2.4-1,2.5-2.3c0-0.4-0.1-0.8-0.3-1.2
			C446.6,514.2,426.3,515.5,409.2,515.1z"/>
		
			<linearGradient id="Path_5187_00000046300641372181707940000008985687432621062843_" gradientUnits="userSpaceOnUse" x1="98.8768" y1="414.5909" x2="99.8768" y2="414.5909" gradientTransform="matrix(64.9749 0 0 -27.1338 -5501.0024 11751.0137)">
			<stop  offset="0" style="stop-color:#4F52FF"/>
			<stop  offset="1" style="stop-color:#4042E2"/>
		</linearGradient>
		<path id="Path_5187" style="fill:url(#Path_5187_00000046300641372181707940000008985687432621062843_);" d="M454.5,513.7
			c-0.1-0.1-0.1-0.3-0.2-0.4c-5.4-6.5-19-19.3-45.9-24.9l-12.9-0.4c0,0-5.8,8.6-5.9,24.6c3,1,8.7,2.2,19.7,2.4
			C426.3,515.5,446.6,514.2,454.5,513.7z"/>
		
			<linearGradient id="Path_5188_00000059999979380014214110000001050027798387424420_" gradientUnits="userSpaceOnUse" x1="87.2904" y1="420.9443" x2="86.8434" y2="418.1603" gradientTransform="matrix(16.7542 0 0 -23.4956 -1045.7516 10236.1113)">
			<stop  offset="0" style="stop-color:#FEBBBA"/>
			<stop  offset="1" style="stop-color:#FF928E"/>
		</linearGradient>
		<path id="Path_5188" style="fill:url(#Path_5188_00000059999979380014214110000001050027798387424420_);" d="M393,471.1
			c0.1,0.8,1.9,13.5,2.6,18.4c0.2,1.2,1.2,2.1,2.4,2.2c3,0.3,5.9,0.3,8.9-0.1c1.6-0.3,2.9-1.6,2.9-3.3v-19.8L393,471.1z"/>
		
			<linearGradient id="Path_5189_00000041991244080309232190000001315799276838833062_" gradientUnits="userSpaceOnUse" x1="94.7611" y1="411.7036" x2="93.2771" y2="411.3227" gradientTransform="matrix(112.7644 0 0 -238.0339 -10002.0234 98183.4688)">
			<stop  offset="0" style="stop-color:#09005D"/>
			<stop  offset="1" style="stop-color:#1A0F91"/>
		</linearGradient>
		<path id="Path_5189" style="fill:url(#Path_5189_00000041991244080309232190000001315799276838833062_);" d="M382.6,240.5
			c0,0,31.2,102.2,30.6,230.9c-0.2,2.5-2.1,4.5-4.6,4.9c-4.8,0.9-9.6,1.4-14.5,1.4c-2.4,0-4.5-1.5-5.1-3.9
			c-4.4-22.1-25.2-149.3-39.5-169.5c0,0-13.6,113.5-10.6,171.1c0,1.5-1.3,2.8-2.8,2.8c-3.9,0.4-7.7,0.3-11.6,0
			c-1.8-0.1-3.4-1.3-3.8-3.1c-3.1-18.7-21-130.2-20.3-210.4c0-4.5,13.9-24.2,13.9-24.2L382.6,240.5z"/>
		
			<linearGradient id="Path_5190_00000047760062702487938190000016035049517581130922_" gradientUnits="userSpaceOnUse" x1="92.2172" y1="411.1002" x2="92.0082" y2="408.9462" gradientTransform="matrix(183.7601 0 0 -174.2769 -16589.3164 71819.3906)">
			<stop  offset="0" style="stop-color:#4F52FF"/>
			<stop  offset="1" style="stop-color:#4042E2"/>
		</linearGradient>
		<path id="Path_5190" style="fill:url(#Path_5190_00000047760062702487938190000016035049517581130922_);" d="M280,95.3
			c38.8-24.1,97.2-11.9,119.8-9.5c7.2,0.7,13.9,3.8,19.1,8.8c19.4,19.3,67.4,95-10.4,132.2c-5.2-3.8-6.6-14.5-11.2-23
			c11.1-14,17.7-28,6.1-49c-0.4,1.7-0.9,3.3-1.5,5c-16,43.7-16.8,80-16.8,88.4c0,1.2-0.9,2.2-2,2.6c-21,7.3-61.5,2.9-75.1,1.2
			c-2.5-0.3-4.2-2.3-3.8-4.5c6.7-41.7-27.6-110.3-36.6-127.4C267,118.9,274.9,105.4,280,95.3z"/>
		
			<linearGradient id="Path_5191_00000024000249453868748970000012220382710412467851_" gradientUnits="userSpaceOnUse" x1="91.7871" y1="418.9865" x2="90.7381" y2="415.7825" gradientTransform="matrix(34.3887 0 0 -48.6657 -2740.4888 20153.4727)">
			<stop  offset="0" style="stop-color:#FEBBBA"/>
			<stop  offset="1" style="stop-color:#FF928E"/>
		</linearGradient>
		<path id="Path_5191" style="fill:url(#Path_5191_00000024000249453868748970000012220382710412467851_);" d="M330.8,51.7
			l-4.4,30.8c-0.4,2.9,1.6,5.5,4.4,6c6,1.1,16.4,2.1,26-1.8c2.9-1.1,4.5-4.3,3.7-7.3l-7-38.6L330.8,51.7z"/>
		<g id="Group_36113" transform="translate(298.337)">
			
				<linearGradient id="Path_5192_00000000222937427139016160000015189348219584114051_" gradientUnits="userSpaceOnUse" x1="-223.5636" y1="399.3208" x2="-225.0066" y2="398.0278" gradientTransform="matrix(34.9373 0 0 -51.5679 7316.6084 21320.9902)">
				<stop  offset="0" style="stop-color:#FEBBBA"/>
				<stop  offset="1" style="stop-color:#FF928E"/>
			</linearGradient>
			<path id="Path_5192" style="fill:url(#Path_5192_00000000222937427139016160000015189348219584114051_);" d="M11,21.3
				c-0.2,0.7,0.6,45.9,0.6,45.9l28.1-4.3l6.2-43.8C45.9,19.1,15,9.9,11,21.3z"/>
			
				<linearGradient id="Path_5193_00000176737062428631756890000004369032038562165136_" gradientUnits="userSpaceOnUse" x1="-228.2695" y1="411.8474" x2="-227.2475" y2="411.8474" gradientTransform="matrix(63.1394 0 0 -82.3798 13115.7305 33969.1055)">
				<stop  offset="0" style="stop-color:#09005D"/>
				<stop  offset="1" style="stop-color:#1A0F91"/>
			</linearGradient>
			<path id="Path_5193" style="fill:url(#Path_5193_00000176737062428631756890000004369032038562165136_);" d="M36.5,25.9
				c0.9,0.6,1.5,1.7,1.4,2.9l-1.3,22.7c0,0.3-0.1,0.7-0.2,1c-0.7,1.9-3.3,7.7-9.4,5.6c-5.2-1.8-10-3.3-13.9-2.9
				c-2.2,0.2-3.9,2.1-4,4.3c0.1,6.8,0.8,13.5,2,20.2c0.5,1.9,2.4,3,4.3,2.5c0,0,0.1,0,0.1,0c5.5-1.2,16.2-3.7,24.8-7.6
				c1.4-0.6,2.3-1.8,2.6-3.3c0.9-6.1,3.6-23.2,5.2-28c1.4-4.5,7.7-6.9,10.6-7.8c1.1-0.3,2-1.1,2.7-2c1.8-2.9,4.2-8.9-3.4-12.1
				c-1.7-0.7-2.5-2.7-1.7-4.3c0.1-0.2,0.2-0.3,0.3-0.5c1.9-3.4,3.1-8.3-2.9-11.5C47.4,2,41.8,4.8,38.3,7.4c-1.4,1.2-3.4,1.4-5,0.5
				c-0.8-0.5-1.8-0.5-2.6-0.1c-2.1,0.8-4.3,0.1-5-1.8C24.6,2.8,21.8-0.6,15,0.1C2.5,1.4-1.3,13.9,0.4,21.5s15.3,5.5,22.5,2.1
				C28.3,21.1,33.9,24.1,36.5,25.9z"/>
			
				<linearGradient id="Path_5194_00000008136366923433977720000003164966733974426803_" gradientUnits="userSpaceOnUse" x1="-258.3369" y1="380.3078" x2="-255.4979" y2="382.5898" gradientTransform="matrix(14.2383 0 0 -18.1835 3088.2859 7618.6753)">
				<stop  offset="0" style="stop-color:#FEBBBA"/>
				<stop  offset="1" style="stop-color:#FF928E"/>
			</linearGradient>
			<path id="Path_5194" style="fill:url(#Path_5194_00000008136366923433977720000003164966733974426803_);" d="M47.5,51.8
				c0,0-2.4-13.4,3.4-16.3s13-0.8,9.4,8.6C55.9,55.8,47.5,51.8,47.5,51.8z"/>
		</g>
		<path id="Path_5195" class="st13" d="M405.6,151.6c8.5-20,5.4-44.2,5.4-44.4l-2.3,0.2c0,0.2,3,23.9-5.2,43.5L405.6,151.6z"/>
		<g id="Group_36114" transform="translate(235.527 95.402)">
			
				<linearGradient id="Path_5196_00000134930131232386777680000014277472861007694216_" gradientUnits="userSpaceOnUse" x1="-145.7099" y1="322.4168" x2="-146.9979" y2="314.8938" gradientTransform="matrix(28.5411 0 0 -47.87 4195.2734 15338.2568)">
				<stop  offset="0" style="stop-color:#FEBBBA"/>
				<stop  offset="1" style="stop-color:#FF928E"/>
			</linearGradient>
			<path id="Path_5196" style="fill:url(#Path_5196_00000134930131232386777680000014277472861007694216_);" d="M0.3,119.6
				c-0.6,15.5-0.2,31,1,46.4l13.3,1.4c0,0,5.5-20.8,14-45.1C15.4,123.5,6,121.5,0.3,119.6z"/>
			
				<linearGradient id="Path_5197_00000139993745581443600600000012532025825058390920_" gradientUnits="userSpaceOnUse" x1="-144.0353" y1="317.4844" x2="-144.5983" y2="314.5344" gradientTransform="matrix(65.655 0 0 -122.6995 9510.4775 38834.707)">
				<stop  offset="0" style="stop-color:#4F52FF"/>
				<stop  offset="1" style="stop-color:#4042E2"/>
			</linearGradient>
			<path id="Path_5197" style="fill:url(#Path_5197_00000139993745581443600600000012532025825058390920_);" d="M65.9,51.5
				c0,0-3.3-40.1-21.6-51.5C44.4,0,4,25,0.3,119.6c5.7,1.9,15.1,3.9,28.3,2.8C38.2,94.9,51.9,62.9,65.9,51.5z"/>
		</g>
		
			<linearGradient id="Path_5198_00000176032737025227744360000018426454309251695767_" gradientUnits="userSpaceOnUse" x1="89.52" y1="418.3286" x2="88.404" y2="410.4666" gradientTransform="matrix(27.0085 0 0 -37.5265 -2157.271 15787.0645)">
			<stop  offset="0" style="stop-color:#FEBBBA"/>
			<stop  offset="1" style="stop-color:#FF928E"/>
		</linearGradient>
		<path id="Path_5198" style="fill:url(#Path_5198_00000176032737025227744360000018426454309251695767_);" d="M245.1,257.1
			c0,0,8.3,2.9,10,14.3s-8.3,20-16.6,18.6s-17.2-22.9-2-32.9S245.1,257.1,245.1,257.1z"/>
		
			<linearGradient id="Path_5199_00000049916342695349389390000017417833786401898118_" gradientUnits="userSpaceOnUse" x1="93.6958" y1="412.7738" x2="92.7468" y2="411.6118" gradientTransform="matrix(175.7234 0 0 -211.5837 -16103.041 87101.7188)">
			<stop  offset="0" style="stop-color:#09005D"/>
			<stop  offset="1" style="stop-color:#1A0F91"/>
		</linearGradient>
		<path id="Path_5199" style="fill:url(#Path_5199_00000049916342695349389390000017417833786401898118_);" d="M156.3,29.8
			c-8.8,6.4-18.2,11.7-28.3,15.9c-9.2,3.8-27,9.4-29.3,25.8C97.5,80,90.2,86.7,80.5,88c-24.3,3.2-61.8,14.1-67.8,50.5
			c-4.6,27.8,11.9,38.3,29.1,42c12.7,2.7,21.1,13.3,18.5,24.3c-2.5,10.6,1.2,22.8,22.5,32.5c47.6,21.7,95.1-51.3,95.1-51.3
			l9.7-127.5L156.3,29.8z"/>
		<path id="Path_5200" class="st18" d="M47.7,164.1c-0.8,0-1.5-0.3-2.2-0.7c-11.1-6.2-16.9-18.8-14.4-31.3
			c1.5-7.2,5.7-13.6,11.8-17.7c4.3-2.9,9.4-4.7,14.2-6.3c8.2-2.7,16.7-5,25.1-7c0.7-0.2,1.4-0.3,2.1-0.5c5-1,10-2.4,14.7-4.3
			c6-2.6,10.3-6.3,12.2-10.5c1.1-2.7,1.7-5.5,1.9-8.3c0.4-3.4,0.8-7,2.8-10c0,0,0.1,0,0.1,0c0,0,0,0.1,0,0.1c-2,3-2.4,6.5-2.8,9.9
			c-0.2,2.9-0.8,5.7-1.9,8.4c-1.9,4.3-6.3,8-12.3,10.6c-4.8,1.9-9.7,3.3-14.7,4.3c-0.7,0.2-1.4,0.3-2.1,0.5c-8.5,2-16.9,4.3-25.1,7
			c-4.8,1.6-9.9,3.4-14.2,6.3c-6,4.1-10.2,10.5-11.7,17.6c-2.5,12.4,3.3,24.9,14.3,31.1c0.9,0.5,2.5,1.1,3.2,0.2c0,0,0.1,0,0.1,0
			s0,0.1,0,0.1C48.6,164,48.2,164.2,47.7,164.1z"/>
		<path id="Path_5201" class="st18" d="M44.8,152.6C44.8,152.6,44.8,152.6,44.8,152.6c-4.3-5.6-6.6-11.3-6.5-16.8
			c0.1-6.4,3.5-12.2,8.9-15.4c0,0,0.1,0,0.1,0c0,0,0,0.1,0,0.1c0,0,0,0,0,0c-5.4,3.2-8.8,9-8.8,15.3c-0.1,5.4,2.2,11.2,6.4,16.7
			C44.9,152.5,44.9,152.6,44.8,152.6C44.9,152.6,44.9,152.6,44.8,152.6L44.8,152.6z"/>
		
			<linearGradient id="Path_5202_00000117669102328923598870000011482342777185644420_" gradientUnits="userSpaceOnUse" x1="91.9583" y1="415.7532" x2="90.0963" y2="408.1732" gradientTransform="matrix(54.745 0 0 -131.672 -4759.1138 54366.5312)">
			<stop  offset="0" style="stop-color:#FEBBBA"/>
			<stop  offset="1" style="stop-color:#FF928E"/>
		</linearGradient>
		<path id="Path_5202" style="fill:url(#Path_5202_00000117669102328923598870000011482342777185644420_);" d="M206.9,138.3
			c0,0,26.5,65.8,34.8,124.5l-8.3,7.2c0,0-26.5-74.4-46.4-95.9L206.9,138.3z"/>
		
			<linearGradient id="Path_5203_00000052062035092779188280000014855386215805342131_" gradientUnits="userSpaceOnUse" x1="92.4642" y1="454.3513" x2="91.7092" y2="444.7223" gradientTransform="matrix(31.6391 0 0 -22.8545 -2812.9541 10000.0127)">
			<stop  offset="0" style="stop-color:#09005D"/>
			<stop  offset="1" style="stop-color:#1A0F91"/>
		</linearGradient>
		<path id="Path_5203" style="fill:url(#Path_5203_00000052062035092779188280000014855386215805342131_);" d="M31.6,500.7
			l-1.8,12.8c-0.5,2.6-2.7,4.5-5.4,4.6c-6.6,0.7-13.2,0.8-19.8,0.3c-3.3-0.3-5.4-3.2-4.4-5.9c1.8-4.9,5.1-12.3,9.9-16.7h16.4
			C29.6,495.8,32,498.1,31.6,500.7z"/>
		
			<linearGradient id="Path_5204_00000061466507106064083330000011718605242835082130_" gradientUnits="userSpaceOnUse" x1="87.6973" y1="402.7174" x2="88.5903" y2="405.5094" gradientTransform="matrix(43.9926 0 0 -164.5769 -3824.9644 68103.3047)">
			<stop  offset="0" style="stop-color:#FEBBBA"/>
			<stop  offset="1" style="stop-color:#FF928E"/>
		</linearGradient>
		<path id="Path_5204" style="fill:url(#Path_5204_00000061466507106064083330000011718605242835082130_);" d="M160.1,351.2
			l2.8,14.1c0,0-9.3,81.1-10.9,113.5c-0.2,5.2,1.3,10.3,4.4,14.4l16.1,22.6l-41-20.9l-0.8-4.3l6.7-8l-8.8-90.8
			c-0.5-5.4,0.8-10.8,3.7-15.4l8.5-13.7L160.1,351.2z"/>
		
			<linearGradient id="Path_5205_00000032608306413317971050000007192452337701453494_" gradientUnits="userSpaceOnUse" x1="92.6218" y1="440.5471" x2="92.1548" y2="433.9841" gradientTransform="matrix(51.1926 0 0 -33.554 -4490.7246 14387.166)">
			<stop  offset="0" style="stop-color:#09005D"/>
			<stop  offset="1" style="stop-color:#1A0F91"/>
		</linearGradient>
		<path id="Path_5205" style="fill:url(#Path_5205_00000032608306413317971050000007192452337701453494_);" d="M175.2,519h-13.1
			c-2.4,0-4.6-0.9-6.3-2.6c-4.1-4.6-12.5-13.5-16.6-13.7c-5.4-0.3-4.7,16.4-4.7,16.4h-3l-3.9-20.7c-1-5.2,2-10.4,7.5-12.8l0,0
			c0,0,1.2,7.9,8,11.4s27.4,16.1,27.4,16.1c1.8-0.2,3.6-0.1,5.3,0.1C179.9,513.8,179.4,519,175.2,519z"/>
		
			<linearGradient id="Path_5206_00000129204916879114805880000006996759104702860421_" gradientUnits="userSpaceOnUse" x1="91.3795" y1="408.7286" x2="91.7775" y2="411.6036" gradientTransform="matrix(98.243 0 0 -158.8296 -8956.1494 65741.9922)">
			<stop  offset="0" style="stop-color:#FEBBBA"/>
			<stop  offset="1" style="stop-color:#FF928E"/>
		</linearGradient>
		<path id="Path_5206" style="fill:url(#Path_5206_00000129204916879114805880000006996759104702860421_);" d="M104,357.9
			c0,0-54.3,88.9-63,109.2S29.3,504.3,29.2,506c-0.2,2.5-3.8,4.9-13.8,4.9c-5.1,0-7.7-1.8-8.9-3.5c-1-1.4-1.1-3.3-0.2-4.9
			c3.1-5.5,13.1-23,16.8-31C27.6,462,37.1,419,42.3,404s11.1-31.2,33.7-46.2C76,357.9,91.6,344.7,104,357.9z"/>
		<path id="Path_5207" class="st13" d="M138.3,212.2c14-51.2-21.5-80.2-21.5-80.2c22.4-18.6,63.2-27,63.2-27s39,24.6,34.3,43.8
			c-2.7,11.3-27.4,67.5-27.4,67.5S164.2,225.6,138.3,212.2z"/>
		
			<linearGradient id="Path_5208_00000113323648642317635490000000324874434843920015_" gradientUnits="userSpaceOnUse" x1="95.0456" y1="412.6172" x2="93.6246" y2="411.9583" gradientTransform="matrix(115.5296 0 0 -154.7977 -10483.5049 63945.0273)">
			<stop  offset="0" style="stop-color:#4F52FF"/>
			<stop  offset="1" style="stop-color:#4042E2"/>
		</linearGradient>
		<path id="Path_5208" style="fill:url(#Path_5208_00000113323648642317635490000000324874434843920015_);" d="M107.2,237.5
			c5.7-14.8,31.1-25.4,31.1-25.4c25.9,13.4,48.7,4.1,48.7,4.1s5.1,16.9,1.6,32.6s-25.7,116.4-25.7,116.4
			c-34.9,6.1-88.6-6.1-88.6-6.1C96.5,325.1,101.5,252.4,107.2,237.5z"/>
		
			<linearGradient id="Path_5209_00000097494210121099056580000010282705547347283874_" gradientUnits="userSpaceOnUse" x1="87.9154" y1="404.5262" x2="88.1344" y2="405.5712" gradientTransform="matrix(33.5752 0 0 -51.4431 -2848.6868 21320.9805)">
			<stop  offset="0" style="stop-color:#FEBBBA"/>
			<stop  offset="1" style="stop-color:#FF928E"/>
		</linearGradient>
		<path id="Path_5209" style="fill:url(#Path_5209_00000097494210121099056580000010282705547347283874_);" d="M154.6,71.1
			l-11.4,44.2c-1.1,3.9,3,3.3,7.6,2.5c7.5-1.2,17.1-3.7,20.3-8.7c0.3-0.5,0.5-1.1,0.6-1.7l4.9-30.6c0.3-2.6-1.3-5-3.7-5.8l-9.4-3.6
			C159.7,65.9,155.5,67.7,154.6,71.1z"/>
		<g id="Group_36115" transform="translate(139.369 21.035)">
			
				<linearGradient id="Path_5210_00000114792359128229696570000014145343336940340352_" gradientUnits="userSpaceOnUse" x1="-52.8713" y1="385.6399" x2="-51.4173" y2="387.8029" gradientTransform="matrix(45.0048 0 0 -53.8926 2238.5969 21143.4277)">
				<stop  offset="0" style="stop-color:#FEBBBA"/>
				<stop  offset="1" style="stop-color:#FF928E"/>
			</linearGradient>
			<path id="Path_5210" style="fill:url(#Path_5210_00000114792359128229696570000014145343336940340352_);" d="M51.1,21
				c0,0,8.7,11.1,6.9,29.8s-12.1,21.6-20,18S19.2,58.4,13.8,42.3S39.5,7.1,51.1,21z"/>
			
				<linearGradient id="Path_5211_00000035491650215068337180000006955211635829391276_" gradientUnits="userSpaceOnUse" x1="-46.2819" y1="395.6347" x2="-48.7479" y2="390.5907" gradientTransform="matrix(66.1896 0 0 -47.7338 3222.0886 18725.498)">
				<stop  offset="0" style="stop-color:#09005D"/>
				<stop  offset="1" style="stop-color:#1A0F91"/>
			</linearGradient>
			<path id="Path_5211" style="fill:url(#Path_5211_00000035491650215068337180000006955211635829391276_);" d="M26.7,39.6
				c0,0,5.4-25.7,27.1-12.8l3,6.1c0,0,15.7-6.5,6.5-19.8S35.8-5,20.2,6.4s-23.3,20.6-19,33.2s13.6,6.9,13.6,6.9s-0.5-9.6,4-11.9
				s6.2,4.8,6.2,4.8L26.7,39.6z"/>
			
				<linearGradient id="Path_5212_00000077300643443784153030000009294293213804257196_" gradientUnits="userSpaceOnUse" x1="-84.4202" y1="365.2251" x2="-78.2552" y2="372.097" gradientTransform="matrix(10.6039 0 0 -16.9309 620.1042 6744.8789)">
				<stop  offset="0" style="stop-color:#FEBBBA"/>
				<stop  offset="1" style="stop-color:#FF928E"/>
			</linearGradient>
			<path id="Path_5212" style="fill:url(#Path_5212_00000077300643443784153030000009294293213804257196_);" d="M23.4,44
				c0,0,2.9-13.2-5.9-12.5s-1.9,12.6,1,16.9L23.4,44z"/>
		</g>
		<g id="Group_36116" transform="translate(162.203 192.467)">
			
				<linearGradient id="Path_5213_00000142886451659727046330000017557152717275422867_" gradientUnits="userSpaceOnUse" x1="-71.0699" y1="220.1209" x2="-71.4989" y2="220.9439" gradientTransform="matrix(77.1952 0 0 -76.9272 5558.876 16922.1426)">
				<stop  offset="0" style="stop-color:#09005D"/>
				<stop  offset="1" style="stop-color:#1A0F91"/>
			</linearGradient>
			
				<path id="Path_5213" style="fill-rule:evenodd;clip-rule:evenodd;fill:url(#Path_5213_00000142886451659727046330000017557152717275422867_);" d="
				M56.5,36.9c0,0-2.1-10.9,6.4-13.3c0,0-3.8-12.6,8.1-12.6c0,0,20.4-25.3,36.8,0.6c0,0,36.8,2.2,22.2,30.1c0,0,9.6,8.6-4.4,15.6
				c0,0-11.3,34.1-36.9,12.1L56.5,36.9z"/>
			
				<linearGradient id="Path_5214_00000134956782359440466140000004589264725888728195_" gradientUnits="userSpaceOnUse" x1="-72.0042" y1="218.3159" x2="-72.7942" y2="217.0549" gradientTransform="matrix(53.502 0 0 -87.8391 3968.5212 19316.1855)">
				<stop  offset="0" style="stop-color:#A22B25"/>
				<stop  offset="1" style="stop-color:#C0423C"/>
			</linearGradient>
			<path id="Path_5214" style="fill:url(#Path_5214_00000134956782359440466140000004589264725888728195_);" d="M172.8,12.3
				c-7.6-7.8-13.2,2.7-13.2,2.7c-6.1,2.1,0,15.3,0,15.3c-3.8,7.3-23.4,44.8-34,54c-11.8,10.3,7.2,12.9,7.2,12.9s21.2-9.9,33.1-63.9
				c0.1,0,0.2-0.1,0.3-0.1C167.8,32,180.4,20.2,172.8,12.3z"/>
			
				<linearGradient id="Path_5215_00000168839118241375805100000016170945566861902260_" gradientUnits="userSpaceOnUse" x1="-72.1179" y1="218.1959" x2="-72.7249" y2="217.2389" gradientTransform="matrix(52.8726 0 0 -87.83 3802.8406 19314.1836)">
				<stop  offset="0" style="stop-color:#A22B25"/>
				<stop  offset="1" style="stop-color:#C0423C"/>
			</linearGradient>
			<path id="Path_5215" style="fill:url(#Path_5215_00000168839118241375805100000016170945566861902260_);" d="M49.7,86.1
				c-9.6-8.3-27.4-43.5-33.8-56.4c1.2-2.7,5-12.8-0.3-14.6c0,0-5.5-10.5-13.2-2.7c-7,7.2,3.2,17.8,6.1,20.4
				c6,30.4,27.9,64.6,27.9,64.6S61.5,96.3,49.7,86.1z"/>
			
				<linearGradient id="Path_5216_00000152251881045943752400000016636115354671548322_" gradientUnits="userSpaceOnUse" x1="-80.965" y1="226.1413" x2="-79.965" y2="226.1413" gradientTransform="matrix(29.3557 0 0 -13.6897 2219.5518 3417.4927)">
				<stop  offset="0" style="stop-color:#09005D"/>
				<stop  offset="1" style="stop-color:#1A0F91"/>
			</linearGradient>
			
				<path id="Path_5216" style="fill-rule:evenodd;clip-rule:evenodd;fill:url(#Path_5216_00000152251881045943752400000016636115354671548322_);" d="
				M87.9,314.8c1,3.6,1.5,7.3,1.6,11.1c0,0.7-0.6,1.4-1.3,1.5c-4.3,0.6-18.9,2.3-27,0c-0.6-0.2-1.1-0.8-1.1-1.5
				c0.1-2.5,1.9-8.5,16.5-10L87.9,314.8z"/>
			
				<linearGradient id="Path_5217_00000096022221631162108420000013887294004876272061_" gradientUnits="userSpaceOnUse" x1="-73.9485" y1="217.7202" x2="-73.7265" y2="219.0882" gradientTransform="matrix(24.9233 0 0 -99.1257 1912.119 21990.8672)">
				<stop  offset="0" style="stop-color:#A22B25"/>
				<stop  offset="1" style="stop-color:#C0423C"/>
			</linearGradient>
			
				<path id="Path_5217" style="fill-rule:evenodd;clip-rule:evenodd;fill:url(#Path_5217_00000096022221631162108420000013887294004876272061_);" d="
				M62.6,217.6c-1.8,1.2,11.8,97,15.1,97.7c0,0,3.8,3.5,9.6-0.5c-3.4-31.2-5.4-62.9-3.6-95.3L62.6,217.6z"/>
			
				<linearGradient id="Path_5218_00000154422597520876010410000004878444834007587208_" gradientUnits="userSpaceOnUse" x1="-83.191" y1="226.1413" x2="-82.191" y2="226.1413" gradientTransform="matrix(29.3557 0 0 -13.6897 2252.2317 3417.4927)">
				<stop  offset="0" style="stop-color:#09005D"/>
				<stop  offset="1" style="stop-color:#1A0F91"/>
			</linearGradient>
			
				<path id="Path_5218" style="fill-rule:evenodd;clip-rule:evenodd;fill:url(#Path_5218_00000154422597520876010410000004878444834007587208_);" d="
				M120.6,314.8c1,3.6,1.5,7.3,1.6,11.1c0,0.7-0.6,1.4-1.3,1.5c-4.3,0.6-18.9,2.3-27,0c-0.6-0.2-1.1-0.8-1.1-1.5
				c0.1-2.5,1.9-8.5,16.5-10L120.6,314.8z"/>
			
				<linearGradient id="Path_5219_00000027582528498376501310000014111074716708801457_" gradientUnits="userSpaceOnUse" x1="-74.022" y1="217.2769" x2="-73.799" y2="218.6449" gradientTransform="matrix(24.9224 0 0 -99.1257 1944.7297 21990.8672)">
				<stop  offset="0" style="stop-color:#A22B25"/>
				<stop  offset="1" style="stop-color:#C0423C"/>
			</linearGradient>
			
				<path id="Path_5219" style="fill-rule:evenodd;clip-rule:evenodd;fill:url(#Path_5219_00000027582528498376501310000014111074716708801457_);" d="
				M95.3,217.6c-1.8,1.2,11.8,97,15.1,97.7c0,0,3.8,3.5,9.6-0.5c-3.4-31.2-5.4-62.9-3.6-95.3L95.3,217.6z"/>
			
				<linearGradient id="Path_5220_00000082350105761629455370000001190111235559338158_" gradientUnits="userSpaceOnUse" x1="-74.8476" y1="219.7003" x2="-73.8996" y2="219.7003" gradientTransform="matrix(62.7681 0 0 -66.5745 4549.707 14819.1846)">
				<stop  offset="0" style="stop-color:#09005D"/>
				<stop  offset="1" style="stop-color:#1A0F91"/>
			</linearGradient>
			
				<path id="Path_5220" style="fill-rule:evenodd;clip-rule:evenodd;fill:url(#Path_5220_00000082350105761629455370000001190111235559338158_);" d="
				M110.4,159.5c0,0-44.5,2-55.1,5.8c0,0,1.3,36.2,5.7,58.4c0.2,0.9,0.8,1.5,1.7,1.7c2.9,0.7,10,1.6,21.4-1.6c1-0.3,1.7-1.2,1.6-2.3
				l-1.2-14.4c-0.1-1,0.7-1.8,1.6-1.9c0,0,0,0,0,0l1.2-0.2c1-0.1,1.8,0.7,1.9,1.6c0,0,0,0.1,0,0.1l2.2,14.6c0,0.9,0.6,1.8,1.5,2.1
				c3.3,1.1,12,3.2,23.5-0.2c0.9-0.3,1.6-1.1,1.6-2.1C118.2,203.4,115,182.2,110.4,159.5z"/>
			
				<linearGradient id="Path_5221_00000144299313185117468490000009980140825787553414_" gradientUnits="userSpaceOnUse" x1="-79.4293" y1="231.0512" x2="-78.5703" y2="229.7902" gradientTransform="matrix(19.2 0 0 -17.8362 1543.4984 4170.2681)">
				<stop  offset="0" style="stop-color:#09005D"/>
				<stop  offset="1" style="stop-color:#1A0F91"/>
			</linearGradient>
			
				<path id="Path_5221" style="fill-rule:evenodd;clip-rule:evenodd;fill:url(#Path_5221_00000144299313185117468490000009980140825787553414_);" d="
				M93.8,162.6c0,0,5.6,15.6,19.2,16.7l-3-17.8C110,161.5,99.5,161.4,93.8,162.6z"/>
			
				<linearGradient id="Path_5222_00000075864294855681794090000009853255300631330727_" gradientUnits="userSpaceOnUse" x1="-71.1726" y1="218.2151" x2="-69.7506" y2="220.0011" gradientTransform="matrix(110.6176 0 0 -98.5873 7864.6182 21730.1777)">
				<stop  offset="0" style="stop-color:#FF928E"/>
				<stop  offset="1" style="stop-color:#FE7062"/>
			</linearGradient>
			
				<path id="Path_5222" style="fill-rule:evenodd;clip-rule:evenodd;fill:url(#Path_5222_00000075864294855681794090000009853255300631330727_);" d="
				M131.3,77.2c0,0-20.1,12.9-44.5,11.5C66.4,87.5,54,82.3,47.2,76.4c-2.4-2.1-6-2.4-8.7-0.7c-4,2.6-7.8,5.7-11.1,9.2
				c-1.1,1.1-1.2,2.7-0.5,4c5.9,9.6,12.3,16.3,19,20.2c2.3,2.5,3.5,5.8,3.4,9.2L48,165.4c0,1.3,0.9,2.4,2.2,2.7
				c8.9,1.7,42.8,7.6,63.9,3.9v-50.8c0-3.8,2.1-7.2,5.4-9c4.4-2.5,11-7.3,17.6-16.3L131.3,77.2z"/>
			
				<linearGradient id="Path_5223_00000012436456704276990080000008997275284038395019_" gradientUnits="userSpaceOnUse" x1="-74.6174" y1="219.6462" x2="-73.7074" y2="222.5592" gradientTransform="matrix(23.8 0 0 -27.8582 1846.0264 6265.2344)">
				<stop  offset="0" style="stop-color:#A22B25"/>
				<stop  offset="1" style="stop-color:#C0423C"/>
			</linearGradient>
			
				<path id="Path_5223" style="fill-rule:evenodd;clip-rule:evenodd;fill:url(#Path_5223_00000012436456704276990080000008997275284038395019_);" d="
				M96.4,66.3l2.2,24.2c0,0-12.8,7.5-23.8,0.9l2-21.2L96.4,66.3z"/>
			
				<linearGradient id="Path_5224_00000069398597791312760180000012329662639048945580_" gradientUnits="userSpaceOnUse" x1="-56.1392" y1="238.515" x2="-56.9152" y2="237.554" gradientTransform="matrix(60.8125 0 0 -58.2809 4407.251 12868.6113)">
				<stop  offset="0" style="stop-color:#A22B25"/>
				<stop  offset="1" style="stop-color:#C0423C"/>
			</linearGradient>
			
				<path id="Path_5224" style="fill-rule:evenodd;clip-rule:evenodd;fill:url(#Path_5224_00000069398597791312760180000012329662639048945580_);" d="
				M73.1,21.5c0,0-38.7,28.9-16.8,49.8c20.6,19.7,39.9-1.8,39.9-1.8s14.8-7.3,14.2-17.2S80.9,19,73.1,21.5z"/>
			
				<linearGradient id="Path_5225_00000139269023969196129110000003736768386107337396_" gradientUnits="userSpaceOnUse" x1="-72.1009" y1="221.1377" x2="-72.6429" y2="222.1317" gradientTransform="matrix(46.8105 0 0 -48.771 3447.0269 10784.2529)">
				<stop  offset="0" style="stop-color:#09005D"/>
				<stop  offset="1" style="stop-color:#1A0F91"/>
			</linearGradient>
			
				<path id="Path_5225" style="fill-rule:evenodd;clip-rule:evenodd;fill:url(#Path_5225_00000139269023969196129110000003736768386107337396_);" d="
				M101.4,63.2c-1.6-0.8-2.8-2-3.6-3.6C96.4,57,96.2,53.9,97,51c0.3-0.7,0.3-1.5,0.1-2.2c-0.5-0.8-1.6-0.8-2.5-0.9
				c-4.5-0.5-7.7-4.5-7.2-8.9c0.1-1.3,0.6-2.6,1.4-3.7c-3.7-1-4.1-3.9-6.8-5.7c-2.4-1.7-5.9-0.3-8.6-1.3c-2-0.8-6.1-3.8-5.5-6.4
				c0.2-1.2,3.7-3.7,4.7-4.5c4.9-3.5,10.3-2.4,14.7,1.5c12.6,11.4,23.8,22.4,26.2,28.1c1.7,4,1.6,9.2-1.1,12.8
				C109.7,63.4,105,65,101.4,63.2z"/>
			
				<linearGradient id="Path_5226_00000145017235267304121730000012047496354509195183_" gradientUnits="userSpaceOnUse" x1="-16.5449" y1="325.9874" x2="-19.5369" y2="321.0574" gradientTransform="matrix(15.7738 0 0 -11.3569 1302.0093 2654.1067)">
				<stop  offset="0" style="stop-color:#A22B25"/>
				<stop  offset="1" style="stop-color:#C0423C"/>
			</linearGradient>
			
				<path id="Path_5226" style="fill-rule:evenodd;clip-rule:evenodd;fill:url(#Path_5226_00000145017235267304121730000012047496354509195183_);" d="
				M91.7,71.7l8.7-10.5c0,0,9.8-0.9,6.4,5.3S94.4,73.6,91.7,71.7z"/>
		</g>
		
			<linearGradient id="Path_5227_00000075853135076025559540000008043773226863752634_" gradientUnits="userSpaceOnUse" x1="89.695" y1="409.4266" x2="88.609" y2="408.1076" gradientTransform="matrix(79.5455 0 0 -91.1892 -7147.9092 37721.5977)">
			<stop  offset="0" style="stop-color:#FEBBBA"/>
			<stop  offset="1" style="stop-color:#FF928E"/>
		</linearGradient>
		<path id="Path_5227" style="fill:url(#Path_5227_00000075853135076025559540000008043773226863752634_);" d="M126.2,133
			c-4.2-1.9-9.2-1.4-12.9,1.3c-7.2,5.2-23.7,20.9-25.4,55c-2.2,43.8,75.1,32.4,75.1,32.4l4.4-9.5c0,0-55.2-1.9-55.2-21
			c0-13.4,16-29,23.2-35.3c2.7-2.2,3.9-5.8,2.9-9.1C136.2,140.8,131.9,135.8,126.2,133z"/>
		
			<linearGradient id="Path_5228_00000173883196184731051410000007370596790339151234_" gradientUnits="userSpaceOnUse" x1="88.8741" y1="413.6122" x2="86.2401" y2="408.0822" gradientTransform="matrix(34.5789 0 0 -22.9216 -2928.0374 9737.3809)">
			<stop  offset="0" style="stop-color:#FEBBBA"/>
			<stop  offset="1" style="stop-color:#FF928E"/>
		</linearGradient>
		<path id="Path_5228" style="fill:url(#Path_5228_00000173883196184731051410000007370596790339151234_);" d="M157.2,212.2
			c4.7-2.2,9.6-4.2,14.5-5.7c6.6-1.9,8.8,0,8.8,0s-6.6,1.9-8.8,3.8s10.6,1.9,15.2,1.9s5.5,9.4,0.6,12.3s-18.1,8.7-31.3-2.8
			L157.2,212.2z"/>
		
			<linearGradient id="Path_5229_00000000907387646688547180000006490062120970569656_" gradientUnits="userSpaceOnUse" x1="90.4614" y1="413.1343" x2="91.5304" y2="414.4373" gradientTransform="matrix(63.291 0 0 -32.1909 -5389.8857 13545.0967)">
			<stop  offset="0" style="stop-color:#FEBBBA"/>
			<stop  offset="1" style="stop-color:#FF928E"/>
		</linearGradient>
		<path id="Path_5229" style="fill:url(#Path_5229_00000000907387646688547180000006490062120970569656_);" d="M397.9,203.6
			c2,8.1,6.9,17.2,10.6,23.3c-12.4,3-27.2,4.4-44.8,3.9c-3.3-0.1-5.8-0.4-8.7,1.2l-5.6,3.8l-4.2-22.2
			C345.2,213.6,374.3,216.1,397.9,203.6z"/>
		
			<linearGradient id="Path_5230_00000110447234490178727310000014098596177604518845_" gradientUnits="userSpaceOnUse" x1="89.7998" y1="413.3565" x2="91.5328" y2="414.5235" gradientTransform="matrix(39.053 0 0 -35.9355 -3182.4172 15082.418)">
			<stop  offset="0" style="stop-color:#FEBBBA"/>
			<stop  offset="1" style="stop-color:#FF928E"/>
		</linearGradient>
		<path id="Path_5230" style="fill:url(#Path_5230_00000110447234490178727310000014098596177604518845_);" d="M350.9,234.8
			c-5.7,4.5-19.3,3.2-26.4,1.2c-8.6-2-10.3-6.9-9.2-13c8.1-2.6,15.6-6.7,22.1-12.1c-1.4-6.6-4.2-8.6-7.5-9
			c10.9,2.7,19.4,6.8,24.1,13.1L350.9,234.8z"/>
	</g>
	
		<linearGradient id="Path_5231_00000095325737797060580700000014226232867289216186_" gradientUnits="userSpaceOnUse" x1="578.0299" y1="849.9019" x2="578.5279" y2="852.5399" gradientTransform="matrix(59.4836 0 0 -51.9918 -33644.9922 44672.8477)">
		<stop  offset="0" style="stop-color:#FF928E"/>
		<stop  offset="1" style="stop-color:#FE7062"/>
	</linearGradient>
	<path id="Path_5231" style="fill:url(#Path_5231_00000095325737797060580700000014226232867289216186_);" d="M768.4,483.1
		c-0.5-9.3-6.8-17-14.6-18c-6.2-0.8-11.8,2.7-14.7,8.4c-3-6-8.6-10.1-14.9-9.9c-8.1,0.2-14.6,7.5-15.1,17
		c-0.4,5.8,1.7,11.5,5.6,15.8l22.8,18.6c0.9,0.8,2.3,0.8,3.2,0.1l22.3-16.9C766.9,494.1,768.8,488.7,768.4,483.1z"/>
</g>
</svg>
