<?xml version="1.0" encoding="utf-8"?>
<!-- Generator: Adobe Illustrator 25.4.1, SVG Export Plug-In . SVG Version: 6.00 Build 0)  -->
<svg version="1.1" id="Layer_1" xmlns="http://www.w3.org/2000/svg" xmlns:xlink="http://www.w3.org/1999/xlink" x="0px" y="0px"
	 viewBox="0 0 60.6 269.8" style="enable-background:new 0 0 60.6 269.8;" xml:space="preserve">
<g id="Group_36261" transform="translate(-1206.377 -295)">
	<path id="Path_3160" d="M1236.7,355.6c-16.7,0-30.3-13.6-30.3-30.3c0-16.7,13.6-30.3,30.3-30.3c16.7,0,30.3,13.6,30.3,30.3
		C1267,342,1253.4,355.6,1236.7,355.6z M1236.7,300.8c-13.5,0-24.5,11-24.5,24.5c0,13.5,11,24.5,24.5,24.5c13.5,0,24.5-11,24.5-24.5
		C1261.1,311.8,1250.2,300.9,1236.7,300.8L1236.7,300.8z"/>
	<path id="Path_3161" d="M1236.7,425.3c-16.7,0-30.3-13.6-30.3-30.3c0-16.7,13.6-30.3,30.3-30.3c16.7,0,30.3,13.6,30.3,30.3
		C1267,411.8,1253.4,425.3,1236.7,425.3z M1236.7,370.6c-13.5,0-24.5,11-24.5,24.5s11,24.5,24.5,24.5c13.5,0,24.5-11,24.5-24.5
		c0,0,0,0,0,0C1261.1,381.5,1250.2,370.6,1236.7,370.6L1236.7,370.6z"/>
	<path id="Path_3162" d="M1236.7,495.1c-16.7,0-30.3-13.6-30.3-30.3c0-16.7,13.6-30.3,30.3-30.3c16.7,0,30.3,13.6,30.3,30.3
		c0,0,0,0,0,0C1267,481.5,1253.4,495,1236.7,495.1z M1236.7,440.3c-13.5,0-24.5,11-24.5,24.5c0,13.5,11,24.5,24.5,24.5
		c13.5,0,24.5-10.9,24.5-24.5C1261.1,451.3,1250.2,440.3,1236.7,440.3L1236.7,440.3z"/>
	<path id="Path_3163" d="M1236.7,564.8c-16.7,0-30.3-13.6-30.3-30.3c0-16.7,13.6-30.3,30.3-30.3c16.7,0,30.3,13.6,30.3,30.3
		c0,0,0,0,0,0C1267,551.2,1253.4,564.8,1236.7,564.8z M1236.7,510c-13.5,0-24.5,11-24.5,24.5c0,13.5,11,24.5,24.5,24.5
		c13.5,0,24.5-11,24.5-24.5C1261.1,521,1250.2,510,1236.7,510L1236.7,510z"/>
</g>
</svg>
