<?xml version="1.0" encoding="utf-8"?>
<!-- Generator: Adobe Illustrator 25.4.1, SVG Export Plug-In . SVG Version: 6.00 Build 0)  -->
<svg version="1.1" id="Layer_1" xmlns="http://www.w3.org/2000/svg" xmlns:xlink="http://www.w3.org/1999/xlink" x="0px" y="0px"
	 viewBox="0 0 77.3 55.8" style="enable-background:new 0 0 77.3 55.8;" xml:space="preserve">
<g id="Group_36260" transform="translate(-659.056 -300)">
	<path id="Path_1994" d="M719.9,336.1c1,6,3,11.9,5.8,17.3c0.4,0.8,0.1,1.7-0.6,2.1c-0.5,0.3-1.1,0.3-1.5,0
		c-16.2-9.4-23.3-23.2-24.1-34.2c-0.8-9.5,5.7-19.3,15.6-21.1c9.8-1.8,19.2,4.7,21,14.6c1.8,9.8-4.7,19.2-14.6,21
		C721,336,720.5,336,719.9,336.1L719.9,336.1z"/>
	<path id="Path_1995" d="M679.6,336.1c1,6,3,11.9,5.8,17.3c0.4,0.8,0.1,1.7-0.6,2.1c-0.5,0.3-1.1,0.3-1.5,0
		c-16.2-9.4-23.3-23.2-24.1-34.2c-0.8-9.5,5.7-19.3,15.6-21.1c9.8-1.8,19.2,4.7,21,14.6c1.8,9.8-4.7,19.2-14.6,21
		C680.6,336,680.1,336,679.6,336.1L679.6,336.1z"/>
</g>
</svg>
