<?xml version="1.0" encoding="utf-8"?>
<!-- Generator: Adobe Illustrator 25.4.1, SVG Export Plug-In . SVG Version: 6.00 Build 0)  -->
<svg version="1.1" id="Layer_1" xmlns="http://www.w3.org/2000/svg" xmlns:xlink="http://www.w3.org/1999/xlink" x="0px" y="0px"
	 viewBox="0 0 150 150" style="enable-background:new 0 0 150 150;" xml:space="preserve">
<style type="text/css">
	.st0{fill:#1F3C88;}
	.st1{fill:#FFFFFF;}
	.st2{fill:#E9EDF5;}
	.st3{fill:#2FDDD0;}
	.st4{fill:#11BFAE;}
</style>
<g id="Group_36222" transform="translate(-1056 -622)">
	<g id="Group_36219">
		<g id="Group_3641" transform="translate(1056 622)">
			<g id="Group_3640">
				<circle id="Ellipse_337" class="st0" cx="75" cy="75" r="75"/>
			</g>
		</g>
		<path id="Path_3098" class="st1" d="M1162,731.9c12.6,0,22.9-10.2,22.9-22.9c0-12.6-10.2-22.9-22.9-22.9l0,0
			c-4.7-16.9-22.3-26.7-39.1-22c-10.6,3-19,11.3-22,22l0,0c-12.6,0-22.9,10.2-22.9,22.9c0,12.6,10.2,22.9,22.9,22.9l0,0H1162z"/>
		<path id="Path_3099" class="st2" d="M1162,686.1L1162,686.1c-3.8-13.7-16.3-23.1-30.5-23.1v68.9h30.5c12.6,0,22.9-10.2,22.9-22.9
			C1184.9,696.4,1174.6,686.1,1162,686.1L1162,686.1z"/>
		<path id="Path_3100" class="st3" d="M1144.7,712.6c-7.3-7.3-19.2-7.3-26.5,0l-5.6-5.6c10.4-10.4,27.3-10.4,37.7,0L1144.7,712.6z"
			/>
		<path id="Path_3101" class="st4" d="M1150.3,707c-5-5-11.7-7.8-18.8-7.8v7.9c4.9,0,9.7,2,13.2,5.5L1150.3,707z"/>
		<path id="Path_3102" class="st3" d="M1106.1,700.6l-5.6-5.6c17.1-17,44.7-17,61.8,0l-5.6,5.6
			C1142.7,686.7,1120.1,686.7,1106.1,700.6z"/>
		<path id="Path_3103" class="st4" d="M1162.3,695c-8.2-8.2-19.2-12.8-30.8-12.8v7.9c9.5,0,18.5,3.8,25.2,10.5L1162.3,695z"/>
	</g>
	<circle id="Ellipse_338" class="st3" cx="1131.4" cy="720.1" r="6.4"/>
	<path id="Path_3104" class="st4" d="M1134.3,720.1c0-3.5-2.8-6.4-6.3-6.4v12.9C1131.5,726.5,1134.3,723.6,1134.3,720.1
		L1134.3,720.1z"/>
</g>
</svg>
