<?xml version="1.0" encoding="utf-8"?>
<!-- Generator: Adobe Illustrator 25.4.1, SVG Export Plug-In . SVG Version: 6.00 Build 0)  -->
<svg version="1.1" id="Layer_1" xmlns="http://www.w3.org/2000/svg" xmlns:xlink="http://www.w3.org/1999/xlink" x="0px" y="0px"
	 viewBox="0 0 150 150" style="enable-background:new 0 0 150 150;" xml:space="preserve">
<style type="text/css">
	.st0{fill:#1F3C88;}
	.st1{fill:#B0B1B5;}
	.st2{fill:#CD5148;}
	.st3{fill:#ECECEC;}
	.st4{fill:#509FD7;}
	.st5{fill:#D6B24E;}
	.st6{fill:#FFD25A;}
	.st7{fill:#E6E7E8;}
	.st8{fill:#304651;}
	.st9{fill:#DB584D;}
	.st10{fill:#344E5C;}
</style>
<g id="Group_36248" transform="translate(-714 -299)">
	<path id="Path_5239" class="st0" d="M789,299c41.4,0,75,33.6,75,75s-33.6,75-75,75s-75-33.6-75-75S747.6,299,789,299z"/>
	<path id="Path_2857" class="st1" d="M766.7,403.7h44.9v2.6h-44.9V403.7z"/>
	<path id="Path_2858" class="st1" d="M777,410.2h24.2v2.6H777V410.2z"/>
	<g id="Group_36239">
		<path id="Path_2853" class="st2" d="M794.7,338.1H780l-10.4-36.6c4.6-1.3,9.3-2.1,14-2.5l5.6,19.5L794.7,338.1z"/>
		<path id="Path_2854" class="st3" d="M818.1,331.6h-58c-0.6,0-1.1,0.5-1.1,1.1v86.6c0,0.6,0.5,1.1,1.1,1.1h58
			c0.6,0,1.1-0.5,1.1-1.1v-86.6C819.2,332.1,818.7,331.6,818.1,331.6L818.1,331.6z M798,341.1h-17.7c-0.8,0-1.5-0.6-1.5-1.5
			c0-0.8,0.6-1.5,1.5-1.5c0,0,0.1,0,0.1,0H798c0.8,0,1.5,0.6,1.5,1.5C799.6,340.4,798.9,341.1,798,341.1
			C798,341.1,798,341.1,798,341.1L798,341.1z"/>
		<path id="Path_2855" class="st4" d="M772.4,347.6h33.4v42h-33.4V347.6z"/>
		<path id="Path_2856" class="st1" d="M766.7,397.2h44.9v2.6h-44.9V397.2z"/>
		<path id="Path_2859" class="st5" d="M783.9,376.1c0.5,2.9,3.2,4.9,6.1,4.4c2.3-0.4,4-2.1,4.4-4.4c-0.5-0.3-0.9-0.9-0.9-1.5v-2.8
			h-8.7v2.8C784.8,375.2,784.4,375.8,783.9,376.1z"/>
		<path id="Path_2860" class="st6" d="M796,361v0.5c-0.1-3.8-3.1-7.3-6.8-7.3s-6.7,3.5-6.8,7.3V361c-0.8,0-1.4,1.7-1.4,3.2
			c0,1.5,0.6,2.8,1.4,2.8v0.1c0,1.9,1.6,4.3,3.3,6.2c1.7,1.9,4.6,2.2,6.6,0.5c0.2-0.2,0.3-0.3,0.5-0.5c1.7-1.9,3.3-4.3,3.3-6.2V367
			c0.8,0,1.4-1.2,1.4-2.8C797.3,362.7,796.7,361,796,361z"/>
		<path id="Path_2861" class="st7" d="M790.5,389.6h0.3l3.7-11l-3.7-1.8l-1.4,1.4l0.1,9.2L790.5,389.6z"/>
		<path id="Path_2862" class="st8" d="M805.8,381v8.6h-14.3l0.9-2.9l1-4.4l0-0.1l0.9-3.8l0.2-1l1.7-1.9c0,0,7.2,2,9.1,4.3
			C805.4,380.3,805.6,380.6,805.8,381z"/>
		<path id="Path_2863" class="st3" d="M793.5,374.3l-4.4,2.3l3.4,2.1L793.5,374.3z"/>
		<path id="Path_2864" class="st7" d="M787.7,389.6l1-2.2l0.1-9.2l-1.4-1.4l-3.7,1.8l3.7,11H787.7z"/>
		<path id="Path_2865" class="st8" d="M786.8,389.6h-14.4V381c0.2-0.4,0.4-0.7,0.6-1c1.8-2.3,9.1-4.3,9.1-4.3l1.7,1.9l0.2,1l0.8,3.7
			l0,0l1,4.5L786.8,389.6z"/>
		<path id="Path_2866" class="st3" d="M784.8,374.3l4.4,2.3l-3.4,2.1L784.8,374.3z"/>
		<path id="Path_2867" class="st9" d="M787.5,389.6h3.2l-0.8-10.5l0.8-1.6l-1.6-1l-1.6,1l0.8,1.6L787.5,389.6z"/>
		<path id="Path_2868" class="st10" d="M781.5,382.9l3.5,6.7h3.2l-3.3-15.3l-2.6,1.4l-0.9,4.9l2.2,1.2L781.5,382.9z"/>
		<path id="Path_2869" class="st10" d="M793.3,389.6l3.5-6.7l-2-1.1l2.2-1.2l-0.9-4.9l-2.6-1.4l-3.3,15.3L793.3,389.6z"/>
		<path id="Path_2870" class="st8" d="M797.5,358.6c-0.4-1.6-1.1-3.1-2.2-4.4c-0.8-0.9-2.1-2.5-6.2-2.5c-4.1,0-5.4,1.5-6.2,2.5
			c-1.1,1.3-1.8,2.8-2.2,4.4c0,0,0,0.2,0,0.4v0c0,1.4,0.1,2.8,0.3,4.1c0.1,0,0.1,0.1,0.2,0.2c0.4,1,0.7,2,0.8,3.1h0.4
			c0,0,0-0.1,0-0.1v0l0-0.3c-0.1-1.1,0-2.3,0.2-3.4c0.1-0.3,0.1-0.7,0.1-1.2v0c0-0.4,0.1-0.9,0.1-1.5c0,0,0,0,0-0.1
			c0.1-0.9,0.8-1.5,1.7-1.4c0.3,0,0.6,0.2,0.9,0.4c0.1,0.1,0.2,0.2,0.3,0.2c2.1,1.5,4.9,1.5,6.9,0c0.1-0.1,0.2-0.2,0.3-0.2
			c0.6-0.6,1.6-0.5,2.2,0.1c0.2,0.3,0.4,0.6,0.4,0.9c0,0,0,0.1,0,0.1c0,0.6,0.1,1.1,0.1,1.5v0c0,0.4,0.1,0.8,0.1,1.3
			c0.2,1.1,0.3,2.2,0.2,3.3l0,0.4c0,0,0,0,0,0.1h0.4c0.1-1.1,0.3-2.1,0.8-3.1c0-0.1,0.1-0.1,0.2-0.2c0.3-1.4,0.4-2.8,0.3-4.1v0
			C797.5,358.8,797.5,358.6,797.5,358.6z"/>
		<path id="Path_2871" class="st9" d="M808.7,301.5l-10.4,36.6h-14.7l5.6-19.6l5.6-19.5C799.4,299.4,804.1,300.2,808.7,301.5z"/>
	</g>
</g>
</svg>
