<?xml version="1.0" encoding="utf-8"?>
<!-- Generator: Adobe Illustrator 25.4.1, SVG Export Plug-In . SVG Version: 6.00 Build 0)  -->
<svg version="1.1" id="Layer_1" xmlns="http://www.w3.org/2000/svg" xmlns:xlink="http://www.w3.org/1999/xlink" x="0px" y="0px"
	 viewBox="0 0 150 150" style="enable-background:new 0 0 150 150;" xml:space="preserve">
<style type="text/css">
	.st0{fill:#1F3C88;}
	.st1{fill:#EF5261;}
	.st2{fill:#EEEFEE;}
	.st3{fill:#DBD8DD;}
</style>
<g id="Group_36251" transform="translate(-374 -631)">
	<g id="Group_36221" transform="translate(-1 9)">
		<path id="Path_5242" class="st0" d="M450,622c41.4,0,75,33.6,75,75s-33.6,75-75,75s-75-33.6-75-75S408.6,622,450,622z"/>
		<path id="Rectangle_1626" class="st1" d="M422.3,666.3h55.4c7.4,0,13.3,6,13.3,13.3v42.2c0,7.4-6,13.3-13.3,13.3h-55.4
			c-7.4,0-13.3-6-13.3-13.3v-42.2C409,672.2,415,666.3,422.3,666.3z"/>
		<path id="Path_3039" class="st2" d="M491.1,681.2v50.4c0,1.9-1.5,3.4-3.4,3.4l0,0h-75.2c-1.9,0-3.4-1.5-3.4-3.4l0,0l0,0v-50.4
			H491.1z"/>
		<path id="Rectangle_1627" class="st3" d="M448.4,687.2h3.2c1.8,0,3.3,1.5,3.3,3.3v3.2c0,1.8-1.5,3.3-3.3,3.3h-3.2
			c-1.8,0-3.3-1.5-3.3-3.3v-3.2C445.1,688.7,446.6,687.2,448.4,687.2z"/>
		<path id="Rectangle_1628" class="st3" d="M463.3,687.2h3.2c1.8,0,3.3,1.5,3.3,3.3v3.2c0,1.8-1.5,3.3-3.3,3.3h-3.2
			c-1.8,0-3.3-1.5-3.3-3.3v-3.2C459.9,688.7,461.4,687.2,463.3,687.2z"/>
		<path id="Rectangle_1629" class="st3" d="M478.1,687.2h3.2c1.8,0,3.3,1.5,3.3,3.3v3.2c0,1.8-1.5,3.3-3.3,3.3h-3.2
			c-1.8,0-3.3-1.5-3.3-3.3v-3.2C474.8,688.7,476.3,687.2,478.1,687.2z"/>
		<path id="Rectangle_1630" class="st3" d="M418.8,703.2h3.2c1.8,0,3.3,1.5,3.3,3.3v3.2c0,1.8-1.5,3.3-3.3,3.3h-3.2
			c-1.8,0-3.3-1.5-3.3-3.3v-3.2C415.5,704.7,417,703.2,418.8,703.2z"/>
		<path id="Rectangle_1631" class="st3" d="M433.6,703.2h3.2c1.8,0,3.3,1.5,3.3,3.3v3.2c0,1.8-1.5,3.3-3.3,3.3h-3.2
			c-1.8,0-3.3-1.5-3.3-3.3v-3.2C430.3,704.7,431.8,703.2,433.6,703.2z"/>
		<path id="Rectangle_1632" class="st3" d="M448.4,703.2h3.2c1.8,0,3.3,1.5,3.3,3.3v3.2c0,1.8-1.5,3.3-3.3,3.3h-3.2
			c-1.8,0-3.3-1.5-3.3-3.3v-3.2C445.1,704.7,446.6,703.2,448.4,703.2z"/>
		<path id="Rectangle_1633" class="st3" d="M463.3,703.2h3.2c1.8,0,3.3,1.5,3.3,3.3v3.2c0,1.8-1.5,3.3-3.3,3.3h-3.2
			c-1.8,0-3.3-1.5-3.3-3.3v-3.2C459.9,704.7,461.4,703.2,463.3,703.2z"/>
		<path id="Rectangle_1634" class="st3" d="M478.1,703.2h3.2c1.8,0,3.3,1.5,3.3,3.3v3.2c0,1.8-1.5,3.3-3.3,3.3h-3.2
			c-1.8,0-3.3-1.5-3.3-3.3v-3.2C474.8,704.7,476.3,703.2,478.1,703.2z"/>
		<path id="Rectangle_1635" class="st3" d="M418.8,719.3h3.2c1.8,0,3.3,1.5,3.3,3.3v3.2c0,1.8-1.5,3.3-3.3,3.3h-3.2
			c-1.8,0-3.3-1.5-3.3-3.3v-3.2C415.5,720.8,417,719.3,418.8,719.3z"/>
		<path id="Rectangle_1636" class="st3" d="M433.6,719.3h3.2c1.8,0,3.3,1.5,3.3,3.3v3.2c0,1.8-1.5,3.3-3.3,3.3h-3.2
			c-1.8,0-3.3-1.5-3.3-3.3v-3.2C430.3,720.8,431.8,719.3,433.6,719.3z"/>
		<path id="Rectangle_1637" class="st3" d="M448.4,719.3h3.2c1.8,0,3.3,1.5,3.3,3.3v3.2c0,1.8-1.5,3.3-3.3,3.3h-3.2
			c-1.8,0-3.3-1.5-3.3-3.3v-3.2C445.1,720.8,446.6,719.3,448.4,719.3z"/>
		<path id="Path_3040" class="st3" d="M476.4,658L476.4,658c1.8,0,3.3,1.5,3.3,3.3v9.9c0,1.8-1.5,3.3-3.3,3.3l0,0
			c-1.8,0-3.3-1.5-3.3-3.3v-9.9C473.1,659.5,474.6,658,476.4,658z"/>
		<path id="Path_3041" class="st3" d="M423.7,658L423.7,658c1.8,0,3.3,1.5,3.3,3.3v9.9c0,1.8-1.5,3.3-3.3,3.3l0,0
			c-1.8,0-3.3-1.5-3.3-3.3v-9.9C420.3,659.5,421.8,658,423.7,658z"/>
	</g>
</g>
</svg>
