<?xml version="1.0" encoding="utf-8"?>
<!-- Generator: Adobe Illustrator 25.4.1, SVG Export Plug-In . SVG Version: 6.00 Build 0)  -->
<svg version="1.1" id="Layer_1" xmlns="http://www.w3.org/2000/svg" xmlns:xlink="http://www.w3.org/1999/xlink" x="0px" y="0px"
	 viewBox="0 0 150 150" style="enable-background:new 0 0 150 150;" xml:space="preserve">
<style type="text/css">
	.st0{fill:#1F3C88;}
	.st1{fill:#16A897;}
	.st2{fill:#2CBFAE;}
	.st3{fill:#EEEFEE;}
</style>
<g id="Group_36247" transform="translate(-374 -299)">
	<path id="Path_5241" class="st0" d="M449,299c41.4,0,75,33.6,75,75s-33.6,75-75,75s-75-33.6-75-75S407.6,299,449,299z"/>
	<path id="Path_3042" class="st1" d="M480.6,359.3c0,34.6-31.3,60.4-31.3,60.4s-1.1-0.9-3-2.7c-7.9-7.4-28.3-29.5-28.3-57.7
		c0-17.3,14-31.4,31.4-31.4S480.7,342,480.6,359.3L480.6,359.3z"/>
	<path id="Path_3043" class="st2" d="M476.5,357.7c0,30.6-24.5,54.2-30.2,59.2c-7.8-7.3-28.3-29.3-28.3-57.6
		c0-17.3,14.1-31.4,31.4-31.3c3.2,0,6.3,0.5,9.4,1.4C469.6,334.7,476.5,345.7,476.5,357.7L476.5,357.7z"/>
	<circle id="Ellipse_331" class="st3" cx="449.3" cy="359.4" r="22.2"/>
</g>
</svg>
