<?xml version="1.0" encoding="utf-8"?>
<!-- Generator: Adobe Illustrator 25.4.1, SVG Export Plug-In . SVG Version: 6.00 Build 0)  -->
<svg version="1.1" id="Layer_1" xmlns="http://www.w3.org/2000/svg" xmlns:xlink="http://www.w3.org/1999/xlink" x="0px" y="0px"
	 viewBox="0 0 150 150" style="enable-background:new 0 0 150 150;" xml:space="preserve">
<style type="text/css">
	.st0{fill:#1F3C88;}
	.st1{fill:#9CA5A3;}
	.st2{fill:#B0B7B6;}
	.st3{fill:#889391;}
	.st4{fill:#C3C9C8;}
	.st5{fill:#F63341;}
	.st6{fill:#F85C67;}
	.st7{fill:#C92B31;}
	.st8{fill:#9D2422;}
</style>
<g id="Group_36250" transform="translate(-1395 -299)">
	<path id="Path_3529" class="st0" d="M1545,374c0,41.4-33.6,75-75,75s-75-33.6-75-75s33.6-75,75-75S1545,332.6,1545,374z"/>
	<path id="Path_3126" class="st1" d="M1490.2,405l10.3,10.3c-4.6,1.5-9.7,1-13.9-1.4L1490.2,405z"/>
	<path id="Path_3122" class="st1" d="M1469.8,373.8l-10.6-16L1444,348l-8.4,2.2l-7.7-7.6c-3,8.9,1.8,18.5,10.7,21.5
		c3.1,1.1,6.5,1.2,9.7,0.3l15.5,15.5L1469.8,373.8z"/>
	<path id="Path_3123" class="st1" d="M1448.9,342.2l-10.3-10.3c4.6-1.5,9.7-1,13.9,1.4L1448.9,342.2z"/>
	<path id="Path_3124" class="st2" d="M1460.4,352.2c1.9-7.4-1.3-15.1-8-19l-6.2,6.2l-2.2,8.4l0,0l25.8,25.8l6.1-6.1L1460.4,352.2z"
		/>
	<path id="Path_3125" class="st1" d="M1469.8,373.8l10.6,16l15.2,9.9l8.4-2.2l7.7,7.6c3-8.9-1.8-18.5-10.7-21.5
		c-3.1-1.1-6.5-1.2-9.7-0.4l-15.5-15.5L1469.8,373.8z"/>
	<path id="Path_3127" class="st3" d="M1479.2,395.4c-1.9,7.4,1.3,15.1,8,19l6.2-6.2l2.2-8.4l0,0l-25.8-25.8l-6.1,6.1L1479.2,395.4z"
		/>
	<path id="Path_3128" class="st4" d="M1481.2,366.9l-31.9,31.9l-4.1-7.8l31.9-31.9L1481.2,366.9z"/>
	<path id="Path_3129" class="st2" d="M1484.5,366.5l-33.7,33.7l-1.8-5.5l30-30L1484.5,366.5z"/>
	<path id="Path_3130" class="st5" d="M1468.3,367.9l38.4-31c4.6,4.6,4.6,12,0,16.6c0,0,0,0,0,0l-26.4,26.4L1468.3,367.9z"/>
	<path id="Path_3131" class="st6" d="M1506.7,336.9l-34.7,34.7l-8.3-8.3l26.4-26.4C1494.7,332.3,1502.1,332.3,1506.7,336.9
		C1506.7,336.9,1506.7,336.9,1506.7,336.9z"/>
	<path id="Path_3132" class="st7" d="M1503,340.5l-34.7,31l6.5,6.5l28.3-28.3C1505.6,347.2,1505.6,343.1,1503,340.5z"/>
	<path id="Path_3133" class="st5" d="M1493.8,340.5l-28.3,28.3l4.6,4.6l32.9-32.9C1500.5,338,1496.4,338,1493.8,340.5z"/>
	<path id="Path_3134" class="st8" d="M1469.8,373.8l10.2,10.2l3.7-3.7l-10.2-10.2h-3.7L1469.8,373.8z"/>
	
		<rect id="Rectangle_1644" x="1463.9" y="359.7" transform="matrix(0.7071 -0.7071 0.7071 0.7071 170.1336 1144.4647)" class="st7" width="5.2" height="14.4"/>
	<path id="Path_3135" class="st1" d="M1448.9,394.7l-4.7,6.4l-4.5-8.2l5.5-1.8L1448.9,394.7z"/>
	<path id="Path_3136" class="st3" d="M1452.6,398.4l-1.8,5.5l-7.4-3.7l5.5-5.5L1452.6,398.4z"/>
	<path id="Path_3137" class="st2" d="M1450.5,403.3l-12,12l-5.5-5.5l2.8-10.2l9.2-1.8L1450.5,403.3z"/>
	
		<rect id="Rectangle_1645" x="1428" y="397.7" transform="matrix(0.7071 -0.7071 0.7071 0.7071 136.7614 1133.3464)" class="st4" width="17" height="7.8"/>
</g>
</svg>
