<?xml version="1.0" encoding="utf-8"?>
<!-- Generator: Adobe Illustrator 25.4.1, SVG Export Plug-In . SVG Version: 6.00 Build 0)  -->
<svg version="1.1" id="Layer_1" xmlns="http://www.w3.org/2000/svg" xmlns:xlink="http://www.w3.org/1999/xlink" x="0px" y="0px"
	 viewBox="0 0 150 150" style="enable-background:new 0 0 150 150;" xml:space="preserve">
<style type="text/css">
	.st0{fill:#DCE1EB;}
	.st1{fill:#CDD2E1;}
	.st2{fill:#1F3C88;}
	.st3{fill:#FFFFFF;}
	.st4{fill:#E9EDF5;}
</style>
<g id="Group_36249" transform="translate(-1055 -299)">
	<path id="Path_2907" class="st0" d="M1136.7,415.6L1124,419v-9.4l12.7-11.5L1136.7,415.6z"/>
	<path id="Path_2909" class="st1" d="M1124,415.6l12.7,3.4v-9.4l-12.7-11.5L1124,415.6z"/>
	<g id="Group_36217">
		<g id="Group_36216">
			<path id="Path_2906" class="st2" d="M1205,374c0,41.4-33.6,75-75,75s-75-33.6-75-75s33.6-75,75-75S1205,332.6,1205,374z"/>
			<path id="Path_2908" class="st0" d="M1123.3,342.7l-43.3,32.5V389l46.9-8.2L1123.3,342.7z"/>
			<path id="Path_2910" class="st1" d="M1137.2,342.7l43.3,32.5V389l-46.9-8.2L1137.2,342.7z"/>
			<path id="Path_2911" class="st3" d="M1137.7,415.6l-7.5,9.2l-7.5-9.2l-1.7-75.9c-0.1-4.1,1-8.1,3.2-11.5l2-3
				c1.3-2.2,4.1-2.9,6.3-1.6c0.7,0.4,1.2,1,1.6,1.6l2,3c2.2,3.4,3.4,7.4,3.2,11.5L1137.7,415.6z"/>
			<path id="Path_2912" class="st4" d="M1130.2,424.8l7.5-9.2l1.7-75.9c0.1-4.1-1-8.1-3.2-11.5l-2-3c-0.9-1.4-2.3-2.2-4-2.3
				L1130.2,424.8z"/>
		</g>
	</g>
</g>
</svg>
