<?xml version="1.0" encoding="utf-8"?>
<!-- Generator: Adobe Illustrator 25.4.1, SVG Export Plug-In . SVG Version: 6.00 Build 0)  -->
<svg version="1.1" id="Layer_1" xmlns="http://www.w3.org/2000/svg" xmlns:xlink="http://www.w3.org/1999/xlink" x="0px" y="0px"
	 viewBox="0 0 150 150" style="enable-background:new 0 0 150 150;" xml:space="preserve">
<style type="text/css">
	.st0{fill:#1F3C88;}
	.st1{fill:#4ABAA4;}
	.st2{fill:#ECECEC;}
	.st3{fill:#4388B9;}
</style>
<g id="Group_36220" transform="translate(-715 -622)">
	<path id="Path_5240" class="st0" d="M790,622c41.4,0,75,33.6,75,75s-33.6,75-75,75s-75-33.6-75-75S748.6,622,790,622z"/>
	<path id="Path_2951" class="st1" d="M832.4,710.2c6.7-5.2,10.8-12.1,10.8-19.5c0-16.4-19.5-29.7-43.5-29.7s-43.5,13.3-43.5,29.7
		s19.5,29.7,43.5,29.7c6.9,0,13.7-1.1,20.2-3.4l16,7L832.4,710.2z"/>
	<path id="Path_2952" class="st2" d="M775.5,678.1c-21.3,0-38.5,11.7-38.5,26.2c0,6.6,3.6,12.7,9.5,17.3l-3.1,12.1l14.2-6.2
		c5.7,2,11.8,3,17.9,3c21.3,0,38.5-11.7,38.5-26.2C814,689.9,796.7,678.1,775.5,678.1z"/>
	<circle id="Ellipse_273" class="st3" cx="759.1" cy="704.4" r="5.7"/>
	<circle id="Ellipse_274" class="st3" cx="775.5" cy="704.4" r="5.7"/>
	<circle id="Ellipse_275" class="st3" cx="791.9" cy="704.4" r="5.7"/>
</g>
</svg>
