<?xml version="1.0" encoding="utf-8"?>
<!-- Generator: Adobe Illustrator 25.4.1, SVG Export Plug-In . SVG Version: 6.00 Build 0)  -->
<svg version="1.1" id="Layer_1" xmlns="http://www.w3.org/2000/svg" xmlns:xlink="http://www.w3.org/1999/xlink" x="0px" y="0px"
	 viewBox="0 0 150 150" style="enable-background:new 0 0 150 150;" xml:space="preserve">
<style type="text/css">
	.st0{fill:#1F3C88;}
	.st1{fill:#D5DEE6;}
	.st2{fill:#EBF3F7;}
	.st3{fill:#B8CAD9;}
	.st4{fill:#FFB30A;}
	.st5{fill:#A3BACC;}
	.st6{fill:#CFDCE6;}
	.st7{fill:#DFE6EB;}
</style>
<g id="Group_36268" transform="translate(-1055 -295)">
	<path id="Path_3516" class="st0" d="M1205,369.8c0,41.4-33.6,75-75,75s-75-33.6-75-75s33.6-75,75-75S1205,328.4,1205,369.8z"/>
</g>
<g>
	<path class="st1" d="M106,90.2c-1-0.2-2.1-0.3-3.2-0.3H73.4c-9,0-16.3-7.3-16.3-16.3c0-5.4-4.4-9.8-9.8-9.8s-9.8,4.4-9.8,9.8
		c0,10.8,7.9,24.1,18.3,30.8c4.9,3.2,7.9,8.6,7.9,14.4v2.7c0,1.7,1.3,3.1,3,3.2c0.1,0,0.2,0,0.2,0h49c1.8,0,3.3-1.5,3.3-3.3v-15.2
		C119.1,98.3,113.5,91.7,106,90.2z"/>
	<path class="st2" d="M47.2,70.2c-5.4,0-9.8-4.4-9.8-9.8s4.4-9.8,9.8-9.8S57,55,57,60.4S52.6,70.2,47.2,70.2z"/>
	<path class="st3" d="M119.1,106.2v15.2c0,1.8-1.5,3.3-3.3,3.3H89.7V89.8h13.1c1.1,0,2.2,0.1,3.2,0.3
		C113.5,91.7,119.1,98.3,119.1,106.2z"/>
	<path class="st4" d="M50.2,31.9c-1.8-1.6-3.7-3.2-4.3-5c-0.8-2.7-4.6-2.7-5.5,0c-1.1,3.5-0.2,6,0.5,7.9c0.6,1.7,0.9,2.6,0.2,4.2
		c-1.9,4.3-5.8,7.3-2.1,13.5c4.6,7.8,14,4.2,16.8-3.1C57.8,44.2,56.6,37.5,50.2,31.9z"/>
	<path class="st1" d="M78.4,70.2H66.8c-1.8,0-3.3-1.5-3.3-3.3s1.5-3.3,3.3-3.3h11.5c1.8,0,3.3,1.5,3.3,3.3S80.2,70.2,78.4,70.2z"/>
	<g>
		<path class="st5" d="M112.6,70.2H101c-1.8,0-3.3-1.5-3.3-3.3s1.5-3.3,3.3-3.3h11.5c1.8,0,3.3,1.5,3.3,3.3S114.4,70.2,112.6,70.2z"
			/>
		<path class="st5" d="M95.1,64.8c-0.8,0-1.7-0.3-2.3-1c-1.3-1.3-1.3-3.3,0-4.6l10.8-10.8c1.3-1.3,3.3-1.3,4.6,0
			c1.3,1.3,1.3,3.3,0,4.6L97.4,63.9C96.8,64.5,95.9,64.8,95.1,64.8z"/>
	</g>
	<g>
		<path class="st1" d="M84.3,64.8c-0.8,0-1.7-0.3-2.3-1L71.2,53.1c-1.3-1.3-1.3-3.3,0-4.6c1.3-1.3,3.3-1.3,4.6,0l10.8,10.8
			c1.3,1.3,1.3,3.3,0,4.6C86,64.5,85.2,64.8,84.3,64.8z"/>
		<path class="st1" d="M60.3,57.2H34.2c-1.8,0-3.3-1.5-3.3-3.3c0-1.8,1.5-3.3,3.3-3.3h26.1c1.8,0,3.3,1.5,3.3,3.3
			C63.6,55.7,62.1,57.2,60.3,57.2z"/>
	</g>
	<path class="st2" d="M102.8,89.8h-1.4l-34.8,34.8H106V90.2C105,89.9,103.9,89.8,102.8,89.8z"/>
	<path class="st6" d="M101.4,89.8l-11.7,11.7v23.1H106V90.2c-1-0.2-2.1-0.3-3.2-0.3H101.4z"/>
	<path class="st1" d="M89.7,63.7c-1.8,0-3.3-1.5-3.3-3.3V44.1c0-1.8,1.5-3.3,3.3-3.3s3.3,1.5,3.3,3.3v16.3
		C93,62.2,91.5,63.7,89.7,63.7z"/>
	<path class="st5" d="M93,60.4V44.1c0-1.8-1.5-3.3-3.3-3.3v22.9C91.5,63.7,93,62.2,93,60.4z"/>
	<path class="st2" d="M89.7,57.2c-9,0-16.3,7.3-16.3,16.3V80c0,9,7.3,16.3,16.3,16.3S106,89,106,80v-6.5
		C106,64.5,98.7,57.2,89.7,57.2z"/>
	<path class="st6" d="M106,80v-6.5c0-9-7.3-16.3-16.3-16.3v39.2C98.7,96.4,106,89,106,80z"/>
	<path class="st7" d="M106,73.5v3.3h-9.8c-2.5,0-4.8-1-6.5-2.5c-1.7,1.6-4,2.5-6.5,2.5h-9.8v-3.3c0-9,7.3-16.3,16.3-16.3
		S106,64.5,106,73.5z"/>
	<path class="st3" d="M96.2,76.8h9.8v-3.3c0-9-7.3-16.3-16.3-16.3v17.1C91.4,75.8,93.7,76.8,96.2,76.8z"/>
</g>
</svg>
