<?xml version="1.0" encoding="utf-8"?>
<!-- Generator: Adobe Illustrator 25.4.1, SVG Export Plug-In . SVG Version: 6.00 Build 0)  -->
<svg version="1.1" id="Layer_1" xmlns="http://www.w3.org/2000/svg" xmlns:xlink="http://www.w3.org/1999/xlink" x="0px" y="0px"
	 viewBox="0 0 150 150" style="enable-background:new 0 0 150 150;" xml:space="preserve">
<style type="text/css">
	.st0{fill:#1F3C88;}
	.st1{fill:#DBE1E8;}
	.st2{fill:#F7F9FA;}
	.st3{fill:#C7D1DB;}
	.st4{fill:#5A5F64;}
	.st5{fill:#373C41;}
</style>
<g id="Group_36267" transform="translate(-375 -626)">
	<g id="Group_36135" transform="translate(0 11)">
		<g id="Group_36132" transform="translate(0 -5)">
			<circle id="Ellipse_355" class="st0" cx="450" cy="695" r="75"/>
			<path id="Path_3483" class="st1" d="M447.3,642h4.8v35.9h-4.8V642z"/>
			<path id="Path_3484" class="st2" d="M435.5,662.3h28.4v25.3h-28.4V662.3z"/>
			<path id="Path_3485" class="st1" d="M459,687.6h-23.3v-25.3h14.2L459,687.6z"/>
			<path id="Path_3486" class="st3" d="M449.2,662.3h14.2v25.3h-14.2V662.3z"/>
			<path id="Path_3487" class="st2" d="M459.4,699.1h-27.1v-31.6H450L459.4,699.1z"/>
			<path id="Path_3488" class="st1" d="M449.1,667.4h17.7v31.6h-17.7V667.4z"/>
			<path id="Path_3489" class="st2" d="M428.4,682.9h22.1v39.5h-22.1V682.9z"/>
			<path id="Path_3490" class="st1" d="M448.9,682.9H471v39.5h-22.1V682.9z"/>
			<path id="Path_3491" class="st4" d="M444,672.1h4.3v37.8H444V672.1z"/>
			<path id="Path_3492" class="st4" d="M441.1,684.7l-4.3,2.8v-14.8h4.3V684.7z"/>
			<path id="Path_3493" class="st5" d="M451.2,672.1h4.3v37.8h-4.3V672.1z"/>
			<path id="Path_3494" class="st5" d="M462.6,687.6l-4.3-2.8v-11.9h4.3V687.6z"/>
			<path id="Path_3495" class="st1" d="M428.6,682.9h12.8v39.6h-12.8V682.9z"/>
			<path id="Path_3496" class="st3" d="M458,682.9h12.8v39.5H458V682.9z"/>
			<path id="Path_3497" class="st4" d="M433,687.3h4.3v19.8H433V687.3z"/>
			<path id="Path_3498" class="st5" d="M462.2,687.3h4.3v19.8h-4.3L462.2,687.3z"/>
		</g>
		<path id="Path_3499" class="st2" d="M450.7,748.1h-8.9l-2.1-0.6l-2.1,0.6H433l-2-0.6l-2.2,0.6H423v-49.4h27.7l3.3,24.7
			L450.7,748.1z"/>
		<path id="Path_3500" class="st1" d="M476.3,748.1h-5.6l-2.1-0.6l-2.1,0.6H462l-2.1-0.6l-2.1,0.6h-9.1v-49.4h27.7V748.1z"/>
		<path id="Path_3501" class="st4" d="M427.7,705h4.3v43.1h-4.3V705z"/>
		<path id="Path_3502" class="st4" d="M436.5,705h4.3v43.1h-4.3V705z"/>
		<path id="Path_3503" class="st4" d="M458.8,705h4.3v43.1h-4.3V705z"/>
		<path id="Path_3504" class="st4" d="M467.6,705h4.3v43.1h-4.3V705z"/>
	</g>
</g>
</svg>
