<?xml version="1.0" encoding="utf-8"?>
<!-- Generator: Adobe Illustrator 25.4.1, SVG Export Plug-In . SVG Version: 6.00 Build 0)  -->
<svg version="1.1" id="Layer_1" xmlns="http://www.w3.org/2000/svg" xmlns:xlink="http://www.w3.org/1999/xlink" x="0px" y="0px"
	 viewBox="0 0 150 150" style="enable-background:new 0 0 150 150;" xml:space="preserve">
<style type="text/css">
	.st0{fill:#1F3C88;}
	.st1{fill:#FF3A2F;}
	.st2{fill:#DB2116;}
	.st3{fill:#FF5A35;}
	.st4{fill:#FF5A52;}
	.st5{fill:#FF8063;}
</style>
<g id="Group_36269" transform="translate(-1055 -626)">
	<g id="Group_36134" transform="translate(-1 6)">
		<path id="Path_3505" class="st0" d="M1206,695c0,41.4-33.6,75-75,75s-75-33.6-75-75s33.6-75,75-75S1206,653.6,1206,695z"/>
		<path id="Path_3506" class="st1" d="M1089.3,682.5h5.9v18.8h-5.9V682.5z"/>
		<path id="Path_3507" class="st2" d="M1167.5,682.5h5.9v18.8h-5.9V682.5z"/>
		<path id="Path_3508" class="st3" d="M1106.5,659l-5.9,12.4c-3.3,6.8-10.1,11.1-17.7,11.2h-1.9v5.9h1.9c9.8,0,18.8-5.6,23-14.5
			l4.3-9.1L1106.5,659z"/>
		<path id="Path_3509" class="st1" d="M1156.2,659l5.9,12.4c3.3,6.8,10.1,11.1,17.7,11.2h1.9v5.9h-1.9c-9.8,0-18.8-5.6-23-14.5
			l-4.3-9.1L1156.2,659z"/>
		<path id="Path_3510" class="st1" d="M1118.3,673.7V659h-11.8v70.8h11.8v-44.2h13.1l5.9-5.9l-5.9-5.9H1118.3z"/>
		<path id="Path_3511" class="st4" d="M1106.5,659h5.7v70.8h-5.7V659z"/>
		<path id="Path_3512" class="st1" d="M1181.7,694.4h-50.3l-5.9,8.9l5.9,8.8h50.3V694.4z"/>
		<path id="Path_3513" class="st3" d="M1081,694.4h50.3v17.7H1081V694.4z"/>
		<path id="Path_3514" class="st5" d="M1081,694.4h20.3v17.7H1081V694.4z"/>
		<path id="Path_3515" class="st2" d="M1144.4,659v14.7h-13.1v11.8h13.1v44.2h11.8V659H1144.4z"/>
	</g>
</g>
</svg>
