<?xml version="1.0" encoding="utf-8"?>
<!-- Generator: Adobe Illustrator 25.4.1, SVG Export Plug-In . SVG Version: 6.00 Build 0)  -->
<svg version="1.1" id="Layer_1" xmlns="http://www.w3.org/2000/svg" xmlns:xlink="http://www.w3.org/1999/xlink" x="0px" y="0px"
	 viewBox="0 0 150 150" style="enable-background:new 0 0 150 150;" xml:space="preserve">
<style type="text/css">
	.st0{fill:#1F3C88;}
	.st1{fill:#5DC1D8;}
	.st2{fill:#FFFFFF;}
</style>
<g id="Group_36264" transform="translate(-716 -296)">
	<path id="Path_3477" class="st0" d="M866,371c0,41.4-33.6,75-75,75s-75-33.6-75-75s33.6-75,75-75S866,329.6,866,371z"/>
	<g id="Group_36242">
		<path id="Path_3478" class="st1" d="M832.6,348.7c-5.4,0-10.3,3.4-12.2,8.5c-0.7,1.7,0.2,3.6,1.8,4.3s3.6-0.2,4.3-1.8
			c0,0,0-0.1,0-0.1c1.3-3.3,5-5,8.3-3.8c3.3,1.3,5,5,3.8,8.3c-0.9,2.5-3.4,4.2-6.1,4.2h-71.3c-1.8,0-3.3,1.5-3.3,3.3
			c0,1.8,1.5,3.3,3.3,3.3h71.3c7.2,0,13-5.8,13-13C845.6,354.5,839.8,348.7,832.6,348.7L832.6,348.7L832.6,348.7z"/>
		<path id="Path_3479" class="st2" d="M799.3,382.8H737c0.5,2.2,1.1,4.4,1.9,6.6h60.4c3.6,0,6.5,2.9,6.5,6.5c0,3.6-2.9,6.5-6.5,6.5
			c-2.7,0-5.1-1.7-6-4.2c-0.6-1.7-2.5-2.6-4.2-2c-1.7,0.6-2.6,2.5-2,4.2c0,0,0,0.1,0,0.1c2.5,6.7,10,10.2,16.8,7.6
			c6.7-2.5,10.2-10,7.6-16.8C809.6,386.2,804.7,382.8,799.3,382.8L799.3,382.8z"/>
		<path id="Path_3480" class="st2" d="M812.3,347c0-7.2-5.8-13-13-13c-5.4,0-10.3,3.4-12.2,8.5c-0.7,1.7,0.2,3.6,1.8,4.3
			c1.7,0.7,3.6-0.2,4.3-1.8c0,0,0-0.1,0-0.1c1.3-3.3,5-5,8.3-3.8c3.3,1.3,5,5,3.8,8.3c-0.9,2.5-3.4,4.2-6,4.2h-60.4
			c-0.8,2.1-1.4,4.3-1.9,6.6h62.3C806.5,360.1,812.3,354.2,812.3,347z"/>
		<path id="Path_3481" class="st2" d="M737,382.8c0.5,2.2,1.1,4.4,1.9,6.6h15c-1.1-2.1-1.9-4.3-2.6-6.6H737z"/>
		<path id="Path_3482" class="st2" d="M738.9,353.5c-0.8,2.1-1.4,4.3-1.9,6.6h14.3c0.7-2.3,1.5-4.5,2.6-6.6H738.9z"/>
	</g>
</g>
</svg>
