<?xml version="1.0" encoding="utf-8"?>
<!-- Generator: Adobe Illustrator 25.4.1, SVG Export Plug-In . SVG Version: 6.00 Build 0)  -->
<svg version="1.1" id="Layer_1" xmlns="http://www.w3.org/2000/svg" xmlns:xlink="http://www.w3.org/1999/xlink" x="0px" y="0px"
	 viewBox="0 0 150 150" style="enable-background:new 0 0 150 150;" xml:space="preserve">
<style type="text/css">
	.st0{fill:#1F3C88;}
	.st1{fill:#BCDEFA;}
	.st2{fill:#92CBF7;}
	.st3{fill:#2789E1;}
	.st4{fill:#FFFFFF;}
	.st5{fill:#EDF0F2;}
	.st6{fill:#595959;}
	.st7{fill:#969696;}
	.st8{fill:#303030;}
	.st9{fill:#828282;}
	.st10{fill:#E5E5E5;}
</style>
<g id="Group_36263" transform="translate(-375 -295)">
	<circle id="Ellipse_347" class="st0" cx="450" cy="370" r="75"/>
	<g id="Group_36241">
		<g id="Group_36240">
			<path id="Path_3458" class="st1" d="M480,360.9L480,360.9c-6.1-13.9-19.9-22.9-35-22.9h-1.4c-15.2,0-28.9,9-35,22.9h-1.8
				c-4.8,0-8.6,3.9-8.6,8.6l0,0v22.4h104.8v-9.5c0-11.9-9.6-21.5-21.5-21.5l0,0L480,360.9z"/>
			<path id="Path_3459" class="st2" d="M502.8,382.4c0-11.9-9.6-21.5-21.5-21.5H480c-6.1-13.9-19.9-22.9-35-22.9h-0.6v53.9h58.4
				V382.4L502.8,382.4z"/>
			<path id="Path_3460" class="st2" d="M398,380.9v11h104.8v-9.5c0-0.5,0-1-0.1-1.5L398,380.9z"/>
			<path id="Path_3461" class="st3" d="M502.8,382.4c0-0.5,0-1-0.1-1.5h-58.3v11h58.4V382.4L502.8,382.4z"/>
			<path id="Path_3462" class="st4" d="M441.1,342.8c-10.7,0-20.4,6.3-24.7,16.2l-1,2.3h25.7V342.8z"/>
			<path id="Path_3463" class="st5" d="M474.7,359.8c-4.5-10.3-14.7-17-26-17l0,0v18.5h26.7L474.7,359.8z"/>
			<circle id="Ellipse_348" class="st6" cx="415.9" cy="390.3" r="11.9"/>
			<circle id="Ellipse_349" class="st7" cx="415.9" cy="390.3" r="5.4"/>
		</g>
		<circle id="Ellipse_350" class="st8" cx="484.8" cy="390.3" r="11.9"/>
		<circle id="Ellipse_351" class="st9" cx="484.8" cy="390.3" r="5.4"/>
		<path id="Path_3464" class="st10" d="M498.8,370h-8.5c-1.5,0-2.8,1.2-2.8,2.8c0,1.5,1.2,2.8,2.8,2.8h11.3
			C500.9,373.5,500,371.7,498.8,370z"/>
	</g>
</g>
</svg>
