<?xml version="1.0" encoding="utf-8"?>
<!-- Generator: Adobe Illustrator 25.4.1, SVG Export Plug-In . SVG Version: 6.00 Build 0)  -->
<svg version="1.1" id="Layer_1" xmlns="http://www.w3.org/2000/svg" xmlns:xlink="http://www.w3.org/1999/xlink" x="0px" y="0px"
	 viewBox="0 0 150 150" style="enable-background:new 0 0 150 150;" xml:space="preserve">
<style type="text/css">
	.st0{fill:#1F3C88;}
	.st1{fill:#FFFFFF;}
	.st2{fill:#4482C3;}
	.st3{fill:#F0C419;}
</style>
<g id="Group_36268" transform="translate(-715 -626)">
	<g id="Group_36133" transform="translate(-1 6)">
		<circle id="Ellipse_352" class="st0" cx="791" cy="695" r="75"/>
		<path id="Path_3465" class="st1" d="M777.7,696.5c0,4.6-3.7,8.3-8.3,8.3c0,0,0,0,0,0h-27.6c-4.6,0-8.3-3.7-8.3-8.3
			c0-4.6,3.7-8.3,8.3-8.3h0.1c-0.1-0.5-0.1-0.9-0.1-1.4c0.1-6.9,5.7-12.4,12.5-12.3c6.8,0.1,12.2,5.5,12.3,12.3
			c0,0.6-0.1,1.3-0.2,1.9c0.9-0.4,1.9-0.6,2.9-0.6C774,688.2,777.7,691.9,777.7,696.5C777.7,696.5,777.7,696.5,777.7,696.5
			L777.7,696.5z"/>
		<path id="Path_3466" class="st1" d="M805.3,677.2c0,4.6,3.7,8.3,8.3,8.3c0,0,0,0,0,0h27.6c4.6,0,8.3-3.7,8.3-8.3
			c0-4.6-3.7-8.3-8.3-8.3h-0.1c0.1-0.5,0.1-0.9,0.1-1.4c0.1-6.9-5.4-12.5-12.3-12.5c-6.9-0.1-12.5,5.4-12.5,12.3c0,0.1,0,0.1,0,0.2
			c0,0.6,0.1,1.3,0.2,1.9c-0.9-0.4-1.9-0.6-2.9-0.6C809,668.9,805.3,672.6,805.3,677.2C805.3,677.2,805.3,677.2,805.3,677.2
			L805.3,677.2z"/>
		<path id="Path_3467" class="st2" d="M859,722.7c-12,28.8-38.6,47.3-68,47.3s-56-18.5-68-47.3c1.2,0.3,2.5,0.5,3.8,0.4
			c4.1,0.1,8.1-1.6,10.8-4.6c1-1.1,2.6-1.2,3.8-0.3c0.1,0.1,0.2,0.2,0.3,0.3c2.8,3,6.7,4.7,10.8,4.6c4.1,0.1,8.1-1.6,10.8-4.6
			c1-1.1,2.6-1.2,3.8-0.3c0.1,0.1,0.2,0.2,0.3,0.3c2.8,3,6.7,4.7,10.8,4.6c4.1,0.1,8.1-1.6,10.8-4.6c1-1.1,2.6-1.2,3.8-0.3
			c0.1,0.1,0.2,0.2,0.3,0.3c5.8,6,15.3,6.2,21.3,0.4c0.1-0.1,0.3-0.3,0.4-0.4c1-1.1,2.6-1.2,3.8-0.3c0.1,0.1,0.2,0.2,0.3,0.3
			c5.8,6,15.3,6.2,21.3,0.4c0.1-0.1,0.3-0.3,0.4-0.4c1-1.1,2.6-1.2,3.8-0.3c0.1,0.1,0.2,0.2,0.3,0.3c2.8,3,6.7,4.7,10.8,4.6
			C856.5,723.1,857.8,723,859,722.7z"/>
		<path id="Path_3468" class="st3" d="M773.9,643.4c0,11.4-9.3,20.7-20.7,20.7c-8.9,0-16.9-5.7-19.6-14.2
			c8.3-10.3,19-18.5,31.2-23.6C770.5,630.2,773.9,636.6,773.9,643.4z"/>
	</g>
</g>
</svg>
