<?xml version="1.0" encoding="utf-8"?>
<!-- Generator: Adobe Illustrator 25.4.1, SVG Export Plug-In . SVG Version: 6.00 Build 0)  -->
<svg version="1.1" id="Layer_1" xmlns="http://www.w3.org/2000/svg" xmlns:xlink="http://www.w3.org/1999/xlink" x="0px" y="0px"
	 viewBox="0 0 150 150" style="enable-background:new 0 0 150 150;" xml:space="preserve">
<style type="text/css">
	.st0{fill:#1F3C88;}
	.st1{fill:#E9EDF5;}
	.st2{fill:#FFFFFF;}
	.st3{fill:#FFCE00;}
	.st4{fill:#FDBA12;}
</style>
<g id="Group_36266" transform="translate(-1395 -296)">
	<g id="Group_36131" transform="translate(0 -5)">
		<g id="Group_3838" transform="translate(1395 301)">
			<circle id="Ellipse_353" class="st0" cx="75" cy="75" r="75"/>
		</g>
		<path id="Path_3472" class="st1" d="M1513.2,397.1c6,0,10.8-4.8,10.8-10.8s-4.8-10.8-10.8-10.8c-0.5,0-0.9,0-1.4,0.1
			c-2.7-7-10-11.1-17.4-9.9c-5.4-10.6-18.4-14.9-29.1-9.4c-10.6,5.4-14.9,18.4-9.4,29.1c3.7,7.2,11.1,11.8,19.3,11.8L1513.2,397.1
			L1513.2,397.1z"/>
		<path id="Path_3473" class="st2" d="M1483.5,370.8c4.7,0.1,8.5-3.7,8.5-8.4c0.1-4.7-3.7-8.5-8.4-8.5c-0.1,0-0.1,0-0.2,0
			c-0.4,0-0.7,0-1.1,0.1c-2.1-5.5-7.8-8.7-13.6-7.8c-4.2-8.3-14.4-11.6-22.7-7.4c-8.3,4.2-11.6,14.4-7.4,22.7
			c2.9,5.7,8.7,9.2,15.1,9.2L1483.5,370.8z"/>
		<circle id="Ellipse_354" class="st3" cx="1472.2" cy="370.9" r="27.8"/>
		<path id="Path_3474" class="st4" d="M1472.2,343.1h-0.2v55.6h0.2c15.3,0,27.8-12.4,27.8-27.8
			C1500,355.5,1487.5,343.1,1472.2,343.1C1472.2,343.1,1472.2,343.1,1472.2,343.1L1472.2,343.1z"/>
		<path id="Path_3475" class="st2" d="M1474.6,414.2c6,0,10.8-4.8,10.8-10.8s-4.8-10.8-10.8-10.8c-0.5,0-0.9,0-1.4,0.1
			c-2.7-7-10-11.1-17.4-9.9c-5.4-10.6-18.4-14.9-29.1-9.4c-10.6,5.4-14.9,18.4-9.4,29.1c3.7,7.2,11.1,11.8,19.3,11.8H1474.6z"/>
		<path id="Path_3476" class="st1" d="M1474.6,392.6c-0.5,0-0.9,0-1.4,0.1c-2.7-7-10-11.1-17.4-9.9c-1.5-2.9-3.5-5.4-6.1-7.3v38.7
			h24.9c6,0,10.8-4.8,10.8-10.8C1485.4,397.4,1480.6,392.6,1474.6,392.6L1474.6,392.6z"/>
	</g>
</g>
</svg>
